<?xml version="1.0" encoding="UTF-8"?>
<svg width="392px" height="249px" viewBox="0 0 392 249" version="1.1" xmlns="http://www.w3.org/2000/svg" xmlns:xlink="http://www.w3.org/1999/xlink">
    <!-- Generator: Sketch 46.1 (44463) - http://www.bohemiancoding.com/sketch -->
    <title>Group 2 Copy 3</title>
    <desc>Created with Sketch.</desc>
    <defs>
        <circle id="path-1" cx="239" cy="239" r="239"></circle>
    </defs>
    <g id="Staging" stroke="none" stroke-width="1" fill="none" fill-rule="evenodd">
        <g id="Home_v02" transform="translate(0.000000, -734.000000)">
            <g id="Group-2-Copy-3" transform="translate(-86.000000, 505.000000)">
                <mask id="mask-2" fill="white">
                    <use xlink:href="#path-1"></use>
                </mask>
                <g id="Oval"></g>
                <path d="M239.980036,346.691729 C172.423301,346.691729 138.062643,320.137728 104.834401,294.463331 C71.4486631,268.676477 36.9338373,242 -31,242 L-31,243.307157 C36.555626,243.307157 70.9162837,269.861158 104.143417,295.536669 C137.524718,321.323523 172.046198,348 239.980036,348 C307.923855,348 342.448663,321.323523 375.833292,295.536669 C409.06597,269.861158 443.434392,243.307157 511,243.307157 L511,242 C443.051744,242 408.529154,268.676477 375.142308,294.463331 C341.910738,320.137728 307.544535,346.691729 239.980036,346.691729" id="Fill-76" fill="#25D8E9" mask="url(#mask-2)"></path>
                <path d="M273.843182,389.691647 C206.286585,389.691647 171.924889,363.142653 138.697824,337.466637 C105.312154,311.671478 70.79629,285 2.8625917,285 C-9.47084054,285 -20.6740779,285.898588 -31,287.493109 L-31,288.815938 C-20.68406,287.212509 -9.47638615,286.30724 2.8625917,286.30724 C70.4169704,286.30724 104.779776,312.856233 138.006841,338.533363 C171.388074,364.328522 205.907266,391 273.843182,391 C341.785753,391 376.309381,364.328522 409.695051,338.533363 C436.861875,317.541808 464.805085,295.993508 511,288.815938 L511,287.493109 C464.450166,294.675133 436.329497,316.357053 409.004068,337.466637 C375.772567,363.142653 341.406434,389.691647 273.843182,389.691647" id="Fill-84" fill="#25D8E9" mask="url(#mask-2)"></path>
                <path d="M285.13025,403.692829 C217.572406,403.692829 183.210639,377.138549 149.984616,351.463882 C116.598878,325.676758 82.0829428,299 14.1491055,299 C-2.82048973,299 -17.7027139,300.664583 -31,303.566192 L-31,304.908993 C-17.7060412,301.99291 -2.82936272,300.306058 14.1491055,300.306058 C81.7036225,300.306058 116.066498,326.861451 149.293631,352.536118 C182.674933,378.324356 217.194195,405 285.13025,405 C353.07407,405 387.59666,378.324356 420.980179,352.536118 C445.862264,333.308232 471.387641,313.599342 511,304.908993 L511,303.566192 C471.032721,312.272129 445.338758,332.112404 420.290304,351.463882 C387.060953,377.138549 352.694749,403.692829 285.13025,403.692829" id="Fill-86" fill="#25D8E9" mask="url(#mask-2)"></path>
                <path d="M195.132612,408.46387 C161.749092,382.676205 127.233157,356 59.297102,356 C20.1561204,356 -7.87143986,364.877593 -31,377.316022 L-31,378.79358 C-7.89029496,366.271642 20.0962278,357.306085 59.297102,357.306085 C126.853837,357.306085 161.215604,383.860923 194.441628,409.537243 C227.824038,435.323795 262.34441,462 330.278247,462 C398.222066,462 432.744656,435.323795 466.130394,409.537243 C480.088718,398.757865 494.269975,387.845986 511,378.782445 L511,377.311568 C493.981603,386.466412 479.594048,397.530835 465.43941,408.46387 C432.212276,434.13685 397.843855,460.691688 330.278247,460.691688 C262.72373,460.691688 228.359745,434.13685 195.132612,408.46387 Z" id="Fill-97" fill="#25D8E9" mask="url(#mask-2)"></path>
                <path d="M-8.34866107,450 C-16.3584081,450 -23.8705179,450.397038 -31,451.095468 L-31,452.412255 C-23.8705179,451.708263 -16.3584081,451.305665 -8.34866107,451.305665 C59.0181438,451.305665 93.2832289,477.823786 126.417019,503.468869 C130.527502,506.651844 134.660102,509.847053 138.867901,513 L141,513 C136.293458,509.500062 131.685338,505.948965 127.10597,502.403428 C93.8184653,476.639345 59.3941364,450 -8.34866107,450" id="Fill-116" fill="#25D8E9" mask="url(#mask-2)"></path>
                <path d="M330.461252,469.691647 C262.894535,469.691647 228.528332,443.140426 195.297871,417.466637 C161.911025,391.671478 127.385107,365 59.4423972,365 C20.2115766,365 -7.84371176,373.912391 -31,386.394638 L-31,387.870016 C-7.86256686,375.30871 20.1605569,366.306126 59.4423972,366.306126 C127.008005,366.306126 161.375318,392.856233 194.606887,418.533363 C227.992625,444.326295 262.517433,471 330.461252,471 C398.403963,471 432.932098,444.326295 466.317836,418.533363 C480.218485,407.789277 494.354269,396.921593 511,387.885604 L511,386.414681 C494.055915,395.54309 479.723816,406.573343 465.626851,417.466637 C432.389736,443.140426 398.025751,469.691647 330.461252,469.691647" id="Fill-142" fill="#25D8E9" mask="url(#mask-2)"></path>
                <path d="M228.69306,332.69276 C161.136463,332.69276 126.775876,306.143767 93.5477014,280.466637 C62.0663938,256.149082 29.5547122,231.065444 -31,228.276146 L-31,229.590067 C29.1842656,232.373797 61.5384519,257.334951 92.8567187,281.53559 C126.237952,307.328522 160.759362,334 228.69306,334 C296.63674,334 331.160368,307.328522 364.544929,281.53559 C397.778648,255.85846 432.147,229.308353 499.712469,229.308353 C503.586631,229.308353 507.331026,229.419703 511,229.584499 L511,228.276146 C507.331026,228.112463 503.586631,228 499.712469,228 C431.764353,228 397.240724,254.673705 363.855055,280.466637 C330.621335,306.143767 296.257421,332.69276 228.69306,332.69276 Z" id="Fill-73" fill="#25D8E9" mask="url(#mask-2)"></path>
                <path d="M116.122763,308.464961 C82.7370932,282.671758 48.2212288,256 -19.7124694,256 C-23.5932859,256 -27.3310257,256.104669 -31,256.278376 L-31,257.586743 C-27.3365713,257.413036 -23.5932859,257.30614 -19.7124694,257.30614 C47.8430184,257.30614 82.2036057,283.856526 115.43178,309.533925 C148.811904,335.327129 183.332204,362 251.267012,362 C319.210692,362 353.736539,335.327129 387.11999,309.533925 C418.441584,285.327465 450.800207,260.37607 511,257.586743 L511,256.278376 C450.436415,259.067703 417.909206,284.142697 386.429007,308.464961 C353.197505,334.141247 318.831373,360.692746 251.267012,360.692746 C183.711524,360.692746 149.349828,334.141247 116.122763,308.464961 Z" id="Fill-78" fill="#25D8E9" mask="url(#mask-2)"></path>
                <path d="M127.410293,323.469404 C94.0246237,297.668978 59.5087594,271 -8.42493887,271 C-16.4083962,271 -23.8916396,271.399756 -31,272.090143 L-31,273.401878 C-23.8916396,272.707037 -16.4083962,272.308395 -8.42493887,272.308395 C59.1294398,272.308395 93.4911362,298.853771 126.71931,324.531709 C160.100543,350.332136 194.619735,377 262.555652,377 C330.498223,377 365.021851,350.332136 398.40752,324.531709 C427.711622,301.889246 457.932968,278.593142 511,273.401878 L511,272.083462 C457.569176,277.284748 427.180353,300.70334 397.716538,323.469404 C364.485036,349.146229 330.118903,375.692719 262.555652,375.692719 C194.999055,375.692719 160.637358,349.146229 127.410293,323.469404 Z" id="Fill-81" fill="#25D8E9" mask="url(#mask-2)"></path>
                <path d="M161.271776,365.465535 C127.886106,339.673144 93.370242,313 25.4365437,313 C3.48813629,313 -14.93881,315.815963 -31,320.454673 L-31,321.823127 C-14.9510104,317.147671 3.4681721,314.307212 25.4365437,314.307212 C92.9909224,314.307212 127.353728,340.857875 160.580793,366.534465 C193.962026,392.326856 228.481218,419 296.414916,419 C364.358596,419 398.884443,392.326856 432.267894,366.534465 C454.693224,349.205551 477.679769,331.513645 511,321.817559 L511,320.454673 C477.342596,330.170802 454.1797,348.004118 431.576911,365.465535 C398.347628,391.141011 363.981495,417.692788 296.414916,417.692788 C228.860537,417.692788 194.497732,391.141011 161.271776,365.465535 Z" id="Fill-88" fill="#25D8E9" mask="url(#mask-2)"></path>
                <path d="M172.558197,380.470507 C139.173637,354.669538 104.658882,328 36.7251834,328 C9.43413721,328 -12.4022489,332.342848 -31,339.168913 L-31,340.558624 C-12.421104,333.692471 9.40640917,329.308422 36.7251834,329.308422 C104.279562,329.308422 138.641259,355.854356 171.869433,381.532834 C205.249556,407.333803 239.768748,434 307.703556,434 C375.646127,434 410.171973,407.333803 443.555424,381.532834 C463.357681,366.235989 483.616897,350.674118 511,340.558624 L511,339.162232 C483.290815,349.325609 462.844158,365.030013 442.864442,380.470507 C409.635158,406.147871 375.269025,432.691578 307.703556,432.691578 C240.148068,432.691578 205.785262,406.147871 172.558197,380.470507 Z" id="Fill-91" fill="#25D8E9" mask="url(#mask-2)"></path>
                <path d="M183.845728,394.466637 C150.462277,368.671478 115.946412,342 48.012714,342 C15.0130189,342 -10.0686571,348.323522 -31,357.754801 L-31,359.167822 C-10.0930578,349.676415 14.9753087,343.306126 48.012714,343.306126 C115.567093,343.306126 149.928789,369.856233 183.154745,395.533363 C216.535978,421.328522 251.057388,448 318.991086,448 C386.933657,448 421.457286,421.328522 454.842955,395.533363 C471.825825,382.409744 489.144759,369.085697 511,359.165595 L511,357.743666 C488.836423,367.727236 471.322284,381.203832 454.151972,394.466637 C420.924907,420.142653 386.556556,446.691647 318.991086,446.691647 C251.436707,446.691647 217.072793,420.142653 183.845728,394.466637 Z" id="Fill-94" fill="#25D8E9" mask="url(#mask-2)"></path>
                <path d="M-31,465.597607 C-27.3028029,465.424197 -23.5249196,465.314558 -19.608875,465.314558 C43.5651148,465.314558 77.6124867,488.792 108.928685,513 L111,513 C79.1433142,488.29974 44.8737789,464 -19.608875,464 C-23.5249196,464 -27.3028029,464.10964 -31,464.284168 L-31,465.597607 Z" id="Fill-110" fill="#25D8E9" mask="url(#mask-2)"></path>
                <path d="M393.085544,513 C422.651519,490.635863 454.671403,468.907771 511,466.294139 L511,465 C453.41607,467.653316 421.124643,490.149734 391,513 L393.085544,513 Z" id="Fill-113" fill="#25D8E9" mask="url(#mask-2)"></path>
                <path d="M385.13779,513 C389.35571,509.840736 393.50045,506.641368 397.623013,503.453141 C426.884561,480.820289 457.06088,457.545781 510,452.311161 L510,451 C456.696081,456.226822 426.35344,479.635008 396.931114,502.385942 C392.339523,505.936215 387.719104,509.494286 383,513 L385.13779,513 Z" id="Fill-118" fill="#25D8E9" mask="url(#mask-2)"></path>
                <path d="M376.476734,513 C388.314346,505.528 399.018687,497.276227 409.602918,489.10812 C436.809183,468.103301 464.781712,446.535125 511,439.317473 L511,438 C464.425828,445.219884 436.275356,466.915233 408.910055,488.032723 C397.806455,496.608008 386.544932,505.251342 374,513 L376.476734,513 Z" id="Fill-121" fill="#25D8E9" mask="url(#mask-2)"></path>
                <path d="M-31,438.501669 L-31,439.818978 C-20.6265248,438.208072 -9.35322998,437.301799 3.05983624,437.301799 C70.7329316,437.301799 105.153807,463.723324 138.438243,489.271813 C149.010567,497.383957 159.702867,505.579194 171.527163,513 L174,513 C161.470291,505.304432 150.221435,496.720317 139.129215,488.203784 C105.691477,462.544504 71.1106336,436 3.05983624,436 C-9.34989731,436 -20.6209703,436.906273 -31,438.501669 Z" id="Fill-124" fill="#25D8E9" mask="url(#mask-2)"></path>
                <path d="M360.264977,513 C383.973428,502.911996 402.338787,488.788344 420.327716,474.881604 C445.127814,455.70672 470.560093,436.054634 510,427.348182 L510,426 C470.205806,434.723137 444.60524,454.513157 419.637963,473.813737 C401.006889,488.217703 382.013778,502.900872 357,513 L360.264977,513 Z" id="Fill-127" fill="#25D8E9" mask="url(#mask-2)"></path>
                <path d="M-31,426.56409 L-31,427.902374 C-17.6626648,424.981578 -2.73638927,423.2985 14.3125421,423.2985 C81.9068668,423.2985 116.287676,449.647556 149.53226,475.130208 C167.559854,488.946251 185.963602,502.976683 209.725584,513 L213,513 C187.930914,502.966738 168.895807,488.378226 150.224648,474.069306 C116.82472,448.471723 82.2852387,422 14.3125421,422 C-2.72418372,422 -17.6582265,423.663185 -31,426.56409 Z" id="Fill-130" fill="#25D8E9" mask="url(#mask-2)"></path>
                <path d="M161.434817,459.468842 C128.048038,433.668144 93.5233008,407 25.5796204,407 C3.56133831,407 -14.9044273,409.830616 -31,414.495231 L-31,415.86377 C-14.9144094,411.170203 3.54248325,408.308408 25.5796204,408.308408 C93.1461994,408.308408 127.512332,434.85295 160.743834,460.531158 C194.129503,486.330742 228.65535,513 296.597921,513 C364.541601,513 399.066339,486.330742 432.454226,460.531158 C454.832973,443.236785 477.780699,425.57717 511,415.869338 L511,414.505253 C477.436871,424.238697 454.31945,442.03639 431.763243,459.468842 C398.528415,485.145937 364.162282,511.691592 296.597921,511.691592 C229.032451,511.691592 194.666318,485.145937 161.434817,459.468842 Z" id="Fill-133" fill="#25D8E9" mask="url(#mask-2)"></path>
                <path d="M172.722347,445.466637 C139.335569,419.673705 104.810831,393 36.867151,393 C9.50844836,393 -12.3711935,397.36823 -31,404.225115 L-31,405.614753 C-12.3900486,398.716669 9.48072032,394.30724 36.867151,394.30724 C104.43373,394.30724 138.800972,420.85846 172.031364,446.533363 C205.417034,472.328522 239.94288,499 307.885451,499 C375.829132,499 410.354978,472.328522 443.741757,446.533363 C463.497431,431.270726 483.710063,415.743077 511,405.623661 L511,404.234022 C483.382872,414.401319 462.983908,430.064814 443.050774,445.466637 C409.815945,471.142653 375.449812,497.691647 307.885451,497.691647 C240.319982,497.691647 205.953849,471.142653 172.722347,445.466637 Z" id="Fill-136" fill="#25D8E9" mask="url(#mask-2)"></path>
                <path d="M184.009878,431.46387 C150.624208,405.676205 116.098362,379 48.1557907,379 C15.0773479,379 -10.040929,385.3545 -31,394.815544 L-31,396.235202 C-10.0653297,386.706236 15.0462925,380.306085 48.1557907,380.306085 C115.721261,380.306085 150.088503,406.860923 183.320004,432.537243 C216.705674,458.323795 251.230411,485 319.174091,485 C387.116662,485 421.644727,458.323795 455.029287,432.537243 C471.966683,419.448555 489.227943,406.156105 511,396.246337 L511,394.824452 C488.920716,404.801027 471.462033,418.237114 454.339414,431.46387 C421.102367,457.137964 386.737343,483.692801 319.174091,483.692801 C251.607512,483.692801 217.241379,457.137964 184.009878,431.46387 Z" id="Fill-139" fill="#25D8E9" mask="url(#mask-2)"></path>
            </g>
        </g>
    </g>
</svg>