<?xml version="1.0" encoding="UTF-8"?>
<svg width="959px" height="498px" viewBox="0 0 959 498" version="1.1" xmlns="http://www.w3.org/2000/svg" xmlns:xlink="http://www.w3.org/1999/xlink">
    <!-- Generator: Sketch 46.2 (44496) - http://www.bohemiancoding.com/sketch -->
    <title>Group 2 Copy 3</title>
    <desc>Created with Sketch.</desc>
    <defs>
        <circle id="path-1" cx="479.5" cy="479.5" r="479.5"></circle>
    </defs>
    <g id="Staging" stroke="none" stroke-width="1" fill="none" fill-rule="evenodd">
        <g id="Home_v03-Copy-16" transform="translate(-161.000000, -1298.000000)">
            <g id="Group-2-Copy-3" transform="translate(640.500000, 1317.500000) scale(-1, 1) translate(-640.500000, -1317.500000) translate(161.000000, 838.000000)">
                <mask id="mask-2" fill="white">
                    <use xlink:href="#path-1"></use>
                </mask>
                <g id="Oval"></g>
                <path d="M480.959998,694.358774 C345.597241,694.358774 276.749133,640.749753 210.170036,588.916535 C143.275366,536.856285 74.1183529,483 -62,483 L-62,485.638978 C73.3605348,485.638978 142.208642,539.247999 208.785518,591.083465 C275.671298,643.143715 344.841645,697 480.959998,697 C617.098352,697 686.275366,643.143715 753.167813,591.083465 C819.7558,539.247999 888.619464,485.638978 1024,485.638978 L1024,483 C887.852757,483 818.680188,536.856285 751.783295,588.916535 C685.19753,640.749753 616.338311,694.358774 480.959998,694.358774" id="Fill-76" fill="#25D8E9" mask="url(#mask-2)"></path>
                <path d="M548.811247,781.358608 C413.448767,781.358608 344.598578,727.759696 278.021839,675.923211 C211.127305,623.846191 141.968212,570 5.85013762,570 C-18.8622377,570 -41.3100527,571.814131 -62,575.033258 L-62,577.703874 C-41.3300537,574.466763 -18.8733494,572.639145 5.85013762,572.639145 C141.208173,572.639145 210.060584,626.238056 276.637323,678.076789 C343.522967,730.153809 412.688728,784 548.811247,784 C684.9471,784 754.12175,730.153809 821.016283,678.076789 C875.450179,635.697613 931.439709,592.194441 1024,577.703874 L1024,575.033258 C930.728562,589.532817 874.383457,633.305748 819.631768,675.923211 C753.046139,727.759696 684.187061,781.358608 548.811247,781.358608" id="Fill-84" fill="#25D8E9" mask="url(#mask-2)"></path>
                <path d="M571.427033,810.360994 C436.062054,810.360994 367.211724,756.75141 300.637071,704.917648 C233.742401,652.85685 164.583166,599 28.4648129,599 C-5.53699603,599 -35.3563603,602.360574 -62,608.218538 L-62,610.929476 C-35.3630273,605.042289 -5.55477476,601.636758 28.4648129,601.636758 C163.823125,601.636758 232.675677,655.24859 299.252553,707.082352 C366.138334,759.145398 435.304236,813 571.427033,813 C707.565387,813 776.737956,759.145398 843.628182,707.082352 C893.484167,668.263789 944.629111,628.474144 1024,610.929476 L1024,608.218538 C943.917962,625.794677 892.435223,665.849571 842.245886,704.917648 C775.664566,756.75141 706.805347,810.360994 571.427033,810.360994" id="Fill-86" fill="#25D8E9" mask="url(#mask-2)"></path>
                <path d="M391.099662,817.917625 C324.209436,765.855734 255.050201,712 118.927404,712 C40.5010089,712 -15.6575345,729.922688 -62,755.034234 L-62,758.017227 C-15.6953143,732.737088 40.3810025,714.636813 118.927404,714.636813 C254.290161,714.636813 323.14049,768.247524 389.715143,820.084623 C456.603146,872.144266 525.771271,926 661.889624,926 C798.027978,926 867.200547,872.144266 934.095217,820.084623 C962.063371,798.322482 990.478217,776.292839 1024,757.994748 L1024,755.025242 C989.900408,773.507663 961.072208,795.845271 932.710699,817.917625 C866.133823,869.747981 797.27016,923.358691 661.889624,923.358691 C526.531311,923.358691 457.676537,869.747981 391.099662,817.917625 Z" id="Fill-97" fill="#25D8E9" mask="url(#mask-2)"></path>
                <path d="M-16.5656283,903 C-32.6316906,903 -47.6995853,903.800378 -62,905.208325 L-62,907.862799 C-47.6995853,906.443642 -32.6316906,905.632055 -16.5656283,905.632055 C118.559649,905.632055 187.289035,959.089219 253.749253,1010.78645 C261.994117,1017.20292 270.283345,1023.64406 278.723406,1030 L283,1030 C273.559553,1022.94457 264.31652,1015.78601 255.13116,1008.63866 C188.362619,956.701538 119.31382,903 -16.5656283,903" id="Fill-116" fill="#25D8E9" mask="url(#mask-2)"></path>
                <path d="M662.25631,943.358608 C526.873552,943.358608 458.014333,889.7552 391.43079,837.923211 C324.533898,785.846191 255.354662,732 119.21853,732 C40.6121259,732 -15.601976,749.992941 -62,775.192949 L-62,778.171541 C-15.6397557,752.811925 40.5098982,734.636897 119.21853,734.636897 C254.599066,734.636897 323.460507,788.238056 390.046272,840.076789 C456.940942,892.149313 526.117956,946 662.25631,946 C798.392442,946 867.576122,892.149313 934.470792,840.076789 C962.323385,818.385899 990.647114,796.445481 1024,778.203013 L1024,775.233413 C990.049305,793.662465 961.332221,815.93109 933.086274,837.923211 C866.489398,889.7552 797.634623,943.358608 662.25631,943.358608" id="Fill-142" fill="#25D8E9" mask="url(#mask-2)"></path>
                <path d="M458.344397,670.360855 C322.981916,670.360855 254.13395,616.761944 187.554988,564.923211 C124.476206,515.829279 59.3328736,465.188726 -62,459.557502 L-62,462.210135 C58.5906134,467.830119 123.418374,518.223392 186.170473,567.081285 C253.056117,619.153809 322.226322,673 458.344397,673 C594.482472,673 663.657122,619.153809 730.549433,567.081285 C797.139506,515.242552 866.003029,461.641392 1001.38329,461.641392 C1009.14591,461.641392 1016.64851,461.866192 1024,462.198895 L1024,459.557502 C1016.64851,459.227047 1009.14591,459 1001.38329,459 C865.236323,459 796.061673,512.850687 729.16714,564.923211 C662.577067,616.761944 593.722433,670.360855 458.344397,670.360855 Z" id="Fill-73" fill="#25D8E9" mask="url(#mask-2)"></path>
                <path d="M232.788414,617.919828 C165.89388,565.846757 96.7347869,512 -39.3832875,512 C-47.1592408,512 -54.6485128,512.211314 -62,512.562004 L-62,515.203425 C-54.6596245,514.852734 -47.1592408,514.636924 -39.3832875,514.636924 C95.9769704,514.636924 164.824937,568.238647 231.403898,620.077924 C298.28732,672.150995 367.455303,726 503.575599,726 C639.713675,726 708.892769,672.150995 775.782858,620.077924 C838.541624,571.208278 903.378274,520.834708 1024,515.203425 L1024,512.562004 C902.649348,518.193287 837.474903,568.816387 774.398342,617.919828 C707.812714,669.756857 638.953636,723.360828 503.575599,723.360828 C368.215341,723.360828 299.365153,669.756857 232.788414,617.919828 Z" id="Fill-78" fill="#25D8E9" mask="url(#mask-2)"></path>
                <path d="M255.405126,647.928797 C188.510593,595.841144 119.351499,542 -16.7665749,542 C-32.7629488,542 -47.7570492,542.807055 -62,544.200855 L-62,546.849075 C-47.7570492,545.446283 -32.7629488,544.641476 -16.7665749,544.641476 C118.591461,544.641476 187.441649,598.233084 254.020611,650.073451 C320.906255,702.161104 390.072015,756 526.194534,756 C662.330387,756 731.505037,702.161104 798.39957,650.073451 C857.115907,604.361308 917.670116,557.329552 1024,546.849075 L1024,544.187367 C916.94119,554.688076 856.051408,601.967119 797.015055,647.928797 C730.429427,699.766916 661.570348,753.360772 526.194534,753.360772 C390.832054,753.360772 321.981865,699.766916 255.405126,647.928797 Z" id="Fill-81" fill="#25D8E9" mask="url(#mask-2)"></path>
                <path d="M323.253041,734.920986 C256.358508,682.849556 187.199415,629 51.0813404,629 C7.10353507,629 -29.8183537,634.685056 -62,644.050001 L-62,646.812727 C-29.8427994,637.3736 7.06353302,631.639089 51.0813404,631.639089 C186.439376,631.639089 255.291787,685.241371 321.868526,737.079014 C388.75417,789.150444 457.91993,843 594.038005,843 C730.17608,843 799.355175,789.150444 866.245263,737.079014 C911.178673,702.094225 957.236585,666.376605 1024,646.801487 L1024,644.050001 C956.560995,663.665581 910.149731,699.668691 864.860748,734.920986 C798.279564,786.756381 729.420486,840.360911 594.038005,840.360911 C458.679969,840.360911 389.827558,786.756381 323.253041,734.920986 Z" id="Fill-88" fill="#25D8E9" mask="url(#mask-2)"></path>
                <path d="M345.867532,762.931023 C278.975221,710.842275 209.81835,657 73.7002752,657 C19.0174779,657 -24.7358715,665.767636 -62,679.54856 L-62,682.354204 C-24.7736512,668.492347 18.9619195,659.641531 73.7002752,659.641531 C209.058311,659.641531 277.9085,713.234266 344.487461,765.075721 C411.370882,817.164469 480.536643,871 616.65694,871 C752.792793,871 821.971887,817.164469 888.861976,765.075721 C928.539561,734.193411 969.132749,702.77605 1024,682.354204 L1024,679.535072 C968.479382,700.053587 927.51062,731.758706 887.47746,762.931023 C820.896277,814.77023 752.037199,868.358469 616.65694,868.358469 C481.296682,868.358469 412.444271,814.77023 345.867532,762.931023 Z" id="Fill-91" fill="#25D8E9" mask="url(#mask-2)"></path>
                <path d="M368.484244,794.923211 C301.594156,742.846191 232.435062,689 96.3169878,689 C30.1958275,689 -20.0600767,701.766356 -62,720.806862 L-62,723.659566 C-20.1089681,704.497668 30.1202681,691.636897 96.3169878,691.636897 C231.675023,691.636897 300.525212,745.238056 367.099729,797.076789 C433.985373,849.153809 503.155578,903 639.273652,903 C775.409505,903 844.584155,849.153809 911.478688,797.076789 C945.507096,770.581936 980.208871,743.682445 1024,723.65507 L1024,720.784382 C979.591062,740.939892 944.498155,768.147359 910.094173,794.923211 C843.517434,846.759696 774.653911,900.358608 639.273652,900.358608 C503.915617,900.358608 435.060983,846.759696 368.484244,794.923211 Z" id="Fill-94" fill="#25D8E9" mask="url(#mask-2)"></path>
                <path d="M-62,934.195214 C-54.6316424,933.848395 -47.1024807,933.629115 -39.2979692,933.629115 C86.6051233,933.629115 154.460097,980.583999 216.871958,1029 L221,1029 C157.510971,979.599479 89.2132355,931 -39.2979692,931 C-47.1024807,931 -54.6316424,931.219279 -62,931.568336 L-62,934.195214 Z" id="Fill-110" fill="#25D8E9" mask="url(#mask-2)"></path>
                <path d="M788.188467,1030 C847.566801,984.805806 911.8734,940.896955 1025,935.61524 L1025,933 C909.352274,938.36191 844.500325,983.82342 784,1030 L788.188467,1030 Z" id="Fill-113" fill="#25D8E9" mask="url(#mask-2)"></path>
                <path d="M773.292412,1033 C781.761466,1026.57956 790.08358,1020.07762 798.361167,1013.59832 C857.11467,967.602523 917.704916,920.302717 1024,909.664618 L1024,907 C916.972446,917.622251 856.048246,965.193726 796.971922,1011.4295 C787.752587,1018.64457 778.475366,1025.87549 769,1033 L773.292412,1033 Z" id="Fill-118" fill="#25D8E9" mask="url(#mask-2)"></path>
                <path d="M754.989625,1029 C778.83766,1013.95637 800.402611,997.342803 821.725586,980.897681 C876.535288,938.607978 932.888705,895.184052 1026,880.652511 L1026,878 C932.17174,892.536032 875.459841,936.216002 820.329745,978.732549 C797.96045,995.997457 775.273002,1013.39937 750,1029 L754.989625,1029 Z" id="Fill-121" fill="#25D8E9" mask="url(#mask-2)"></path>
                <path d="M-62,879.970849 L-62,882.58836 C-41.1518449,879.387468 -18.495272,877.586691 6.45196356,877.586691 C142.45838,877.586691 211.635943,930.086604 278.529542,980.851784 C299.777335,996.970719 321.26625,1013.25476 345.0302,1028 L350,1028 C324.81834,1012.70881 302.210885,995.652058 279.918228,978.729597 C212.716528,927.744273 143.217469,875 6.45196356,875 C-18.4885741,875 -41.1406818,876.800777 -62,879.970849 Z" id="Fill-124" fill="#25D8E9" mask="url(#mask-2)"></path>
                <path d="M722.572634,1031 C770.299451,1010.70804 807.270238,982.298394 843.483244,954.325065 C893.407626,915.754897 944.604633,876.224838 1024,858.71186 L1024,856 C943.891427,873.54654 892.355648,913.354051 842.094723,952.177057 C804.589031,981.150552 766.354533,1010.68566 716,1031 L722.572634,1031 Z" id="Fill-127" fill="#25D8E9" mask="url(#mask-2)"></path>
                <path d="M-62,856.178335 L-62,858.86961 C-35.2160073,852.99592 -5.2411096,849.61127 28.9964984,849.61127 C164.7392,849.61127 233.782628,902.598931 300.544293,953.844265 C336.747249,981.628174 373.705593,1009.84322 421.424329,1030 L428,1030 C377.656344,1009.82322 339.430105,980.485883 301.934743,951.710802 C234.861119,900.234343 165.499045,847 28.9964984,847 C-5.21659845,847 -35.2070941,850.344648 -62,856.178335 Z" id="Fill-130" fill="#25D8E9" mask="url(#mask-2)"></path>
                <path d="M323.579725,921.927662 C256.682969,869.839461 187.506097,816 51.3680217,816 C7.25020924,816 -29.7494613,821.71464 -62,831.131881 L-62,833.894781 C-29.7694623,824.41909 7.21242953,818.641503 51.3680217,818.641503 C186.750503,818.641503 255.609581,872.231427 322.195209,924.072338 C389.089743,976.158291 458.268837,1030 594.40469,1030 C730.542766,1030 799.719638,976.158291 866.618616,924.072338 C911.458687,889.157282 957.438817,853.504853 1024,833.906022 L1024,831.152114 C956.749893,850.802651 910.429746,886.733843 865.2341,921.927662 C798.641805,973.766325 729.782727,1027.3585 594.40469,1027.3585 C459.024431,1027.3585 390.165353,973.766325 323.579725,921.927662 Z" id="Fill-133" fill="#25D8E9" mask="url(#mask-2)"></path>
                <path d="M346.196437,892.923211 C279.299682,840.850687 210.12281,787 73.9847342,787 C19.1663744,787 -24.6736461,795.818879 -62,809.662024 L-62,812.46752 C-24.7114258,798.541199 19.110816,789.639145 73.9847342,789.639145 C209.367215,789.639145 278.228516,843.242552 344.811922,895.076789 C411.706455,947.153809 480.88555,1001 617.021403,1001 C753.159478,1001 822.338573,947.153809 889.235328,895.076789 C928.819575,864.26354 969.319425,832.91527 1024,812.485504 L1024,809.680008 C968.663836,830.206437 927.790634,861.828963 887.850813,892.923211 C821.258517,944.759696 752.399439,998.358608 617.021403,998.358608 C481.641144,998.358608 412.782066,944.759696 346.196437,892.923211 Z" id="Fill-136" fill="#25D8E9" mask="url(#mask-2)"></path>
                <path d="M368.81315,865.917625 C301.918617,813.855734 232.739522,760 96.6036691,760 C30.324723,760 -20.0045183,772.828895 -62,791.929495 L-62,794.795597 C-20.0534097,775.557874 30.2624976,762.636813 96.6036691,762.636813 C231.983928,762.636813 300.845228,816.247524 367.430857,868.084623 C434.32539,920.144266 503.502262,974 639.640338,974 C775.776191,974 844.95973,920.144266 911.852041,868.084623 C945.789332,841.660291 980.375546,814.824588 1024,794.818076 L1024,791.947478 C979.759959,812.088866 944.77817,839.214551 910.469748,865.917625 C843.873008,917.750228 775.016152,971.360939 639.640338,971.360939 C504.257856,971.360939 435.398778,917.750228 368.81315,865.917625 Z" id="Fill-139" fill="#25D8E9" mask="url(#mask-2)"></path>
            </g>
        </g>
    </g>
</svg>