<svg id="Layer_1" data-name="Layer 1" xmlns="http://www.w3.org/2000/svg" xmlns:xlink="http://www.w3.org/1999/xlink" viewBox="0 0 219.64 46.54"><defs><style>.cls-1{fill:url(#linear-gradient);}.cls-2{fill:#414141;}</style><linearGradient id="linear-gradient" y1="23.27" x2="81.68" y2="23.27" gradientUnits="userSpaceOnUse"><stop offset="0" stop-color="#25d8e9" stop-opacity="0.98"/><stop offset="1" stop-color="#6454e0"/></linearGradient></defs><title>horizontal</title><path class="cls-1" d="M68.06,13.64A13.76,13.76,0,0,1,81.68,0V33a13.37,13.37,0,0,1-3.08,7.91,13.63,13.63,0,0,1-8.45,5.41,10.45,10.45,0,0,1-1.64.21c-.32,0-.64,0-1,0a13.59,13.59,0,0,1-9.8-4.16h0L52.45,37,47.37,42a13.6,13.6,0,0,1-8.17,4.35h0l-.16,0-.55.06-.43,0h-.85a13.58,13.58,0,0,1-9.39-3.82l-.17-.16-.11-.12q-.34-.34-.63-.7l-.21-.25-.06-.08-.05-.07a13.58,13.58,0,0,1-2.35-4.51l-.08-.29L24,36.3l-.42-1.59a1.51,1.51,0,0,1,1.46-1.89h12.3L43.23,27a13.63,13.63,0,0,1,11.41-3.6,14.11,14.11,0,0,1,7,3.28l.06,0c.35.31.54.51.54.51l5.85,5.88ZM23.07,30H36.83V24.47a8.11,8.11,0,0,0-8.19-8H9.8C9.8,30,23.07,30,23.07,30ZM0,0C0,7.13,5.9,13.64,12.48,13.64H31.38A5.64,5.64,0,0,1,36.83,17V8.2A8.2,8.2,0,0,0,28.63,0Z"/><path class="cls-2" d="M122.12,36.08l-4.89-15.78-4.89,15.78H104.4L95.31,11.2h8.12l5.12,17.21,5-17.21h7.61l5.12,17.21,5-17.21h7.8L130,36.08Z"/><path class="cls-2" d="M163.2,19.83V36.08h-7.8V33.22c-1.62,2.12-4.25,3.23-7.62,3.23-5.31,0-8.54-3.23-8.54-7.8s3.37-7.48,9.55-7.52h6.55v-.37c0-2.45-1.62-3.92-4.85-3.92a17.5,17.5,0,0,0-7.43,2.08l-2.26-5.26a26.25,26.25,0,0,1,11.54-2.82C159.18,10.83,163.15,14.2,163.2,19.83Zm-7.85,7.8V25.42h-5c-2.4,0-3.6.83-3.6,2.68s1.29,3,3.51,3C152.72,31,154.84,29.66,155.35,27.63Z"/><path class="cls-2" d="M174.46,36.08,165.09,11.2h8.21l5.35,17.58,5.4-17.58H192l-9.37,24.87Z"/><path class="cls-2" d="M208.89,38.66c-1.85,4.52-5,6.74-9.6,6.74A11.29,11.29,0,0,1,192,42.86l3.32-5.45a5,5,0,0,0,3.28,1.34,3.19,3.19,0,0,0,3.09-2l.6-1.25L192,11.2h8.21l6.09,16.52,5.4-16.52h7.94Z"/></svg>