<?xml version="1.0" encoding="utf-8"?>
<!-- Generator: Adobe Illustrator 21.1.0, SVG Export Plug-In . SVG Version: 6.00 Build 0)  -->
<svg version="1.1" id="Layer_1" xmlns="http://www.w3.org/2000/svg" xmlns:xlink="http://www.w3.org/1999/xlink" x="0px" y="0px"
	 viewBox="0 0 219.6 46.5" style="enable-background:new 0 0 219.6 46.5;" xml:space="preserve">
<style type="text/css">
	.st0{fill:#FFFFFF;}
</style>
<title>horizontal</title>
<path class="st0" d="M68.1,13.6C68.1,6.1,74.2,0.1,81.7,0v33c-0.1,2.9-1.2,5.7-3.1,7.9c-2,2.8-5,4.7-8.4,5.4
	c-0.5,0.1-1.1,0.2-1.6,0.2c-0.3,0-0.6,0-1,0c-3.7,0-7.2-1.5-9.8-4.2l0,0L52.5,37l-5.1,5c-2.1,2.4-5,3.9-8.2,4.3l0,0H39l-0.5,0.1
	h-0.4h-0.8c-3.5,0-6.9-1.4-9.4-3.8l-0.2-0.2l-0.1-0.1c-0.2-0.2-0.4-0.5-0.6-0.7l-0.2-0.2l-0.1-0.1l0-0.1c-1.1-1.3-1.9-2.9-2.4-4.5
	l-0.1-0.3L24,36.3l-0.4-1.6c-0.2-0.8,0.3-1.6,1.1-1.8c0.1,0,0.3,0,0.4,0h12.3l5.9-5.8c3-2.9,7.3-4.2,11.4-3.6c2.6,0.4,5,1.6,7,3.3
	h0.1c0.3,0.3,0.5,0.5,0.5,0.5l5.9,5.9L68.1,13.6z M23.1,30h13.8v-5.5c-0.1-4.5-3.7-8-8.2-8H9.8C9.8,30,23.1,30,23.1,30z M0,0
	c0,7.1,5.9,13.6,12.5,13.6h18.9c2.3-0.1,4.5,1.2,5.5,3.4V8.2c0-4.5-3.7-8.2-8.2-8.2c0,0,0,0,0,0H0z"/>
<path class="st0" d="M122.1,36.1l-4.9-15.8l-4.9,15.8h-7.9l-9.1-24.9h8.1l5.1,17.2l5-17.2h7.6l5.1,17.2l5-17.2h7.8L130,36.1H122.1z"
	/>
<path class="st0" d="M163.2,19.8v16.3h-7.8v-2.9c-1.6,2.1-4.2,3.2-7.6,3.2c-5.3,0-8.5-3.2-8.5-7.8s3.4-7.5,9.6-7.5h6.6v-0.4
	c0-2.5-1.6-3.9-4.9-3.9c-2.6,0.1-5.1,0.8-7.4,2.1l-2.3-5.3c3.6-1.8,7.5-2.8,11.5-2.8C159.2,10.8,163.1,14.2,163.2,19.8z M155.3,27.6
	v-2.2h-5c-2.4,0-3.6,0.8-3.6,2.7s1.3,3,3.5,3C152.7,31,154.8,29.7,155.3,27.6L155.3,27.6z"/>
<path class="st0" d="M174.5,36.1l-9.4-24.9h8.2l5.4,17.6l5.4-17.6h7.9l-9.4,24.9L174.5,36.1z"/>
<path class="st0" d="M208.9,38.7c-1.9,4.5-5,6.7-9.6,6.7c-2.7,0-5.2-0.9-7.3-2.5l3.3-5.5c0.9,0.8,2.1,1.3,3.3,1.3
	c1.3,0.1,2.6-0.7,3.1-2l0.6-1.2L192,11.2h8.2l6.1,16.5l5.4-16.5h7.9L208.9,38.7z"/>
</svg>
