<?xml version="1.0" encoding="UTF-8"?>
<svg width="26px" height="33px" viewBox="0 0 26 33" version="1.1" xmlns="http://www.w3.org/2000/svg" xmlns:xlink="http://www.w3.org/1999/xlink">
    <!-- Generator: Sketch 47.1 (45422) - http://www.bohemiancoding.com/sketch -->
    <title>android-rcs</title>
    <desc>Created with Sketch.</desc>
    <defs></defs>
    <g id="Staging" stroke="none" stroke-width="1" fill="none" fill-rule="evenodd">
        <g id="android-rcs" fill="#315FCE">
            <path d="M2.70676692,9.85217391 C1.20243293,9.85217391 0.000537087953,11.1623667 5.53265458e-08,12.757342 L0,16.1035845 L0,21.0230579 C0.00053711016,22.6182977 1.20245442,23.9285546 2.70676692,23.9285546 C4.21107942,23.9285546 5.41299672,22.6182977 5.41353378,21.0233866 L5.41353383,17.6770997 L5.41353383,12.7576706 C5.41299675,11.1623667 4.21110091,9.85217391 2.70676692,9.85217391 L2.70676692,11.7290247 C3.19514654,11.7290247 3.60882799,12.1799809 3.60902261,12.7579993 L3.60902256,16.1035845 L3.60902256,21.0230579 C3.60882799,21.6006958 3.19511185,22.0517039 2.70676692,22.0517039 C2.21842198,22.0517039 1.80470584,21.6006958 1.80451122,21.0227293 L1.80451128,17.6770997 L1.80451128,12.7576706 C1.80470584,12.1799809 2.2183873,11.7290247 2.70676692,11.7290247 L2.70676692,9.85217391 Z" id="Fill-1" fill-rule="nonzero"></path>
            <path d="M23.1578744,9.85217391 C24.6622036,9.85217391 25.8641842,11.1624035 25.8646616,12.7573785 L25.8646617,17.6770997 L25.8646616,21.0233501 C25.8641842,22.6182608 24.6621822,23.9285546 23.1578744,23.9285546 C21.962619,23.9285546 20.9583182,23.1013839 20.5958495,21.9614833 L20.4511278,21.9614833 L20.4511278,11.8192452 L20.5958394,11.8192452 C20.9582965,10.6793162 21.9625932,9.85217391 23.1578744,9.85217391 Z M23.1578744,11.7290247 C22.6695125,11.7290247 22.2558933,12.179943 22.2557203,12.7579627 L22.2556391,13.0294364 L22.2556391,20.7513143 L22.2557203,21.0227658 C22.2558933,21.6007337 22.6695472,22.0517039 23.1578744,22.0517039 C23.6462214,22.0517039 24.0599774,21.6006714 24.0601504,21.0230579 L24.0601504,12.7578381 C24.059918,12.1799405 23.646221,11.7290247 23.1578744,11.7290247 Z" id="Fill-3" fill-rule="nonzero"></path>
            <path d="M6.37228778,26.6540233 C4.85157411,26.6540233 3.60902256,25.3689547 3.60902256,23.7908958 L3.60902256,10.1649824 L22.2556391,10.1649824 L22.2556391,23.7908958 C22.2556391,25.368968 21.0131583,26.6540233 19.4924158,26.6540233 L18.8263008,26.6540233 L18.8263008,26.8648874 L18.8263008,30.1379945 C18.8256767,31.7199278 17.5875517,33 16.0630356,33 C14.5385048,33 13.3004151,31.7199642 13.2997285,30.1376094 L13.2997285,26.6540233 L12.5649332,26.6540233 L12.5649332,26.8648874 L12.5649331,30.137956 C12.5643714,31.719913 11.3262321,33 9.80166795,33 C8.27708795,33 7.03894397,31.7198883 7.03844465,30.1376094 L7.03844465,26.6540233 L6.37228778,26.6540233 Z M5.41353383,23.7908958 C5.41353383,24.3300131 5.84589885,24.7771726 6.37228778,24.7771726 L8.84295593,24.7771726 L8.84295593,26.8648874 L8.84295588,30.1373014 C8.84312734,30.6805787 9.27118848,31.1231492 9.80166795,31.1231492 C10.3321503,31.1231492 10.760229,30.6805673 10.7604219,30.1376094 L10.7604219,24.7771726 L15.1042398,24.7771726 L15.1042398,26.8648874 L15.1042397,30.1371859 C15.1044755,30.6805594 15.5325619,31.1231492 16.0630356,31.1231492 C16.5934822,31.1231492 17.0215753,30.6805525 17.0217896,30.1376094 L17.0217896,24.7771726 L19.4924158,24.7771726 C20.0188149,24.7771726 20.4511278,24.3300461 20.4511278,23.7908958 L20.4511278,12.0418331 L5.41353383,12.0418331 L5.41353383,23.7908958 Z" id="Fill-5" fill-rule="nonzero"></path>
            <path d="M9.62406015,6.09847239 C10.1223379,6.09847239 10.5263158,6.51860644 10.5263158,7.03692264 C10.5263158,7.5551891 10.1223379,7.97532315 9.62406015,7.97532315 C9.12578244,7.97532315 8.72180451,7.5551891 8.72180451,7.03692264 C8.72180451,6.51860644 9.12578244,6.09847239 9.62406015,6.09847239 L9.62406015,6.09847239 Z" id="Fill-7"></path>
            <path d="M16.5413534,6.09847239 C17.0396575,6.09847239 17.443609,6.51860644 17.443609,7.03692264 C17.443609,7.5551891 17.0396575,7.97532315 16.5413534,7.97532315 C16.0430493,7.97532315 15.6390977,7.5551891 15.6390977,7.03692264 C15.6390977,6.51860644 16.0430493,6.09847239 16.5413534,6.09847239 L16.5413534,6.09847239 Z" id="Fill-7"></path>
            <path d="M22.1212574,9.18542937 C22.180601,9.4789448 22.224124,9.77612204 22.2515814,10.0762242 L22.2556391,10.120574 L22.2556391,12.0418331 L3.64759295,12.0418331 L3.615072,11.1385227 C3.61109775,11.0281328 3.60902256,10.9315438 3.60902256,10.8365231 C3.60902256,10.1696603 3.68854677,9.51132007 3.84439669,8.87024582 C4.35551176,6.76796101 5.67294522,4.9362424 7.50395007,3.70011496 L6.62469971,2.00660569 C6.30886592,1.39835872 6.52510077,0.638029361 7.1089327,0.307774058 C7.69520127,-0.0243839974 8.42817167,0.203001748 8.74515882,0.813295677 L9.67731173,2.60868288 C10.7130579,2.24472739 11.8168281,2.05531933 12.9478486,2.05531933 C14.0691252,2.05531933 15.163655,2.24163217 16.1920128,2.59977972 L17.1195221,0.813339528 C17.4363424,0.203045494 18.1693133,-0.0243725357 18.7552984,0.307530277 C19.3395213,0.63810134 19.5557902,1.39836946 19.2399715,2.0065873 L18.368757,3.68450091 C20.3050089,4.98330882 21.6681113,6.94474743 22.1212574,9.18542937 Z M20.3553781,9.57170888 C19.957648,7.60504359 18.6334685,5.88685413 16.7452605,4.87353806 L16.5053836,4.74480697 L16.2525831,4.63137078 C15.2325257,4.17365259 14.109884,3.9321701 12.9478486,3.9321701 C11.776813,3.9321701 10.6459033,4.17716058 9.62037843,4.64122848 L8.86035208,4.98515367 L8.4666156,4.22679156 L7.15743574,1.70522589 C7.31479134,2.00818191 7.6799917,2.12147619 7.97161122,1.95625514 C8.26174978,1.79213279 8.36877921,1.41579372 8.21247566,1.11477728 L9.94182043,4.44563902 L9.12867554,4.88538164 C7.33172137,5.8571609 6.04590306,7.47097457 5.59384551,9.33034793 C5.52708288,9.60496982 5.47862288,9.88349132 5.44886188,10.1649823 L20.4464126,10.1649824 C20.425324,9.96523096 20.3949377,9.76737182 20.3553781,9.57170888 Z" id="Fill-7" fill-rule="nonzero"></path>
        </g>
    </g>
</svg>