<?xml version="1.0" encoding="UTF-8"?>
<svg width="36px" height="33px" viewBox="0 0 36 33" version="1.1" xmlns="http://www.w3.org/2000/svg" xmlns:xlink="http://www.w3.org/1999/xlink">
    <!-- Generator: Sketch 47.1 (45422) - http://www.bohemiancoding.com/sketch -->
    <title>audio</title>
    <desc>Created with Sketch.</desc>
    <defs></defs>
    <g id="Page-1" stroke="none" stroke-width="1" fill="none" fill-rule="evenodd">
        <g id="audio" fill-rule="nonzero" fill="#315FCE">
            <path d="M11.9,3.2 L13.5,3.2 L13.5,30.2 L11.9,30.2 L5.1,23.4 L0,23.4 L0,9.9 L5.1,9.9 L11.9,3.2 Z M11.2,7 L6.1,12.1 L2.2,12.1 L2.2,21.1 L6.1,21.1 L11.2,26.3 L11.2,7 Z M19.9,10.3 C20.8,11.2 21.4,12.1 21.9,13.2 C22.4,14.3 22.6,15.4 22.6,16.6 C22.6,17.8 22.4,19 21.9,20 C21.4,21 20.8,22.1 19.9,22.9 L18.3,21.3 C18.9,20.7 19.4,19.9 19.8,19.1 C20.2,18.3 20.3,17.4 20.3,16.5 C20.3,15.6 20.1,14.7 19.8,13.9 C19.5,13.1 19,12.3 18.3,11.7 L19.9,10.3 Z M29.2,16.7 C29.2,18.8 28.8,20.8 28,22.7 C27.2,24.6 26.1,26.3 24.6,27.8 L23,26.2 C24.3,24.9 25.3,23.5 25.9,21.8 C26.5,20.1 26.9,18.4 26.9,16.6 C26.9,14.8 26.6,13.1 25.9,11.4 C25.2,9.7 24.3,8.4 23,7.1 L24.6,5.5 C26.1,7 27.2,8.7 28,10.6 C28.8,12.5 29.2,14.6 29.2,16.7 Z M29.4,0.8 C30.5,1.9 31.4,3 32.2,4.2 C33,5.4 33.7,6.7 34.3,8.1 C34.9,9.5 35.3,10.8 35.6,12.3 C35.9,13.8 36,15.2 36,16.7 C36,18.2 35.9,19.7 35.6,21.1 C35.3,22.5 34.9,23.9 34.3,25.3 C33.7,26.7 33.1,27.9 32.2,29.2 C31.3,30.5 30.4,31.6 29.4,32.6 L27.8,31 C28.7,30.1 29.6,29 30.3,27.9 C31,26.8 31.7,25.6 32.2,24.4 C32.7,23.2 33.1,21.9 33.3,20.6 C33.5,19.3 33.7,18 33.7,16.6 C33.7,15.2 33.6,13.9 33.3,12.6 C33,11.3 32.7,10 32.2,8.8 C31.7,7.6 31.1,6.4 30.3,5.3 C29.5,4.2 28.7,3.2 27.8,2.2 L29.4,0.8 Z" id="Shape"></path>
        </g>
    </g>
</svg>