<?xml version="1.0" encoding="UTF-8"?>
<svg width="38px" height="39px" viewBox="0 0 38 39" version="1.1" xmlns="http://www.w3.org/2000/svg" xmlns:xlink="http://www.w3.org/1999/xlink">
    <!-- Generator: Sketch 47.1 (45422) - http://www.bohemiancoding.com/sketch -->
    <title>chat</title>
    <desc>Created with Sketch.</desc>
    <defs></defs>
    <g id="Page-1" stroke="none" stroke-width="1" fill="none" fill-rule="evenodd">
        <g id="chat" fill-rule="nonzero" fill="#315FCE">
            <path d="M28.8,2.2 L2.2,2.2 L2.2,22.4 L6.7,22.4 L6.7,27.5 L11.8,22.4 L28.7,22.4 L28.7,2.2 L28.8,2.2 Z M31,0 L31,24.8 L12.9,24.8 L4.5,33.1 L4.5,24.8 L0,24.8 L0,0 L31,0 Z" id="Fill-11"></path>
            <polygon id="Fill-13" points="13 27.5 11 29.8 25.2 29.8 33.5 38.1 33.5 29.8 38 29.8 38 5 33 5 33 7.2 35.8 7.2 35.8 27.5 31.3 27.5 31.3 32.7 26.1 27.5"></polygon>
        </g>
    </g>
</svg>