<?xml version="1.0" encoding="UTF-8"?>
<svg width="35px" height="37px" viewBox="0 0 35 37" version="1.1" xmlns="http://www.w3.org/2000/svg" xmlns:xlink="http://www.w3.org/1999/xlink">
    <!-- Generator: Sketch 47.1 (45422) - http://www.bohemiancoding.com/sketch -->
    <title>chatbots</title>
    <desc>Created with Sketch.</desc>
    <defs></defs>
    <g id="Page-1" stroke="none" stroke-width="1" fill="none" fill-rule="evenodd">
        <g id="chatbots" transform="translate(2.000000, 2.000000)" fill="#335AC8">
            <path d="M-1.08,15.1807934 C-1.08,6.19509293 6.3480712,-1.08 15.5,-1.08 C24.6519288,-1.08 32.08,6.19509293 32.08,15.1807934 C32.08,24.166494 24.6519288,31.4415869 15.5,31.4415869 C14.0355701,31.4415869 12.5946559,31.2542923 11.2032317,30.8888901 L4.69639752,34.6662771 L4.69639752,27.5147325 C1.06271456,24.4520651 -1.08,19.9887515 -1.08,15.1807934 Z M6.85639752,30.9147506 L10.9126117,28.5600124 L11.3574231,28.6902241 C12.691623,29.0807906 14.082269,29.2815869 15.5,29.2815869 C23.4689385,29.2815869 29.92,22.9633826 29.92,15.1807934 C29.92,7.39820433 23.4689385,1.08 15.5,1.08 C7.53106146,1.08 1.08,7.39820433 1.08,15.1807934 C1.08,19.4965052 3.07484253,23.4916903 6.44588917,26.1548241 L6.85639752,26.4791266 L6.85639752,30.9147506 Z" id="Shape" fill-rule="nonzero"></path>
            <polygon id="Path" points="17.285432 19.8611233 13.338227 15.4080906 5.63636364 19.8611233 14.1084133 10.3478261 18.1518916 14.8008588 25.7574816 10.3478261"></polygon>
        </g>
    </g>
</svg>