<?xml version="1.0" encoding="UTF-8"?>
<svg width="36px" height="32px" viewBox="0 0 36 32" version="1.1" xmlns="http://www.w3.org/2000/svg" xmlns:xlink="http://www.w3.org/1999/xlink">
    <!-- Generator: Sketch 47.1 (45422) - http://www.bohemiancoding.com/sketch -->
    <title>clique</title>
    <desc>Created with Sketch.</desc>
    <defs></defs>
    <g id="Page-1" stroke="none" stroke-width="1" fill="none" fill-rule="evenodd">
        <g id="clique" fill-rule="nonzero" fill="#315FCE">
            <path d="M32.6,9 C33.1,9 33.5,9.1 33.9,9.3 C34.3,9.5 34.7,9.7 35,10 C35.3,10.3 35.5,10.7 35.7,11.1 C35.9,11.5 36,11.9 36,12.4 L36,22.6 C36,24.1 35.7,25.3 35.1,26.4 C34.5,27.5 33.7,28.4 32.7,29.2 C31.7,30 30.6,30.5 29.4,30.9 C28.1,31.3 26.9,31.5 25.5,31.5 C24.4,31.5 23.4,31.4 22.6,31.3 C21.8,31.2 21.1,31 20.4,30.7 C19.8,30.5 19.2,30.1 18.7,29.8 C18.2,29.4 17.7,29 17.2,28.5 C16.7,28 16.2,27.5 15.6,26.9 C15,26.3 14.4,25.7 13.7,25 C13.3,24.6 12.9,24.2 12.6,23.9 C12.3,23.6 11.8,23.1 11.5,22.8 C10.7,23.2 9.9,23.6 9.1,23.9 C8.3,24.2 7.5,24.6 6.7,25 L4.7,20.6 C3.9,21.4 3.2,22.1 2.4,22.9 C1.6,23.7 0.8,24.4 0,25.2 L0,0.2 L15.8,16 L15.8,3.4 C15.8,2.9 15.9,2.5 16.1,2.1 C16.3,1.7 16.5,1.3 16.8,1 C17.1,0.7 17.5,0.5 17.9,0.3 C18.2,0.1 18.7,0 19.1,0 C19.8,0 20.3,0.1 20.7,0.3 C21.1,0.5 21.5,0.8 21.7,1.2 C21.9,1.6 22.1,2 22.2,2.5 C22.3,3 22.4,3.5 22.4,4 C22.4,4.5 22.4,5 22.4,5.5 C22.4,6 22.4,6.5 22.4,6.9 C22.8,6.8 23.2,6.7 23.5,6.7 C23.9,6.7 24.3,6.8 24.7,6.9 C25.1,7 25.4,7.3 25.7,7.5 C26,7.2 26.4,7 26.7,6.9 C27,6.8 27.5,6.7 27.9,6.7 C28.3,6.7 28.6,6.8 29,6.9 C29.4,7 29.7,7.2 30,7.4 C30.3,7.6 30.5,7.9 30.7,8.2 C30.9,8.5 31.1,8.8 31.2,9.2 C31.8,9.1 32.2,9 32.6,9 Z M9.8,21 L7.4,15.7 L12.4,15.7 L2.2,5.6 L2.2,19.8 L5.3,16.7 L7.8,22 L9.8,21 Z M33.8,12.4 C33.8,12.1 33.7,11.8 33.5,11.6 C33.3,11.4 33,11.3 32.7,11.3 C32.4,11.3 32.2,11.4 32,11.6 C31.8,11.8 31.7,12 31.6,12.3 C31.5,12.6 31.5,12.9 31.4,13.2 C31.3,13.5 31.4,13.9 31.4,14.2 C31.4,14.5 31.4,14.8 31.5,15.1 C31.6,15.4 31.5,15.6 31.5,15.8 L29.3,15.8 L29.3,12.4 C29.3,12.2 29.3,11.9 29.4,11.5 C29.5,11.1 29.4,10.7 29.4,10.4 C29.4,10.1 29.3,9.7 29.1,9.5 C28.9,9.3 28.5,9 28.1,9 C27.8,9 27.5,9.1 27.3,9.3 C27.1,9.5 27,9.8 27,10.1 L27,15.7 L24.8,15.7 L24.8,10.1 C24.8,9.8 24.7,9.5 24.5,9.3 C24.3,9.1 23.9,9 23.6,9 C23.3,9 23.1,9.1 22.9,9.3 C22.7,9.5 22.6,9.7 22.5,10 C22.4,10.3 22.4,10.6 22.4,10.9 C22.4,11.2 22.4,11.6 22.4,11.9 C22.4,12.2 22.4,12.5 22.5,12.8 C22.6,13.1 22.5,13.3 22.5,13.5 L22.5,15.7 L20.3,15.7 L20.3,10.1 L20.3,3.4 C20.3,3.1 20.2,2.8 20,2.6 C19.8,2.4 19.5,2.3 19.2,2.3 C18.9,2.3 18.6,2.4 18.4,2.6 C18.2,2.8 18,3.1 18,3.4 L18,20.3 C17.7,20.2 17.2,20 16.7,19.7 C16.2,19.4 15.6,19.2 15,18.9 C14.4,18.6 13.8,18.4 13.2,18.2 C12.6,18 12.2,17.9 11.8,17.9 C11.6,17.9 11.4,17.9 11.3,18 C11.2,18.1 11,18.3 11,18.5 C11,18.7 11.1,18.9 11.2,19.1 C11.3,19.3 11.5,19.4 11.6,19.6 C11.9,19.9 12.2,20.2 12.7,20.7 C13.2,21.2 13.6,21.7 14.2,22.2 C14.8,22.7 15.3,23.3 15.9,23.9 C16.5,24.5 17,25.1 17.5,25.6 C18,26.1 18.5,26.6 18.9,26.9 C19.3,27.2 19.6,27.5 19.8,27.7 C20.4,28.1 20.8,28.3 21.3,28.5 C21.8,28.7 22.2,28.8 22.6,28.9 C23,29 23.5,29.1 24,29.1 C24.5,29.1 25,29.1 25.7,29.1 C26.7,29.1 27.7,29 28.7,28.7 C29.7,28.4 30.6,28 31.3,27.5 C32,27 32.7,26.3 33.2,25.4 C33.7,24.5 33.9,23.6 33.9,22.4 C33.8,22.6 33.8,12.4 33.8,12.4 Z" id="Shape"></path>
        </g>
    </g>
</svg>