<?xml version="1.0" encoding="UTF-8"?>
<svg width="36px" height="36px" viewBox="0 0 36 36" version="1.1" xmlns="http://www.w3.org/2000/svg" xmlns:xlink="http://www.w3.org/1999/xlink">
    <!-- Generator: Sketch 47.1 (45422) - http://www.bohemiancoding.com/sketch -->
    <title>enriquecimento</title>
    <desc>Created with Sketch.</desc>
    <defs></defs>
    <g id="Page-1" stroke="none" stroke-width="1" fill="none" fill-rule="evenodd">
        <g id="enriquecimento" fill-rule="nonzero" fill="#315FCE">
            <path d="M36,29.2 L36,31.4 L31.5,31.4 L31.5,36 L29.3,36 L29.3,31.5 L24.8,31.5 L24.8,29.3 L29.3,29.3 L29.3,24.8 L31.5,24.8 L31.5,29.3 L36,29.3 L36,29.2 Z M6.8,9 C6.8,9.9 7,10.8 7.3,11.6 C7.7,12.4 8.1,13.1 8.7,13.7 C9.3,14.3 10,14.8 10.8,15.1 C11.6,15.5 12.5,15.6 13.4,15.6 C14.3,15.6 15.2,15.4 16,15.1 C16.8,14.8 17.5,14.3 18.2,13.7 C18.8,13.1 19.3,12.4 19.7,11.6 C20.1,10.8 20.2,9.9 20.2,9 C20.2,8.1 20,7.2 19.7,6.4 C19.3,5.6 18.9,4.9 18.3,4.2 C17.7,3.5 17,3.1 16.1,2.7 C15.3,2.3 14.4,2.2 13.5,2.2 C12.6,2.2 11.7,2.4 10.9,2.7 C10.1,3.1 9.4,3.5 8.8,4.2 C8.2,4.9 7.6,5.6 7.3,6.4 C6.9,7.2 6.8,8.1 6.8,9 Z M18.3,16.6 C19.4,17 20.4,17.6 21.4,18.3 C22.4,19 23.2,19.8 23.9,20.7 C24.6,21.6 25.3,22.6 25.7,23.7 C26.2,24.8 26.5,25.9 26.7,27.1 L24.4,27.1 C24.1,25.8 23.7,24.6 23,23.5 C22.3,22.4 21.5,21.4 20.5,20.7 C19.5,19.9 18.4,19.3 17.2,18.8 C16,18.4 14.7,18.1 13.4,18.1 C12.4,18.1 11.4,18.2 10.4,18.5 C9.4,18.8 8.5,19.1 7.7,19.6 C6.9,20.1 6.1,20.7 5.4,21.4 C4.7,22.1 4.1,22.8 3.6,23.7 C3.1,24.5 2.7,25.4 2.5,26.4 C2.2,27.4 2.1,28.4 2.1,29.4 L0,29.4 C0,28 0.2,26.6 0.6,25.3 C1,24 1.6,22.8 2.4,21.7 C3.2,20.6 4.1,19.6 5.2,18.8 C6.3,17.9 7.5,17.3 8.8,16.8 C7.5,15.9 6.4,14.8 5.7,13.5 C5,12.2 4.5,10.6 4.5,9 C4.5,7.8 4.7,6.6 5.2,5.5 C5.7,4.4 6.3,3.4 7.1,2.6 C7.9,1.8 8.9,1.1 10,0.7 C11.1,0.3 12.3,0 13.5,0 C14.7,0 15.9,0.2 17,0.7 C18.1,1.2 19.1,1.8 19.9,2.6 C20.7,3.4 21.4,4.4 21.8,5.5 C22.3,6.6 22.5,7.8 22.5,9 C22.5,9.8 22.4,10.5 22.2,11.3 C22,12 21.7,12.7 21.4,13.4 C21,14 20.6,14.6 20,15.2 C19.5,15.7 18.9,16.2 18.3,16.6 Z" id="Fill-1"></path>
        </g>
    </g>
</svg>