<?xml version="1.0" encoding="UTF-8"?>
<svg width="20px" height="13px" viewBox="0 0 20 13" version="1.1" xmlns="http://www.w3.org/2000/svg" xmlns:xlink="http://www.w3.org/1999/xlink">
    <!-- Generator: Sketch 45.2 (43514) - http://www.bohemiancoding.com/sketch -->
    <title>es</title>
    <desc>Created with Sketch.</desc>
    <defs></defs>
    <g id="Page-1" stroke="none" stroke-width="1" fill="none" fill-rule="evenodd">
        <g id="Artboard" transform="translate(-65.000000, -11.000000)">
            <g id="Flags/spain" transform="translate(65.000000, 11.000000)">
                <g id="spain">
                    <g id="Group-2" fill-rule="nonzero">
                        <polygon id="Shape" fill="#C8414B" points="20 13 20 0.0106785714 0 8.15320034e-17 0 13"></polygon>
                        <rect id="Rectangle-path" fill="#FFD250" x="0" y="2.74319345" width="19.9610136" height="7.51407738"></rect>
                    </g>
                    <g id="Group-4" transform="translate(2.000000, 4.000000)">
                        <g id="Group-3" transform="translate(0.000000, 0.714286)">
                            <rect id="Rectangle-path" fill="#F5F5F5" fill-rule="nonzero" x="4.56578947" y="1.2976892" width="1" height="2.07353316"></rect>
                            <g id="Group" transform="translate(0.722222, 0.680272)"></g>
                            <path d="M1.85552632,1.05385629 C1.71298246,1.05385629 1.59739766,1.16310162 1.59739766,1.29782738 L1.59739766,2.88355655 C1.59739766,3.17995323 1.89008772,3.73742772 2.88798246,3.73742772 C3.88587719,3.73742772 4.17856725,3.17998087 4.17856725,2.88355655 L4.17856725,1.29782738 C4.17856725,1.16310162 4.06298246,1.05385629 3.9204386,1.05385629 L1.85552632,1.05385629 L1.85552632,1.05385629 Z" id="Shape" fill="#F5F5F5" fill-rule="nonzero"></path>
                            <g id="Group" transform="translate(1.570175, 1.039541)" fill-rule="nonzero" fill="#C8414B">
                                <path d="M1.31780702,1.23411565 L0.0272222222,1.23411565 L0.0272222222,0.258286565 C0.0272222222,0.123560799 0.142807018,0.0143154762 0.285350877,0.0143154762 L1.31780702,0.0143154762 L1.31780702,1.23411565 Z" id="Shape"></path>
                                <path d="M1.31780702,1.23411565 L2.60839181,1.23411565 L2.60839181,1.84401573 C2.60839181,2.1808716 2.31950292,2.45391582 1.96309942,2.45391582 L1.96309942,2.45391582 C1.60669591,2.45391582 1.31780702,2.1808716 1.31780702,1.84401573 L1.31780702,1.23411565 L1.31780702,1.23411565 Z" id="Shape"></path>
                            </g>
                            <path d="M1.59739766,2.27365646 L2.88798246,2.27365646 L2.88798246,2.88355655 C2.88798246,3.22041241 2.59909357,3.49345663 2.24269006,3.49345663 L2.24269006,3.49345663 C1.88628655,3.49345663 1.59739766,3.22041241 1.59739766,2.88355655 L1.59739766,2.27365646 L1.59739766,2.27365646 Z" id="Shape" fill="#FAB446" fill-rule="nonzero"></path>
                            <g id="Group" transform="translate(1.833333, 2.255527)"></g>
                            <g id="Group" transform="translate(1.833333, 1.288265)"></g>
                            <rect id="Rectangle-path" fill="#F5F5F5" fill-rule="nonzero" x="0.693859649" y="1.2976892" width="1" height="2.07353316"></rect>
                            <g id="Group" transform="translate(0.546784, 1.039541)"></g>
                        </g>
                        <g id="Group" transform="translate(1.716374, 0.399660)" fill-rule="nonzero" fill="#F5F5F5">
                            <path d="M0.913479532,0.758582058 C0.69997076,0.758582058 0.526315789,0.594423895 0.526315789,0.392653061 C0.526315789,0.190854592 0.7,0.0267240646 0.913479532,0.0267240646 C1.1269883,0.0267240646 1.30064327,0.190882228 1.30064327,0.392653061 C1.30067251,0.594423895 1.1269883,0.758582058 0.913479532,0.758582058 Z M0.913479532,0.270667517 C0.842280702,0.270667517 0.784415205,0.325331633 0.784415205,0.392653061 C0.784415205,0.459946854 0.842251462,0.514638605 0.913479532,0.514638605 C0.984707602,0.514638605 1.04254386,0.45997449 1.04254386,0.392653061 C1.04254386,0.325359269 0.984707602,0.270667517 0.913479532,0.270667517 Z" id="Shape"></path>
                            <path d="M1.42973684,0.758582058 C1.21622807,0.758582058 1.0425731,0.594423895 1.0425731,0.392653061 C1.0425731,0.190854592 1.21625731,0.0267240646 1.42973684,0.0267240646 C1.64324561,0.0267240646 1.81690058,0.190882228 1.81690058,0.392653061 C1.81690058,0.594423895 1.64321637,0.758582058 1.42973684,0.758582058 Z M1.42973684,0.270667517 C1.35853801,0.270667517 1.30067251,0.325331633 1.30067251,0.392653061 C1.30067251,0.459946854 1.35850877,0.514638605 1.42973684,0.514638605 C1.50093567,0.514638605 1.55880117,0.45997449 1.55880117,0.392653061 C1.55877193,0.325359269 1.50093567,0.270667517 1.42973684,0.270667517 Z" id="Shape"></path>
                            <path d="M1.94596491,1.00255315 C1.73245614,1.00255315 1.55880117,0.838394983 1.55880117,0.63662415 C1.55880117,0.43482568 1.73248538,0.270695153 1.94596491,0.270695153 C2.15947368,0.270695153 2.33312865,0.434853316 2.33312865,0.63662415 C2.33312865,0.838394983 2.15944444,1.00255315 1.94596491,1.00255315 Z M1.94596491,0.514638605 C1.87476608,0.514638605 1.81690058,0.569302721 1.81690058,0.63662415 C1.81690058,0.703917942 1.87473684,0.758609694 1.94596491,0.758609694 C2.01716374,0.758609694 2.07502924,0.703945578 2.07502924,0.63662415 C2.07502924,0.569302721 2.01716374,0.514638605 1.94596491,0.514638605 Z" id="Shape"></path>
                            <path d="M0.397251462,1.00255315 C0.18374269,1.00255315 0.0100877193,0.838394983 0.0100877193,0.63662415 C0.0100877193,0.43482568 0.18377193,0.270695153 0.397251462,0.270695153 C0.610760234,0.270695153 0.784415205,0.434853316 0.784415205,0.63662415 C0.784444444,0.838394983 0.610760234,1.00255315 0.397251462,1.00255315 Z M0.397251462,0.514638605 C0.326052632,0.514638605 0.268187135,0.569302721 0.268187135,0.63662415 C0.268187135,0.703917942 0.326023392,0.758609694 0.397251462,0.758609694 C0.468479532,0.758609694 0.526315789,0.703917942 0.526315789,0.636596514 C0.526315789,0.569302721 0.468479532,0.514638605 0.397251462,0.514638605 Z" id="Shape"></path>
                        </g>
                        <path d="M3.66233918,3.47585672 L3.66233918,3.59784226 C3.66233918,3.66510842 3.60444444,3.71982781 3.53327485,3.71982781 C3.46210526,3.71982781 3.40421053,3.66510842 3.40421053,3.59784226 L3.40421053,3.47585672 L3.66233918,3.47585672 L3.66233918,3.47585672 Z M3.9204386,3.23191327 L3.14608187,3.23191327 L3.14608187,3.59784226 C3.14608187,3.79964073 3.31976608,3.96377126 3.53324561,3.96377126 C3.74675439,3.96377126 3.92040936,3.7996131 3.92040936,3.59784226 L3.92040936,3.23191327 L3.9204386,3.23191327 Z" id="Shape" fill="#FAB446" fill-rule="nonzero"></path>
                        <path d="M3.53327485,2.74399872 L3.53327485,2.74399872 C3.39073099,2.74399872 3.2751462,2.6347534 3.2751462,2.50002764 L3.2751462,2.25605655 C3.2751462,2.12133078 3.39073099,2.01208546 3.53327485,2.01208546 L3.53327485,2.01208546 C3.67581871,2.01208546 3.79140351,2.12133078 3.79140351,2.25605655 L3.79140351,2.50002764 C3.79140351,2.6347534 3.67581871,2.74399872 3.53327485,2.74399872 Z" id="Shape" fill="#FFA0D2" fill-rule="nonzero"></path>
                        <ellipse id="Oval" fill="#5064AA" fill-rule="nonzero" cx="2.8880117" cy="2.987804" rx="1" ry="1"></ellipse>
                        <path d="M2.11362573,1.52419855 L1.85549708,1.28022747 L2.00669591,1.13732143 C2.24040936,0.916426446 2.5574269,0.792312925 2.88798246,0.792312925 L2.88798246,0.792312925 C3.21853801,0.792312925 3.53552632,0.916426446 3.76926901,1.13732143 L3.92046784,1.28022747 L3.66233918,1.52419855 L2.11362573,1.52419855 Z" id="Shape" fill="#C8414B" fill-rule="nonzero"></path>
                        <g id="Group" transform="translate(2.213450, 1.145833)"></g>
                        <g id="Group" transform="translate(0.546784, 2.500000)"></g>
                    </g>
                </g>
            </g>
        </g>
    </g>
</svg>