<?xml version="1.0" encoding="UTF-8"?>
<svg width="12px" height="12px" viewBox="0 0 12 12" version="1.1" xmlns="http://www.w3.org/2000/svg" xmlns:xlink="http://www.w3.org/1999/xlink">
    <!-- Generator: Sketch 47.1 (45422) - http://www.bohemiancoding.com/sketch -->
    <title>external</title>
    <desc>Created with Sketch.</desc>
    <defs></defs>
    <g id="Page-1" stroke="none" stroke-width="1" fill="none" fill-rule="evenodd">
        <g id="external" fill-rule="nonzero" fill="#FFFFFF">
            <path d="M9.52539326,5.87559551 C9.91860971,5.87559551 10.2373483,6.19433411 10.2373483,6.58755056 L10.2373483,10.1129275 C10.2373224,11.1536915 9.39098994,12 8.35022472,12 L1.88707865,12 C0.846326874,12 0,11.1536811 0,10.1129213 L0,3.64975281 C0,2.60900826 0.846334107,1.76267416 1.88707865,1.76267416 L5.41244944,1.76267416 C5.80564342,1.76267416 6.12440449,2.08143523 6.12440449,2.47462921 C6.12440449,2.8678232 5.80564342,3.18658427 5.41244944,3.18658427 L1.88707865,3.18658427 C1.63191308,3.18658427 1.42391011,3.39458724 1.42391011,3.64975281 L1.42391011,10.1129213 C1.42391011,10.3680869 1.63191308,10.5760899 1.88707865,10.5760899 L8.35024719,10.5760899 C8.60543296,10.5760899 8.8134382,10.3680892 8.8134382,10.1129213 L8.8134382,6.58755056 C8.8134382,6.19433411 9.1321768,5.87559551 9.52539326,5.87559551 Z" id="Shape"></path>
            <path d="M10.5760899,1.42391011 L7.76267416,1.42391011 C7.36946362,1.42391011 7.0507191,1.10515495 7.0507191,0.711955056 C7.0507191,0.31875516 7.36946362,0 7.76267416,0 L11.2880449,0 C11.6812555,0 12,0.31875516 12,0.711955056 L12,4.23732584 C12,4.63052574 11.6812555,4.9492809 11.2880449,4.9492809 C10.8948344,4.9492809 10.5760899,4.63052574 10.5760899,4.23732584 L10.5760899,1.42391011 Z" id="Shape"></path>
            <path d="M11.7914538,0.208524582 C12.0695043,0.486575115 12.0695043,0.937357469 11.7914646,1.21539718 L5.32831853,7.67854325 C5.19313955,7.81372223 5.01226394,7.88707865 4.8248764,7.88707865 C4.63748203,7.88707865 4.45658309,7.81372553 4.32143428,7.67854325 C4.04339457,7.40050354 4.04339457,6.94972118 4.32143458,6.67168117 L10.7846136,0.208524582 C11.0626509,-0.0694782314 11.5134165,-0.0694782314 11.7914538,0.208524582 Z" id="Shape"></path>
        </g>
    </g>
</svg>