<?xml version="1.0" encoding="UTF-8"?>
<svg width="36px" height="36px" viewBox="0 0 36 36" version="1.1" xmlns="http://www.w3.org/2000/svg" xmlns:xlink="http://www.w3.org/1999/xlink">
    <!-- Generator: Sketch 47.1 (45422) - http://www.bohemiancoding.com/sketch -->
    <title>lookup</title>
    <desc>Created with Sketch.</desc>
    <defs></defs>
    <g id="Page-1" stroke="none" stroke-width="1" fill="none" fill-rule="evenodd">
        <g id="lookup" fill-rule="nonzero" fill="#315FCE">
            <path d="M27.6,21.7 C28.8,21.2 29.9,20.4 30.8,19.5 C31.7,18.6 32.4,17.5 33,16.3 C33.5,15.1 33.8,13.8 33.8,12.4 C33.8,11 33.5,9.7 33,8.5 C32.5,7.3 31.7,6.2 30.8,5.3 C29.9,4.4 28.8,3.7 27.6,3.1 C26.4,2.6 25.1,2.3 23.7,2.3 C22.3,2.3 21,2.6 19.8,3.1 C18.6,3.6 17.5,4.4 16.6,5.3 C15.7,6.2 15,7.3 14.4,8.5 C13.9,9.7 13.6,11 13.6,12.4 C13.6,13.8 13.9,15.1 14.4,16.3 C14.9,17.5 15.7,18.6 16.6,19.5 C17.5,20.4 18.6,21.1 19.8,21.7 C21,22.2 22.3,22.5 23.7,22.5 C25,22.5 26.3,22.2 27.6,21.7 M0.5,34 C0.9,33.6 1.3,33 2,32.4 C2.6,31.8 3.3,31 4.1,30.2 C4.9,29.4 5.7,28.6 6.5,27.7 C7.3,26.9 8.2,26 9,25.2 C9.8,24.4 10.6,23.6 11.3,23 C12,22.3 12.6,21.7 13.1,21.2 C13.6,20.7 13.9,20.4 14.1,20.2 C13.2,19.1 12.5,17.8 12,16.5 C11.5,15.2 11.3,13.8 11.3,12.3 C11.3,11.2 11.4,10.1 11.7,9 C12,7.9 12.4,7 12.9,6 C13.4,5.1 14.1,4.2 14.8,3.5 C15.6,2.7 16.4,2.1 17.3,1.6 C18.2,1.1 19.2,0.6 20.3,0.4 C21.4,0.1 22.5,0 23.6,0 C24.7,0 25.8,0.1 26.9,0.4 C28,0.7 28.9,1.1 29.9,1.6 C30.8,2.1 31.7,2.8 32.4,3.5 C33.2,4.3 33.8,5.1 34.3,6 C34.8,6.9 35.3,7.9 35.5,9 C35.8,10.1 35.9,11.1 35.9,12.3 C35.9,13.5 35.8,14.5 35.5,15.6 C35.2,16.7 34.8,17.6 34.3,18.6 C33.8,19.5 33.1,20.4 32.4,21.1 C31.6,21.9 30.8,22.5 29.9,23 C29,23.5 28,24 26.9,24.2 C25.8,24.5 24.7,24.6 23.6,24.6 C22.1,24.6 20.7,24.4 19.4,23.9 C18.1,23.4 16.8,22.7 15.7,21.8 L1.9,35.7 C1.7,35.9 1.4,36 1.1,36 C0.7,36 0.5,35.9 0.3,35.6 C0.1,35.4 0,35.1 0,34.8 C0,34.7 0.2,34.4 0.5,34" id="Fill-3"></path>
        </g>
    </g>
</svg>