<?xml version="1.0" encoding="UTF-8"?>
<svg width="36px" height="36px" viewBox="0 0 36 36" version="1.1" xmlns="http://www.w3.org/2000/svg" xmlns:xlink="http://www.w3.org/1999/xlink">
    <!-- Generator: Sketch 47.1 (45422) - http://www.bohemiancoding.com/sketch -->
    <title>mais-clientes</title>
    <desc>Created with Sketch.</desc>
    <defs></defs>
    <g id="Page-1" stroke="none" stroke-width="1" fill="none" fill-rule="evenodd">
        <g id="mais-clientes" fill-rule="nonzero" fill="#315FCE">
            <path d="M18.3,16.6 C19.4,17 20.4,17.6 21.4,18.3 C22.4,19 23.2,19.8 23.9,20.7 C24.6,21.6 25.3,22.6 25.7,23.7 C26.1,24.8 26.5,25.9 26.7,27.1 L24.4,27.1 C24.1,25.8 23.7,24.6 23,23.5 C22.3,22.4 21.5,21.4 20.5,20.7 C19.5,20 18.4,19.3 17.2,18.8 C16,18.3 14.8,18 13.5,18 C12.5,18 11.5,18.1 10.5,18.4 C9.5,18.7 8.6,19 7.8,19.5 C7,20 6.2,20.6 5.5,21.3 C4.8,22 4.2,22.7 3.7,23.6 C3.2,24.5 2.8,25.3 2.6,26.3 C2.4,27.3 2.2,28.3 2.2,29.3 L0,29.3 C0,27.9 0.2,26.5 0.6,25.2 C1,23.9 1.6,22.7 2.4,21.6 C3.2,20.5 4.1,19.5 5.2,18.7 C6.3,17.9 7.5,17.2 8.8,16.7 C7.5,15.8 6.4,14.7 5.7,13.4 C5,12.1 4.5,10.6 4.5,9 C4.5,7.8 4.7,6.6 5.2,5.5 C5.7,4.4 6.3,3.4 7.1,2.6 C7.9,1.8 8.9,1.1 10,0.7 C11.1,0.3 12.3,0 13.5,0 C14.7,0 15.9,0.2 17,0.7 C18.1,1.2 19.1,1.8 19.9,2.6 C20.7,3.4 21.4,4.4 21.8,5.5 C22.2,6.6 22.5,7.8 22.5,9 C22.5,9.8 22.4,10.5 22.2,11.3 C22,12.1 21.7,12.7 21.4,13.4 C21.1,14.1 20.6,14.7 20.1,15.2 C19.6,15.7 18.9,16.2 18.3,16.6 Z M6.8,9 C6.8,9.9 7,10.8 7.3,11.6 C7.6,12.4 8.1,13.1 8.8,13.7 C9.5,14.3 10.1,14.8 10.9,15.2 C11.7,15.6 12.6,15.7 13.5,15.7 C14.4,15.7 15.3,15.5 16.1,15.2 C16.9,14.9 17.6,14.4 18.3,13.7 C19,13 19.4,12.4 19.8,11.6 C20.2,10.8 20.3,9.9 20.3,9 C20.3,8.1 20.1,7.2 19.8,6.4 C19.5,5.6 19,4.9 18.3,4.2 C17.6,3.5 17,3.1 16.1,2.7 C15.2,2.3 14.4,2.2 13.5,2.2 C12.6,2.2 11.7,2.4 10.9,2.7 C10.1,3 9.4,3.5 8.8,4.2 C8.2,4.9 7.6,5.6 7.3,6.4 C7,7.2 6.8,8.1 6.8,9 Z M36,29.2 L36,31.4 L31.5,31.4 L31.5,36 L29.3,36 L29.3,31.5 L24.8,31.5 L24.8,29.3 L29.3,29.3 L29.3,24.8 L31.5,24.8 L31.5,29.3 L36,29.3 L36,29.2 Z" id="Shape"></path>
        </g>
    </g>
</svg>