<?xml version="1.0" encoding="UTF-8"?>
<svg width="35px" height="35px" viewBox="0 0 35 35" version="1.1" xmlns="http://www.w3.org/2000/svg" xmlns:xlink="http://www.w3.org/1999/xlink">
    <!-- Generator: Sketch 47.1 (45422) - http://www.bohemiancoding.com/sketch -->
    <title>navegacao-patrocinada</title>
    <desc>Created with Sketch.</desc>
    <defs></defs>
    <g id="Staging" stroke="none" stroke-width="1" fill="none" fill-rule="evenodd">
        <g id="navegacao-patrocinada" fill="#315FCE">
            <path d="M35,4.50863137 L35,13.1556902 L26.2697825,13.1556902 L26.2697825,10.9939255 L31.6582667,10.9939255 C30.98701,9.6766902 30.1547293,8.48627843 29.1594845,7.42172941 C28.1661797,6.35718039 27.054532,5.45116078 25.8264814,4.7027098 C24.5974608,3.95425882 23.2830781,3.3739451 21.8794531,2.96272941 C20.4748581,2.55151373 19.0285521,2.34686667 17.539565,2.34686667 C15.7877013,2.34686667 14.1095595,2.61396471 12.5012595,3.14912157 C10.8919894,3.68427843 9.42628284,4.43849412 8.10219985,5.41176863 C6.77714684,6.38504314 5.6237881,7.55623922 4.64115362,8.92439608 C3.65754912,10.2925529 2.91063051,11.8096314 2.39845775,13.4756314 L0.317755906,12.8338275 C0.886190068,10.965102 1.73302117,9.25298431 2.85727918,7.69939608 C3.98250721,6.14580784 5.30465015,4.81127843 6.82273797,3.69676863 C8.3408258,2.58225882 10.0102374,1.71755294 11.8358229,1.10457255 C13.6604383,0.491592157 15.5616857,0.185101961 17.539565,0.185101961 C19.0954837,0.185101961 20.6145416,0.376298039 22.0909184,0.75965098 C23.5692352,1.14300392 24.96413,1.69737647 26.2775427,2.42276863 C27.5890154,3.14816078 28.8025156,4.03304314 29.9180434,5.07453333 C31.0326012,6.11602353 31.9977752,7.29586667 32.8164756,8.61310196 L32.8164756,4.50863137 L35,4.50863137 Z M17.539565,32.6115725 C19.2904586,32.6115725 20.9695704,32.3444745 22.5769005,31.8093176 C24.1861706,31.2741608 25.6518771,30.5199451 26.9769301,29.5466706 C28.3010131,28.5733961 29.4543718,27.4022 30.4379763,26.0340431 C31.4206108,24.6658863 32.1684995,23.1488078 32.6797022,21.4828078 L34.7613741,22.1246118 C34.1929399,24.0048667 33.3461088,25.7189059 32.2208808,27.2676902 C31.0956527,28.8164745 29.7735098,30.1471608 28.256392,31.2616706 C26.7373341,32.3761804 25.0679225,33.2408863 23.2433071,33.8538667 C21.4186916,34.4668471 19.5174443,34.7733373 17.539565,34.7733373 C15.9826762,34.7733373 14.4645884,34.5821412 12.9872416,34.1987882 C11.5089247,33.8154353 10.11403,33.2610627 8.80061725,32.5356706 C7.48914458,31.8102784 6.27564434,30.9253961 5.16011655,29.8839059 C4.04652881,28.8424157 3.08038474,27.6625725 2.26265436,26.3453373 L2.26265436,30.4498078 L0.0791299602,30.4498078 L0.0791299602,21.802749 L8.80934747,21.802749 L8.80934747,23.9645137 L3.41989319,23.9645137 C4.09114992,25.281749 4.92440068,26.4721608 5.91867545,27.5367098 C6.91295022,28.6012588 8.02362789,29.5072784 9.25264851,30.2557294 C10.4806991,31.0041804 11.7960519,31.5844941 13.1987068,31.9957098 C14.6033018,32.4069255 16.0505779,32.6115725 17.539565,32.6115725 Z M16.1398515,15.4804451 C16.3651001,15.7034854 16.6481006,15.8864901 16.9888614,16.0294647 C17.3296222,16.1724393 17.7945515,16.3297089 18.3836634,16.5012784 C19.2037995,16.7414757 19.8766475,16.9816694 20.4022277,17.2218667 C20.9278079,17.4620639 21.3754107,17.8166356 21.7450495,18.2855922 C22.1146883,18.7545487 22.299505,19.3721896 22.299505,20.1385333 C22.299505,21.1107604 21.9587493,21.9085466 21.2772277,22.5319157 C20.5957062,23.1552848 19.6947251,23.5355915 18.5742574,23.6728471 L18.5742574,26.0748078 L16.8589109,26.0748078 L16.8589109,23.6900039 C16.050326,23.5985002 15.2677431,23.386901 14.5111386,23.0552 C13.7545342,22.723499 13.0932372,22.3060195 12.5272277,21.802749 L13.4975248,19.8468667 C14.109739,20.407327 14.7970259,20.8476821 15.5594059,21.1679451 C16.321786,21.4882081 17.0321749,21.6483373 17.6905941,21.6483373 C18.337462,21.6483373 18.8457077,21.525381 19.2153465,21.2794647 C19.5849853,21.0335484 19.769802,20.698993 19.769802,20.2757882 C19.769802,19.9326493 19.6571793,19.6495639 19.4319307,19.4265235 C19.206682,19.2034832 18.9207938,19.0233379 18.5742574,18.8860824 C18.227721,18.7488268 17.7541284,18.5944165 17.1534653,18.4228471 C16.3333292,18.1826498 15.6633689,17.948175 15.1435644,17.7194157 C14.6237598,17.4906564 14.1790448,17.1446631 13.8094059,16.6814255 C13.4397671,16.2181879 13.2549505,15.6091253 13.2549505,14.8542196 C13.2549505,13.9391824 13.5783796,13.178569 14.2252475,12.5723569 C14.8721154,11.9661447 15.7499945,11.5886975 16.8589109,11.4400039 L16.8589109,9.20961176 L18.5742574,9.1924549 L18.5742574,11.4228471 C19.2326766,11.4914749 19.8737593,11.6344473 20.4975248,11.8517686 C21.1212902,12.06909 21.6815157,12.3378781 22.1782178,12.6581412 L21.2425743,14.6654941 C20.6188088,14.2880412 19.9806138,13.9963775 19.3279703,13.7904941 C18.6753268,13.5846107 18.1006625,13.4816706 17.6039604,13.4816706 C17.0495022,13.4816706 16.6105627,13.5846107 16.2871287,13.7904941 C15.9636948,13.9963775 15.8019802,14.2823224 15.8019802,14.6483373 C15.8019802,14.9800383 15.9146028,15.2574048 16.1398515,15.4804451 Z"></path>
        </g>
    </g>
</svg>