<?xml version="1.0" encoding="UTF-8"?>
<svg width="34px" height="30px" viewBox="0 0 34 30" version="1.1" xmlns="http://www.w3.org/2000/svg" xmlns:xlink="http://www.w3.org/1999/xlink">
    <!-- Generator: Sketch 47.1 (45422) - http://www.bohemiancoding.com/sketch -->
    <title>no-internet</title>
    <desc>Created with Sketch.</desc>
    <defs></defs>
    <g id="Page-1" stroke="none" stroke-width="1" fill="none" fill-rule="evenodd">
        <g id="no-internet" fill-rule="nonzero" fill="#315FCE">
            <path d="M33.1,18.3 C32.7,17.3 32.1,16.5 31.4,15.8 C30.7,15.1 29.8,14.5 28.9,14.1 C27.9,13.7 26.9,13.5 25.8,13.5 C24.7,13.5 23.7,13.7 22.7,14.1 C21.7,14.5 20.9,15.1 20.2,15.8 C19.5,16.5 18.9,17.4 18.5,18.3 C18.1,19.3 17.9,20.3 17.9,21.4 C17.9,22.5 18.1,23.5 18.5,24.5 C18.9,25.5 19.5,26.3 20.2,27 C20.9,27.7 21.7,28.3 22.7,28.7 C23.7,29.1 24.7,29.3 25.8,29.3 C26.9,29.3 27.9,29.1 28.9,28.7 C29.9,28.3 30.7,27.7 31.4,27 C32.1,26.3 32.7,25.5 33.1,24.5 C33.5,23.5 33.7,22.5 33.7,21.4 C33.8,20.3 33.5,19.2 33.1,18.3 Z M27.5,26.7 C27,26.9 26.4,27 25.9,27 C25.1,27 24.4,26.9 23.7,26.6 C23,26.3 22.4,25.9 21.9,25.4 C21.4,24.9 21,24.3 20.7,23.6 C20.4,22.9 20.3,22.2 20.3,21.4 C20.3,20.8 20.4,20.3 20.5,19.8 C20.7,19.3 20.9,18.8 21.2,18.3 L29,26.1 C28.5,26.4 28,26.6 27.5,26.7 Z M31.3,23 C31.1,23.5 30.9,24 30.6,24.5 L22.8,16.7 C23.3,16.4 23.8,16.2 24.3,16 C24.8,15.8 25.4,15.8 25.9,15.8 C26.7,15.8 27.4,16 28.1,16.3 C28.8,16.6 29.4,17 29.9,17.5 C30.4,18 30.8,18.6 31.1,19.3 C31.4,20 31.6,20.7 31.6,21.5 C31.5,21.9 31.4,22.4 31.3,23 Z" id="Shape"></path>
            <path d="M27,0 L27,12.4 C28.7,12.6 30.2,13.3 31.5,14.3 L31.5,0 L27,0 Z M20.2,4.5 L20.2,14.4 C21.5,13.4 23,12.7 24.7,12.5 L24.7,4.5 L20.2,4.5 Z M18,9 L13.5,9 L13.5,22.5 L17,22.5 C17,22.1 16.9,21.7 16.9,21.4 C16.9,19.8 17.3,18.4 18,17.1 L18,9 Z M6.7,13.5 L6.7,22.5 L11.2,22.5 L11.2,13.5 L6.7,13.5 Z M0,18 L0,22.5 L4.5,22.5 L4.5,18 L0,18 Z" id="Shape"></path>
        </g>
    </g>
</svg>