<?xml version="1.0" encoding="UTF-8"?>
<svg width="36px" height="36px" viewBox="0 0 36 36" version="1.1" xmlns="http://www.w3.org/2000/svg" xmlns:xlink="http://www.w3.org/1999/xlink">
    <!-- Generator: Sketch 47.1 (45422) - http://www.bohemiancoding.com/sketch -->
    <title>patrocinada</title>
    <desc>Created with Sketch.</desc>
    <defs></defs>
    <g id="Page-1" stroke="none" stroke-width="1" fill="none" fill-rule="evenodd">
        <g id="patrocinada" fill-rule="nonzero" fill="#315FCE">
            <path d="M36,4.5 L36,13.5 L27,13.5 L27,11.3 L32.6,11.3 C31.9,9.9 31.1,8.7 30,7.6 C29,6.5 27.8,5.5 26.6,4.8 C25.3,4 24,3.4 22.5,3 C21,2.5 19.5,2.2 18,2.2 C16.2,2.2 14.5,2.5 12.8,3 C11.1,3.6 9.6,4.3 8.3,5.4 C6.9,6.4 5.7,7.6 4.7,9.1 C3.7,10.5 2.9,12.1 2.4,13.8 L0.3,13.1 C0.9,11.2 1.8,9.4 2.9,7.8 C4,6.2 5.4,4.8 7,3.7 C8.6,2.6 10.3,1.6 12.2,1 C14,0.3 16,0 18,0 C19.6,0 21.2,0.2 22.7,0.6 C24.2,1 25.7,1.6 27,2.3 C28.4,3.1 29.6,4 30.8,5.1 C31.9,6.2 32.9,7.4 33.8,8.8 L33.8,4.5 L36,4.5 Z M18,33.8 C19.8,33.8 21.5,33.5 23.2,33 C24.9,32.4 26.4,31.7 27.7,30.6 C29.1,29.6 30.3,28.4 31.3,26.9 C32.3,25.5 33.1,23.9 33.6,22.2 L35.7,22.9 C35.1,24.9 34.2,26.6 33.1,28.3 C32,30 30.6,31.3 29,32.5 C27.4,33.7 25.7,34.6 23.8,35.2 C22,35.7 20,36 18,36 C16.4,36 14.8,35.8 13.3,35.4 C11.8,35 10.3,34.4 9,33.7 C7.6,32.9 6.4,32 5.2,30.9 C4.1,29.8 3.1,28.6 2.2,27.2 L2.2,31.5 L0,31.5 L0,22.5 L9,22.5 L9,24.7 L3.4,24.7 C4.1,26.1 5,27.4 6,28.5 C7,29.6 8.2,30.6 9.4,31.3 C10.7,32.1 12,32.7 13.5,33.1 C15,33.5 16.5,33.8 18,33.8 L18,33.8 Z" id="Fill-21"></path>
        </g>
    </g>
</svg>