<?xml version="1.0" encoding="UTF-8"?>
<svg width="30px" height="32px" viewBox="0 0 30 32" version="1.1" xmlns="http://www.w3.org/2000/svg" xmlns:xlink="http://www.w3.org/1999/xlink">
    <!-- Generator: Sketch 47.1 (45422) - http://www.bohemiancoding.com/sketch -->
    <title>people</title>
    <desc>Created with Sketch.</desc>
    <defs></defs>
    <g id="Staging" stroke="none" stroke-width="1" fill="none" fill-rule="evenodd">
        <path d="M25.1582278,11.5845697 C25.9177215,11.9643917 26.5822785,12.4391691 27.1518987,12.9139466 C27.721519,13.388724 28.1962025,14.0534125 28.6708861,14.7181009 C29.1455696,15.3827893 29.4303797,16.0474777 29.6202532,16.8071217 C29.8101266,17.5667656 30,18.3264095 30,19.1810089 L27.9113924,19.1810089 C27.9113924,18.3264095 27.721519,17.4718101 27.4367089,16.7121662 C27.1518987,15.9525223 26.6772152,15.2878338 26.0126582,14.7181009 C25.3481013,14.148368 24.778481,13.6735905 24.0189873,13.2937685 C23.2594937,12.9139466 22.4050633,12.8189911 21.5506329,12.8189911 C20.6962025,12.8189911 19.8417722,13.0089021 19.0822785,13.2937685 C18.3227848,13.578635 17.6582278,14.0534125 17.0886076,14.7181009 C16.5189873,15.3827893 16.0443038,15.9525223 15.664557,16.7121662 C15.2848101,17.4718101 15.1898734,18.3264095 15.1898734,19.1810089 C15.1898734,20.2255193 15,21.1750742 14.5253165,22.0296736 C14.0506329,22.884273 13.3860759,23.7388724 12.6265823,24.3086053 C13.3860759,24.6884273 14.0506329,25.1632047 14.6202532,25.6379822 C15.1898734,26.1127596 15.664557,26.7774481 16.1392405,27.4421365 C16.6139241,28.1068249 16.8987342,28.7715134 17.0886076,29.5311573 C17.278481,30.2908012 17.4683544,31.0504451 17.4683544,31.9050445 L15.3797468,31.9050445 C15.3797468,31.0504451 15.1898734,30.1958457 14.9050633,29.4362018 C14.6202532,28.6765579 14.1455696,28.0118694 13.4810127,27.4421365 C12.8164557,26.8724036 12.2468354,26.3976261 11.4873418,26.1127596 C10.7278481,25.8278932 9.39873418,25.6379822 8.5443038,25.6379822 C7.68987342,25.6379822 6.83544304,25.8278932 6.07594937,26.1127596 C5.3164557,26.3976261 4.55696203,26.9673591 3.98734177,27.537092 C3.41772152,28.1068249 2.94303797,28.7715134 2.56329114,29.5311573 C2.1835443,30.2908012 2.08860759,31.1454006 2.08860759,32 L0,32 C0,31.1454006 0.0949367089,30.3857567 0.379746835,29.6261128 C0.664556962,28.8664688 0.949367089,28.1068249 1.32911392,27.537092 C1.70886076,26.9673591 2.27848101,26.3026706 2.84810127,25.7329377 C3.41772152,25.1632047 4.08227848,24.7833828 4.84177215,24.4035608 C3.98734177,23.8338279 3.41772152,23.074184 2.94303797,22.1246291 C2.46835443,21.1750742 2.27848101,20.2255193 2.27848101,19.2759644 C2.27848101,18.421365 2.46835443,17.5667656 2.75316456,16.8071217 C3.03797468,16.0474777 3.51265823,15.3827893 4.17721519,14.8130564 C4.84177215,14.2433234 5.41139241,13.768546 6.17088608,13.388724 C6.93037975,13.0089021 7.78481013,12.9139466 8.63924051,12.9139466 C9.6835443,12.9139466 10.6329114,13.1038576 11.4873418,13.578635 C12.3417722,14.0534125 13.1962025,14.7181009 13.7658228,15.4777448 C14.1455696,14.6231454 14.7151899,13.8635015 15.3797468,13.1988131 C16.0443038,12.5341246 16.8037975,11.9643917 17.6582278,11.5845697 C16.8037975,11.0148368 16.2341772,10.2551929 15.7594937,9.30563798 C15.2848101,8.35608309 15.0949367,7.40652819 15.0949367,6.45697329 C15.0949367,5.60237389 15.2848101,4.74777448 15.5696203,3.98813056 C15.8544304,3.22848665 16.3291139,2.56379822 16.9936709,1.99406528 C17.6582278,1.42433234 18.2278481,0.949554896 18.9873418,0.664688427 C19.7468354,0.379821958 20.5063291,0 21.3607595,0 C22.2151899,0 23.0696203,0.189910979 23.8291139,0.474777448 C24.5886076,0.854599407 25.2531646,1.23442136 25.8227848,1.8041543 C26.3924051,2.37388724 26.8670886,3.03857567 27.2468354,3.79821958 C27.6265823,4.5578635 27.721519,5.41246291 27.721519,6.26706231 C27.721519,7.3115727 27.5316456,8.2611276 27.056962,9.115727 C26.5822785,9.97032641 26.0126582,10.9198813 25.1582278,11.5845697 Z M8.5443038,23.4540059 C9.11392405,23.4540059 9.6835443,23.3590504 10.1582278,23.074184 C10.6329114,22.7893175 11.1075949,22.504451 11.4873418,22.1246291 C11.8670886,21.7448071 12.1518987,21.2700297 12.4367089,20.7952522 C12.721519,20.3204748 12.8164557,19.7507418 12.8164557,19.0860534 C12.8164557,18.5163205 12.721519,17.9465875 12.4367089,17.4718101 C12.1518987,16.9970326 11.8670886,16.5222552 11.4873418,16.1424332 C11.1075949,15.7626113 10.6329114,15.4777448 10.1582278,15.1928783 C9.6835443,14.9080119 9.11392405,14.8130564 8.5443038,14.8130564 C7.97468354,14.8130564 7.40506329,14.9080119 6.93037975,15.1928783 C6.4556962,15.4777448 5.98101266,15.7626113 5.60126582,16.1424332 C5.22151899,16.5222552 4.93670886,16.9970326 4.65189873,17.4718101 C4.36708861,17.9465875 4.2721519,18.5163205 4.2721519,19.0860534 C4.2721519,19.6557864 4.36708861,20.2255193 4.65189873,20.7952522 C4.93670886,21.3649852 5.22151899,21.7448071 5.60126582,22.1246291 C5.98101266,22.504451 6.4556962,22.7893175 6.93037975,23.074184 C7.40506329,23.3590504 7.97468354,23.4540059 8.5443038,23.4540059 Z M17.0886076,6.3620178 C17.0886076,6.93175074 17.1835443,7.50148368 17.4683544,7.97626113 C17.7531646,8.45103858 18.0379747,8.92581602 18.4177215,9.30563798 C18.7974684,9.68545994 19.2721519,9.97032641 19.7468354,10.2551929 C20.221519,10.5400593 20.7911392,10.6350148 21.3607595,10.6350148 C21.9303797,10.6350148 22.5,10.5400593 22.9746835,10.2551929 C23.4493671,9.97032641 23.9240506,9.68545994 24.3037975,9.30563798 C24.6835443,8.92581602 24.9683544,8.45103858 25.2531646,7.97626113 C25.5379747,7.50148368 25.6329114,7.02670623 25.6329114,6.3620178 C25.6329114,5.79228487 25.5379747,5.22255193 25.2531646,4.74777448 C24.9683544,4.27299703 24.6835443,3.79821958 24.3037975,3.41839763 C23.9240506,3.03857567 23.4493671,2.7537092 22.9746835,2.46884273 C22.5,2.18397626 21.9303797,2.08902077 21.3607595,2.08902077 C20.7911392,2.08902077 20.221519,2.18397626 19.7468354,2.46884273 C19.2721519,2.7537092 18.7974684,3.03857567 18.4177215,3.41839763 C18.0379747,3.79821958 17.7531646,4.27299703 17.4683544,4.74777448 C17.1835443,5.22255193 17.0886076,5.79228487 17.0886076,6.3620178 Z" id="people" fill="#315FCE" fill-rule="nonzero"></path>
    </g>
</svg>