<?xml version="1.0" encoding="UTF-8"?>
<svg width="32px" height="34px" viewBox="0 0 32 34" version="1.1" xmlns="http://www.w3.org/2000/svg" xmlns:xlink="http://www.w3.org/1999/xlink">
    <!-- Generator: Sketch 47.1 (45422) - http://www.bohemiancoding.com/sketch -->
    <title>pessoas</title>
    <desc>Created with Sketch.</desc>
    <defs></defs>
    <g id="Page-1" stroke="none" stroke-width="1" fill="none" fill-rule="evenodd">
        <g id="pessoas" fill-rule="nonzero" fill="#315FCE">
            <path d="M26.5,12.2 C27.3,12.6 28,13.1 28.6,13.6 C29.2,14.1 29.7,14.8 30.2,15.5 C30.7,16.2 31,16.9 31.2,17.7 C31.4,18.5 31.6,19.3 31.6,20.2 L29.4,20.2 C29.4,19.3 29.2,18.4 28.9,17.6 C28.6,16.8 28.1,16.1 27.4,15.5 C26.7,14.9 26.1,14.4 25.3,14 C24.5,13.6 23.6,13.5 22.7,13.5 C21.8,13.5 20.9,13.7 20.1,14 C19.3,14.3 18.6,14.8 18,15.5 C17.4,16.2 16.9,16.8 16.5,17.6 C16.1,18.4 16,19.3 16,20.2 C16,21.3 15.8,22.3 15.3,23.2 C14.8,24.1 14.1,25 13.3,25.6 C14.1,26 14.8,26.5 15.4,27 C16,27.5 16.5,28.2 17,28.9 C17.5,29.6 17.8,30.3 18,31.1 C18.2,31.9 18.4,32.7 18.4,33.6 L16.2,33.6 C16.2,32.7 16,31.8 15.7,31 C15.4,30.2 14.9,29.5 14.2,28.9 C13.5,28.3 12.9,27.8 12.1,27.5 C11.3,27.2 9.9,27 9,27 C8.1,27 7.2,27.2 6.4,27.5 C5.6,27.8 4.8,28.4 4.2,29 C3.6,29.6 3.1,30.3 2.7,31.1 C2.3,31.9 2.2,32.8 2.2,33.7 L0,33.7 C0,32.8 0.1,32 0.4,31.2 C0.7,30.4 1,29.6 1.4,29 C1.8,28.4 2.4,27.7 3,27.1 C3.6,26.5 4.3,26.1 5.1,25.7 C4.2,25.1 3.6,24.3 3.1,23.3 C2.6,22.3 2.4,21.3 2.4,20.3 C2.4,19.4 2.6,18.5 2.9,17.7 C3.2,16.9 3.7,16.2 4.4,15.6 C5.1,15 5.7,14.5 6.5,14.1 C7.3,13.7 8.2,13.6 9.1,13.6 C10.2,13.6 11.2,13.8 12.1,14.3 C13,14.8 13.9,15.5 14.5,16.3 C14.9,15.4 15.5,14.6 16.2,13.9 C16.9,13.2 17.7,12.6 18.6,12.2 C17.7,11.6 17.1,10.8 16.6,9.8 C16.1,8.8 15.9,7.8 15.9,6.8 C15.9,5.9 16.1,5 16.4,4.2 C16.7,3.4 17.2,2.7 17.9,2.1 C18.6,1.5 19.2,1 20,0.7 C20.8,0.4 21.6,0 22.5,0 C23.4,0 24.3,0.2 25.1,0.5 C25.9,0.9 26.6,1.3 27.2,1.9 C27.8,2.5 28.3,3.2 28.7,4 C29.1,4.8 29.2,5.7 29.2,6.6 C29.2,7.7 29,8.7 28.5,9.6 C28,10.5 27.4,11.5 26.5,12.2 Z M9,24.7 C9.6,24.7 10.2,24.6 10.7,24.3 C11.2,24 11.7,23.7 12.1,23.3 C12.5,22.9 12.8,22.4 13.1,21.9 C13.4,21.4 13.5,20.8 13.5,20.1 C13.5,19.5 13.4,18.9 13.1,18.4 C12.8,17.9 12.5,17.4 12.1,17 C11.7,16.6 11.2,16.3 10.7,16 C10.2,15.7 9.6,15.6 9,15.6 C8.4,15.6 7.8,15.7 7.3,16 C6.8,16.3 6.3,16.6 5.9,17 C5.5,17.4 5.2,17.9 4.9,18.4 C4.6,18.9 4.5,19.5 4.5,20.1 C4.5,20.7 4.6,21.3 4.9,21.9 C5.2,22.5 5.5,22.9 5.9,23.3 C6.3,23.7 6.8,24 7.3,24.3 C7.8,24.6 8.4,24.7 9,24.7 Z M18,6.7 C18,7.3 18.1,7.9 18.4,8.4 C18.7,8.9 19,9.4 19.4,9.8 C19.8,10.2 20.3,10.5 20.8,10.8 C21.3,11.1 21.9,11.2 22.5,11.2 C23.1,11.2 23.7,11.1 24.2,10.8 C24.7,10.5 25.2,10.2 25.6,9.8 C26,9.4 26.3,8.9 26.6,8.4 C26.9,7.9 27,7.4 27,6.7 C27,6.1 26.9,5.5 26.6,5 C26.3,4.5 26,4 25.6,3.6 C25.2,3.2 24.7,2.9 24.2,2.6 C23.7,2.3 23.1,2.2 22.5,2.2 C21.9,2.2 21.3,2.3 20.8,2.6 C20.3,2.9 19.8,3.2 19.4,3.6 C19,4 18.7,4.5 18.4,5 C18.1,5.5 18,6.1 18,6.7 Z" id="Shape"></path>
        </g>
    </g>
</svg>