<?xml version="1.0" encoding="UTF-8"?>
<svg width="36px" height="36px" viewBox="0 0 36 36" version="1.1" xmlns="http://www.w3.org/2000/svg" xmlns:xlink="http://www.w3.org/1999/xlink">
    <!-- Generator: Sketch 47.1 (45422) - http://www.bohemiancoding.com/sketch -->
    <title>phone</title>
    <desc>Created with Sketch.</desc>
    <defs></defs>
    <g id="Page-1" stroke="none" stroke-width="1" fill="none" fill-rule="evenodd">
        <g id="phone" fill-rule="nonzero" fill="#315FCE">
            <path d="M28.2,21.3 C28.7,21.3 29.2,21.4 29.7,21.6 C30.2,21.8 30.6,22.1 31,22.4 L34.9,26.3 C35.3,26.7 35.5,27.1 35.7,27.6 C35.9,28.1 36,28.6 36,29.1 C36,29.6 35.9,30.1 35.7,30.6 C35.5,31.1 35.2,31.5 34.9,31.9 C34.2,32.6 33.6,33.2 33.1,33.7 C32.6,34.2 32,34.7 31.4,35 C30.8,35.3 30.2,35.6 29.4,35.8 C28.6,36 27.8,36 26.8,36 C25.3,36 23.8,35.8 22.3,35.3 C20.8,34.8 19.2,34.2 17.7,33.4 C16.2,32.6 14.7,31.6 13.2,30.5 C11.7,29.4 10.3,28.2 9,26.9 C7.7,25.6 6.5,24.2 5.4,22.7 C4.3,21.2 3.3,19.7 2.6,18.2 C1.9,16.7 1.2,15.1 0.7,13.6 C0.2,12.1 0,10.6 0,9.2 C0,8.2 0.1,7.3 0.3,6.6 C0.5,5.9 0.8,5.2 1.1,4.6 C1.4,4 1.9,3.5 2.4,3 C2.9,2.5 3.5,1.8 4.2,1.2 C4.6,0.8 5,0.5 5.4,0.3 C5.8,0.1 6.4,0 6.9,0 C7.4,0 7.9,0.1 8.4,0.3 C8.9,0.5 9.3,0.8 9.7,1.1 L13.6,5 C14,5.4 14.2,5.8 14.4,6.3 C14.6,6.8 14.7,7.3 14.7,7.8 C14.7,8.3 14.6,8.8 14.4,9.2 C14.2,9.6 14,10 13.8,10.3 C13.6,10.6 13.3,10.9 12.9,11.2 C12.5,11.5 12.3,11.7 12,12 C11.7,12.3 11.5,12.5 11.4,12.8 C11.3,13.1 11.1,13.3 11.1,13.7 C11.1,14.1 11.3,14.5 11.6,14.8 L21.3,24.5 C21.6,24.8 22,25 22.4,25 C22.7,25 23,24.9 23.3,24.7 C23.6,24.5 23.8,24.3 24.1,24 C24.4,23.7 24.6,23.5 24.9,23.1 C25.2,22.7 25.5,22.5 25.8,22.2 C26.1,21.9 26.5,21.7 26.9,21.5 C27.3,21.3 27.7,21.3 28.2,21.3 Z M26.8,33.7 C27.6,33.7 28.4,33.6 28.9,33.5 C29.4,33.4 30,33.1 30.4,32.8 C30.8,32.5 31.3,32.1 31.7,31.7 C32.1,31.3 32.6,30.8 33.2,30.2 C33.5,29.9 33.7,29.5 33.7,29.1 C33.7,28.9 33.6,28.6 33.4,28.4 C33.2,28.2 33,27.8 32.7,27.5 C32.4,27.2 32.1,26.9 31.8,26.5 C31.5,26.1 31.1,25.8 30.8,25.6 C30.5,25.4 30.2,25 29.9,24.8 C29.6,24.6 29.4,24.3 29.3,24.2 C29,23.9 28.6,23.7 28.1,23.7 C27.8,23.7 27.5,23.8 27.3,24 C27.1,24.2 26.8,24.4 26.5,24.7 C26.2,25 26,25.2 25.7,25.6 C25.4,26 25.1,26.2 24.8,26.5 C24.5,26.8 24.1,27 23.7,27.2 C23.3,27.4 22.8,27.5 22.3,27.5 C21.8,27.5 21.3,27.4 20.8,27.2 C20.3,27 19.9,26.7 19.5,26.4 L10,16.3 C9.6,15.9 9.4,15.5 9.2,15 C9,14.5 8.9,14 8.9,13.5 C8.9,13 9,12.5 9.2,12.1 C9.4,11.7 9.6,11.3 9.8,11 C10,10.7 10.3,10.4 10.7,10.1 C11.1,9.8 11.3,9.6 11.6,9.3 C11.9,9 12.1,8.8 12.2,8.5 C12.3,8.2 12.5,8 12.5,7.7 C12.5,7.2 12.3,6.9 12,6.5 C11.8,6.3 11.6,6.1 11.4,5.9 C11.2,5.7 10.9,5.3 10.6,5 C10.3,4.7 10,4.4 9.7,4 C9.4,3.6 9,3.4 8.7,3.1 C8.4,2.8 8,2.7 7.7,2.5 C7.4,2.3 7.2,2.3 6.9,2.3 C6.5,2.3 6.1,2.5 5.8,2.8 C5.2,3.3 4.7,3.8 4.3,4.2 C3.9,4.6 3.5,5.1 3.2,5.6 C2.9,6.1 2.7,6.6 2.5,7.1 C2.3,7.6 2.3,8.4 2.3,9.2 C2.3,10.5 2.5,11.9 2.9,13.3 C3.3,14.7 3.9,16.1 4.7,17.5 C5.5,18.9 6.3,20.3 7.4,21.6 C8.4,23 9.6,24.2 10.8,25.4 C12,26.6 13.3,27.7 14.7,28.7 C16.1,29.7 17.4,30.6 18.8,31.3 C20.2,32 21.6,32.6 22.9,33 C24.2,33.4 25.5,33.7 26.8,33.7 Z" id="Shape"></path>
        </g>
    </g>
</svg>