<?xml version="1.0" encoding="UTF-8"?>
<svg width="35px" height="36px" viewBox="0 0 35 36" version="1.1" xmlns="http://www.w3.org/2000/svg" xmlns:xlink="http://www.w3.org/1999/xlink">
    <!-- Generator: Sketch 47.1 (45422) - http://www.bohemiancoding.com/sketch -->
    <title>pin</title>
    <desc>Created with Sketch.</desc>
    <defs></defs>
    <g id="Page-1" stroke="none" stroke-width="1" fill="none" fill-rule="evenodd">
        <g id="pin" fill-rule="nonzero" fill="#315FCE">
            <path d="M35,12.1 C34.6,12.5 34.2,12.8 33.9,13.2 C33.6,13.6 33.1,13.8 32.8,14 C32.5,14.2 32,14.4 31.5,14.5 C31,14.6 30.5,14.7 29.9,14.7 C29.5,14.7 29.1,14.7 28.8,14.6 L22.1,21.3 C22.3,21.7 22.4,22.2 22.4,22.7 C22.4,23.2 22.5,23.6 22.5,24.1 C22.5,24.9 22.4,25.6 22.3,26.2 C22.2,26.8 21.9,27.4 21.6,28 C21.3,28.6 21,29.1 20.6,29.6 C20.2,30.1 19.7,30.6 19.2,31.1 L12.4,24.3 L2.4,34.3 L0,35.1 L0.8,32.7 L10.8,22.7 L4,15.9 L4.8,15.1 C5.6,14.3 6.6,13.7 7.6,13.2 C8.6,12.7 9.8,12.6 10.9,12.6 C11.9,12.6 12.8,12.7 13.7,13 L20.4,6.3 C20.3,5.9 20.3,5.6 20.3,5.2 C20.3,4.6 20.4,4.1 20.5,3.6 C20.6,3.1 20.8,2.7 21,2.3 C21.2,1.9 21.5,1.5 21.8,1.1 C22.1,0.7 22.5,0.4 22.9,0 L35,12.1 Z M29.9,12.5 C30.5,12.5 31.2,12.3 31.7,12 L23,3.3 C22.7,3.9 22.5,4.5 22.5,5.1 C22.5,5.4 22.5,5.7 22.6,6 C22.7,6.3 22.8,6.6 22.9,6.9 L14.3,15.5 C14,15.4 13.7,15.3 13.5,15.2 C13.3,15.1 13,15 12.7,14.9 C12.4,14.8 12.2,14.8 11.9,14.7 C11.6,14.6 11.3,14.6 11,14.6 C10.3,14.6 9.7,14.7 9.1,14.9 C8.5,15.1 7.9,15.4 7.4,15.8 L19.2,27.6 C19.6,27.1 19.9,26.5 20.1,25.9 C20.3,25.3 20.4,24.6 20.4,24 C20.4,23.7 20.4,23.4 20.3,23.1 C20.2,22.8 20.2,22.6 20.1,22.3 C20,22 19.9,21.8 19.8,21.5 C19.7,21.2 19.6,21 19.5,20.7 L28.1,12.1 C28.4,12.2 28.7,12.3 29,12.4 C29.3,12.5 29.5,12.5 29.9,12.5 Z" id="Shape"></path>
        </g>
    </g>
</svg>