<?xml version="1.0" encoding="UTF-8"?>
<svg width="33px" height="33px" viewBox="0 0 33 33" version="1.1" xmlns="http://www.w3.org/2000/svg" xmlns:xlink="http://www.w3.org/1999/xlink">
    <!-- Generator: Sketch 47.1 (45422) - http://www.bohemiancoding.com/sketch -->
    <title>Group 18</title>
    <desc>Created with Sketch.</desc>
    <defs></defs>
    <g id="Staging" stroke="none" stroke-width="1" fill="none" fill-rule="evenodd">
        <g id="Group-18" fill-rule="nonzero">
            <path d="M16.333,0 C7.31295905,0 0,7.31265281 0,16.333 C0,25.3533472 7.31295905,32.666 16.333,32.666 C25.3540362,32.666 32.666,25.3533472 32.666,16.333 C32.666,7.31265281 25.35373,0 16.333,0 Z" id="Shape" fill="#FFFFFF"></path>
            <g id="pin" transform="translate(6.000000, 4.000000)" fill="#315FCE">
                <path d="M23,7.92877493 C22.7371429,8.19088319 22.4742857,8.38746439 22.2771429,8.64957265 C22.08,8.91168091 21.7514286,9.04273504 21.5542857,9.17378917 C21.3571429,9.3048433 21.0285714,9.43589744 20.7,9.5014245 C20.3714286,9.56695157 20.0428571,9.63247863 19.6485714,9.63247863 C19.3857143,9.63247863 19.1228571,9.63247863 18.9257143,9.56695157 L14.5228571,13.957265 C14.6542857,14.2193732 14.72,14.5470085 14.72,14.8746439 C14.72,15.2022792 14.7857143,15.4643875 14.7857143,15.7920228 C14.7857143,16.3162393 14.72,16.7749288 14.6542857,17.1680912 C14.5885714,17.5612536 14.3914286,17.954416 14.1942857,18.3475783 C13.9971429,18.7407407 13.8,19.0683761 13.5371429,19.3960114 C13.2742857,19.7236467 12.9457143,20.0512821 12.6171429,20.3789174 L8.14857143,15.9230769 L1.57714286,22.4757835 L0,23 L0.525714286,21.4273504 L7.09714286,14.8746439 L2.62857143,10.4188034 L3.15428571,9.89458689 C3.68,9.37037037 4.33714286,8.97720798 4.99428571,8.64957265 C5.65142857,8.32193732 6.44,8.25641026 7.16285714,8.25641026 C7.82,8.25641026 8.41142857,8.32193732 9.00285714,8.51851852 L13.4057143,4.12820513 C13.34,3.86609687 13.34,3.66951567 13.34,3.40740741 C13.34,3.01424501 13.4057143,2.68660969 13.4714286,2.35897436 C13.5371429,2.03133903 13.6685714,1.76923077 13.8,1.50712251 C13.9314286,1.24501425 14.1285714,0.982905983 14.3257143,0.720797721 C14.5228571,0.458689459 14.7857143,0.262108262 15.0485714,0 L23,7.92877493 Z M19.6485714,8.19088319 C20.0428571,8.19088319 20.5028571,8.05982906 20.8314286,7.86324786 L15.1142857,2.16239316 C14.9171429,2.55555556 14.7857143,2.94871795 14.7857143,3.34188034 C14.7857143,3.53846154 14.7857143,3.73504274 14.8514286,3.93162393 C14.9171429,4.12820513 14.9828571,4.32478632 15.0485714,4.52136752 L9.39714286,10.1566952 C9.2,10.0911681 9.00285714,10.025641 8.87142857,9.96011396 C8.74,9.89458689 8.54285714,9.82905983 8.34571429,9.76353276 C8.14857143,9.6980057 8.01714286,9.6980057 7.82,9.63247863 C7.62285714,9.56695157 7.42571429,9.56695157 7.22857143,9.56695157 C6.76857143,9.56695157 6.37428571,9.63247863 5.98,9.76353276 C5.58571429,9.89458689 5.19142857,10.0911681 4.86285714,10.3532764 L12.6171429,18.0854701 C12.88,17.7578348 13.0771429,17.3646724 13.2085714,16.97151 C13.34,16.5783476 13.4057143,16.1196581 13.4057143,15.7264957 C13.4057143,15.5299145 13.4057143,15.3333333 13.34,15.1367521 C13.2742857,14.9401709 13.2742857,14.8091168 13.2085714,14.6125356 C13.1428571,14.4159544 13.0771429,14.2849003 13.0114286,14.0883191 C12.9457143,13.8917379 12.88,13.7606838 12.8142857,13.5641026 L18.4657143,7.92877493 C18.6628571,7.99430199 18.86,8.05982906 19.0571429,8.12535613 C19.2542857,8.19088319 19.3857143,8.19088319 19.6485714,8.19088319 Z"></path>
            </g>
        </g>
    </g>
</svg>