<?xml version="1.0" encoding="UTF-8"?>
<svg width="20px" height="13px" viewBox="0 0 20 13" version="1.1" xmlns="http://www.w3.org/2000/svg" xmlns:xlink="http://www.w3.org/1999/xlink">
    <!-- Generator: Sketch 45.2 (43514) - http://www.bohemiancoding.com/sketch -->
    <title>pt</title>
    <desc>Created with Sketch.</desc>
    <defs></defs>
    <g id="Page-1" stroke="none" stroke-width="1" fill="none" fill-rule="evenodd">
        <g id="Artboard" transform="translate(-15.000000, -11.000000)">
            <g id="Flags/brazil" transform="translate(15.000000, 11.000000)">
                <g id="brazil">
                    <rect id="Rectangle-9" fill="#5CB300" x="0" y="0" width="20" height="13"></rect>
                    <path d="M9.80155945,1.82653869 L2.54791423,6.20827381 C2.32760234,6.34133036 2.32760234,6.65866964 2.54791423,6.79176488 L9.80155945,11.1735387 C9.91146199,11.2399315 10.0495127,11.2399315 10.1594542,11.1735387 L17.4131384,6.79180357 C17.6334503,6.65874702 17.6334503,6.34140774 17.4131384,6.2083125 L10.1594542,1.82653869 C10.0495517,1.76014583 9.91146199,1.76014583 9.80155945,1.82653869 Z" id="Shape" fill="#FFE15A" fill-rule="nonzero"></path>
                    <ellipse id="Oval" fill="#41479B" fill-rule="nonzero" cx="9.98050682" cy="6.50003869" rx="2.75321637" ry="2.73232143"></ellipse>
                    <g id="Group" transform="translate(7.290448, 5.068452)" fill-rule="nonzero" fill="#F5F5F5">
                        <path d="M0.327524366,0.0338154762 C0.197621832,0.249630952 0.0973099415,0.484172619 0.0310331384,0.733223214 C1.55730994,0.619241071 3.81512671,1.04297917 5.25216374,2.42682143 C5.34596491,2.18922321 5.40787524,1.93611012 5.43111111,1.67150595 C3.94725146,0.432133929 1.89582846,-0.00858928571 0.327524366,0.0338154762 Z" id="Shape"></path>
                        <path d="M2.39522965,2.02118304 L2.46852399,2.23931994 L2.7002199,2.2410997 C2.73020041,2.24133185 2.74263705,2.27932589 2.71854349,2.29700744 L2.53214972,2.43362351 L2.60205226,2.65284375 C2.61109709,2.68124256 2.5785045,2.70472768 2.55413803,2.68739435 L2.365639,2.55368006 L2.17713998,2.68739435 C2.15273452,2.70472768 2.12018091,2.68124256 2.12922575,2.65284375 L2.19912828,2.43362351 L2.01273452,2.29700744 C1.98860197,2.27932589 2.00103861,2.24133185 2.03101912,2.2410997 L2.26271503,2.23931994 L2.33600937,2.02118304 C2.34548306,1.99293899 2.38571697,1.99293899 2.39522965,2.02118304 Z" id="Shape"></path>
                    </g>
                    <path d="M11.4465063,5.07681659 L11.4754469,5.16294881 L11.5669329,5.16365155 C11.5787709,5.16374321 11.5836815,5.17874531 11.5741681,5.18572694 L11.5005698,5.23967034 L11.5281711,5.32623032 C11.5317424,5.3374437 11.5188731,5.34671689 11.5092519,5.33987276 L11.4348223,5.28707514 L11.3603928,5.33987276 C11.3507562,5.34671689 11.3379023,5.3374437 11.3414736,5.32623032 L11.3690749,5.23967034 L11.2954766,5.18572694 C11.2859478,5.17874531 11.2908584,5.16374321 11.3026964,5.16365155 L11.3941824,5.16294881 L11.423123,5.07681659 C11.4268637,5.06566431 11.4427502,5.06566431 11.4465063,5.07681659 Z" id="Shape-Copy-4" fill="#F5F5F5" fill-rule="nonzero"></path>
                    <path d="M10.4465063,4.07681659 L10.4754469,4.16294881 L10.5669329,4.16365155 C10.5787709,4.16374321 10.5836815,4.17874531 10.5741681,4.18572694 L10.5005698,4.23967034 L10.5281711,4.32623032 C10.5317424,4.3374437 10.5188731,4.34671689 10.5092519,4.33987276 L10.4348223,4.28707514 L10.3603928,4.33987276 C10.3507562,4.34671689 10.3379023,4.3374437 10.3414736,4.32623032 L10.3690749,4.23967034 L10.2954766,4.18572694 C10.2859478,4.17874531 10.2908584,4.16374321 10.3026964,4.16365155 L10.3941824,4.16294881 L10.423123,4.07681659 C10.4268637,4.06566431 10.4427502,4.06566431 10.4465063,4.07681659 Z" id="Shape-Copy-5" fill="#F5F5F5" fill-rule="nonzero"></path>
                    <path d="M10.4465063,5.07681659 L10.4754469,5.16294881 L10.5669329,5.16365155 C10.5787709,5.16374321 10.5836815,5.17874531 10.5741681,5.18572694 L10.5005698,5.23967034 L10.5281711,5.32623032 C10.5317424,5.3374437 10.5188731,5.34671689 10.5092519,5.33987276 L10.4348223,5.28707514 L10.3603928,5.33987276 C10.3507562,5.34671689 10.3379023,5.3374437 10.3414736,5.32623032 L10.3690749,5.23967034 L10.2954766,5.18572694 C10.2859478,5.17874531 10.2908584,5.16374321 10.3026964,5.16365155 L10.3941824,5.16294881 L10.423123,5.07681659 C10.4268637,5.06566431 10.4427502,5.06566431 10.4465063,5.07681659 Z" id="Shape-Copy-6" fill="#F5F5F5" fill-rule="nonzero"></path>
                    <path d="M9.44650633,4.07681659 L9.4754469,4.16294881 L9.56693294,4.16365155 C9.57877086,4.16374321 9.58368152,4.17874531 9.57416808,4.18572694 L9.50056977,4.23967034 L9.52817106,4.32623032 C9.53174245,4.3374437 9.51887313,4.34671689 9.50925194,4.33987276 L9.43482235,4.28707514 L9.36039276,4.33987276 C9.35075617,4.34671689 9.33790225,4.3374437 9.34147364,4.32623032 L9.36907493,4.23967034 L9.29547662,4.18572694 C9.28594778,4.17874531 9.29085844,4.16374321 9.30269637,4.16365155 L9.39418241,4.16294881 L9.42312297,4.07681659 C9.42686369,4.06566431 9.44275022,4.06566431 9.44650633,4.07681659 Z" id="Shape-Copy-7" fill="#F5F5F5" fill-rule="nonzero"></path>
                    <path d="M12.156058,6.00836421 L12.1849986,6.09449643 L12.2764846,6.09519917 C12.2883225,6.09529083 12.2932332,6.11029293 12.2837197,6.11727456 L12.2101214,6.17121796 L12.2377227,6.25777794 C12.2412941,6.26899132 12.2284248,6.27826451 12.2188036,6.27142038 L12.144374,6.21862276 L12.0699444,6.27142038 C12.0603078,6.27826451 12.0474539,6.26899132 12.0510253,6.25777794 L12.0786266,6.17121796 L12.0050283,6.11727456 C11.9954994,6.11029293 12.0004101,6.09529083 12.012248,6.09519917 L12.1037341,6.09449643 L12.1326746,6.00836421 C12.1364154,5.99721193 12.1523019,5.99721193 12.156058,6.00836421 Z" id="Shape-Copy-8" fill="#F5F5F5" fill-rule="nonzero"></path>
                </g>
            </g>
        </g>
    </g>
</svg>