<?xml version="1.0" encoding="UTF-8"?>
<svg width="28px" height="23px" viewBox="0 0 28 23" version="1.1" xmlns="http://www.w3.org/2000/svg" xmlns:xlink="http://www.w3.org/1999/xlink">
    <!-- Generator: Sketch 47.1 (45422) - http://www.bohemiancoding.com/sketch -->
    <title>quotes</title>
    <desc>Created with Sketch.</desc>
    <defs></defs>
    <g id="Page-1" stroke="none" stroke-width="1" fill="none" fill-rule="evenodd">
        <g id="quotes" fill-rule="nonzero" fill="#315FCE">
            <path d="M11.9,22.4 L0,22.4 L0,13.2 C0,9.8 0.7,7.1 2.1,5.2 C3.5,3.3 5.9,1.5 9.4,0 L12,4.9 C9.9,5.9 8.4,6.9 7.6,7.9 C6.8,8.9 6.3,10 6.3,11.4 L12,11.4 L12,22.4 L11.9,22.4 Z M27.3,22.4 L15.4,22.4 L15.4,13.2 C15.4,9.8 16.1,7.1 17.5,5.2 C18.9,3.3 21.3,1.5 24.7,0 L27.3,4.9 C25.2,5.9 23.7,6.9 22.9,7.9 C22.1,8.9 21.6,10 21.6,11.4 L27.3,11.4 L27.3,22.4 L27.3,22.4 Z" id="Shape"></path>
        </g>
    </g>
</svg>