<?xml version="1.0" encoding="UTF-8"?>
<svg width="27px" height="37px" viewBox="0 0 27 37" version="1.1" xmlns="http://www.w3.org/2000/svg" xmlns:xlink="http://www.w3.org/1999/xlink">
    <!-- Generator: Sketch 47.1 (45422) - http://www.bohemiancoding.com/sketch -->
    <title>rcs</title>
    <desc>Created with Sketch.</desc>
    <defs></defs>
    <g id="Page-1" stroke="none" stroke-width="1" fill="none" fill-rule="evenodd">
        <g id="rcs" fill-rule="nonzero" fill="#335AC8">
            <g id="Group">
                <path d="M25.0785502,14.2662817 L25.0785502,20.7254468 C25.0785502,21.5337422 24.633885,21.8635124 24.0854935,21.8635124 C23.537102,21.8635124 23.0924377,21.5337422 23.0924377,20.7254468 L23.0924377,14.2662817 C23.0915875,13.4592395 23.537102,13.0812889 24.0854935,13.0812889 C24.633885,13.0812889 25.0785502,13.4579863 25.0785502,14.2662817 Z M21.3663025,13.6592188 L21.3663025,21.557207 C21.3663025,22.95421 22.9002587,23.9900977 24.1412659,23.9900977 C25.3822731,23.9900977 26.9511108,22.95421 26.9511108,21.557207 L26.9511108,13.6592188 C26.9511108,12.2637342 25.3983649,11.2401514 24.1587067,11.2401514 C22.9176995,11.2401514 21.3663025,12.2622158 21.3663025,13.6592188 Z" id="Shape"></path>
                <path d="M3.70748693,14.2662817 L3.70748693,20.7254468 C3.70748693,21.5337422 3.26282179,21.8635124 2.7144303,21.8635124 C2.16603882,21.8635124 1.72137451,21.5337422 1.72137451,20.7254468 L1.72137451,14.2662817 C1.72052429,13.4592395 2.16603882,13.0812889 2.7144303,13.0812889 C3.26282179,13.0812889 3.70748693,13.4579863 3.70748693,14.2662817 Z M0.000778198242,13.6592188 L0.000778198242,21.557207 C0.000778198242,22.95421 1.53473438,23.9900977 2.77574158,23.9900977 C4.01674877,23.9900977 5.58558655,22.95421 5.58558655,21.557207 L5.58558655,13.6592188 C5.58558655,12.2637342 4.03284065,11.2401514 2.79318237,11.2401514 C1.55217518,11.2401514 0.000778198242,12.2622158 0.000778198242,13.6592188 Z" id="Shape"></path>
                <path d="M21.1240963,27.0891016 L19.1061401,27.0891016 L19.1061401,32.6178418 C19.1061401,33.684432 18.8926236,34.6141477 17.8400675,34.6141477 C16.7875114,34.6141477 16.5124512,33.684432 16.5124512,32.6178418 L16.5124512,27.0891016 L10.3053589,27.0891016 L10.3053589,32.6178418 C10.3053589,33.684432 10.3581795,34.6141477 9.30562337,34.6141477 C8.25306727,34.6141477 8.12988281,33.684432 8.12988281,32.6178418 L8.12988281,27.0891016 L5.8759037,27.0891016 L5.8759037,13.1469238 L21.1240963,13.1469238 L21.1240963,27.0891016 Z M22.982,11.1262311 L22.0653333,11.1262311 L4.93283333,11.1262311 L4.01616667,11.1262311 L4.01616667,12.05512 L4.01616667,28.3311111 L4.01616667,29.26 L4.93283333,29.26 L6.1575,29.26 L6.1575,33.7558222 C6.1575,35.4649778 7.52883333,36.8545956 9.2155,36.8545956 C10.9021667,36.8545956 12.2735,35.4649778 12.2735,33.7558222 L12.2735,29.26 L14.7228333,29.26 L14.7228333,33.7558222 C14.7228333,35.4649778 16.0941667,36.8545956 17.7808333,36.8545956 C19.4675,36.8545956 20.8388333,35.4649778 20.8388333,33.7558222 L20.8388333,29.26 L22.0635,29.26 L22.9801667,29.26 L22.9801667,28.3311111 L22.9801667,12.05512 L22.9801667,11.1262311 L22.982,11.1262311 Z" id="Shape"></path>
                <path d="M19.3693828,2.58054778 C19.6044808,2.71740487 19.6845142,3.01815256 19.5477905,3.25469568 L18.098502,5.68433145 C20.0293075,7.12048611 21.2898333,9.43185032 21.2898333,12.0473414 L5.70833333,12.0473414 C5.70833333,9.43185032 6.96885918,7.12048611 8.89966463,5.68433145 L7.50054932,3.25469568 C7.36716034,3.01815256 7.44719373,2.71740487 7.67895707,2.58054778 C7.75565574,2.53492875 7.84069121,2.51465363 7.92239196,2.51465363 C8.09079554,2.51465363 8.25419704,2.6025125 8.3442346,2.76133431 L9.71833949,5.14704064 C10.8404743,4.51682219 12.1276779,4.15524913 13.499917,4.15524913 C14.8738235,4.15524913 16.1610271,4.51682219 17.2798272,5.14873024 L18.7041052,2.7630239 C18.7941428,2.60420209 18.9575443,2.51465363 19.1259479,2.51465363 C19.2371054,2.52929677 19.3182503,2.55126149 19.3693828,2.58054778 Z M16.712,9.23535111 C17.3041667,9.23535111 17.7826667,8.75047111 17.7826667,8.15040889 C17.7826667,7.55034667 17.3041667,7.06546667 16.712,7.06546667 C16.1198333,7.06546667 15.6413333,7.55034667 15.6413333,8.15040889 C15.6413333,8.75047111 16.1198333,9.23535111 16.712,9.23535111 L16.712,9.23535111 Z M10.288,9.23535111 C10.8801667,9.23535111 11.3586667,8.75047111 11.3586667,8.15040889 C11.3586667,7.55034667 10.8801667,7.06546667 10.288,7.06546667 C9.69583333,7.06546667 9.21733333,7.55034667 9.21733333,8.15040889 C9.21733333,8.75047111 9.69583333,9.23535111 10.288,9.23535111 L10.288,9.23535111 Z M17.7349548,1.69246582 L17.0932882,2.81827915 C15.9016215,2.29252804 14.8053333,2.07190918 13.5,2.07190918 C12.1946667,2.07190918 11.1317998,2.29438582 9.9382998,2.82199471 L9.2947998,1.69246582 C9.03446647,1.23731026 7.83276393,0.603175835 6.89864795,1.20804251 C5.91714478,1.84359375 5.79498128,2.88326781 6.18914795,3.58550781 L6.89864795,4.8320767 C5.18463135,6.35618652 4.11859131,8.70687988 4.01433333,10.9720356 L4.01433333,11.9009244 L4.931,11.9009244 L22.0635,11.9009244 L22.9801667,11.9009244 L22.9801667,10.9720356 C22.8317871,8.45333008 21.7490845,6.45509237 20.0719659,4.82650337 L20.7796326,3.58550781 C20.9739659,3.24553448 21.1457323,2.01049316 20.0719659,1.31821777 C18.9981995,0.625942383 17.9934548,1.23731026 17.7349548,1.69246582 Z" id="Shape"></path>
            </g>
        </g>
    </g>
</svg>