<?xml version="1.0" encoding="UTF-8"?>
<svg width="28px" height="35px" viewBox="0 0 28 35" version="1.1" xmlns="http://www.w3.org/2000/svg" xmlns:xlink="http://www.w3.org/1999/xlink">
    <!-- Generator: Sketch 47.1 (45422) - http://www.bohemiancoding.com/sketch -->
    <title>android-rcs</title>
    <desc>Created with Sketch.</desc>
    <defs></defs>
    <g id="Staging" stroke="none" stroke-width="1" fill="none" fill-rule="evenodd">
        <g id="android-rcs" fill="#315FCE">
            <path d="M2.91497976,10.4492754 C1.29492777,10.4492754 0.000578402411,11.8388737 5.9582434e-08,13.5305142 L0,17.0795593 L0,22.2971827 C0.000578426326,23.9891036 1.29495091,25.3787701 2.91497976,25.3787701 C4.5350086,25.3787701 5.82938109,23.9891036 5.82995945,22.2975312 L5.82995951,18.7484391 L5.82995951,13.5308628 C5.82938111,11.8388737 4.53503174,10.4492754 2.91497976,10.4492754 L2.91497976,12.4398747 C3.44092704,12.4398747 3.88643014,12.9181616 3.88663974,13.5312113 L3.88663968,17.0795593 L3.88663968,22.2971827 C3.88643015,22.9098289 3.44088969,23.3881708 2.91497976,23.3881708 C2.38906982,23.3881708 1.94352937,22.9098289 1.94331978,22.2968341 L1.94331984,18.7484391 L1.94331984,13.5308628 C1.94352937,12.9181616 2.38903247,12.4398747 2.91497976,12.4398747 L2.91497976,10.4492754 Z" id="Fill-1" fill-rule="nonzero"></path>
            <path d="M24.9392494,10.4492754 C26.5592962,10.4492754 27.8537369,11.8389128 27.854251,13.5305529 L27.854251,18.7484391 L27.854251,22.2974925 C27.8537369,23.9890645 26.5592731,25.3787701 24.9392494,25.3787701 C23.6520512,25.3787701 22.5704965,24.5014677 22.1801456,23.2924823 L22.0242915,23.2924823 L22.0242915,12.5355631 L22.1801347,12.5355631 C22.5704731,11.3265475 23.6520234,10.4492754 24.9392494,10.4492754 Z M24.9392494,12.4398747 C24.4133211,12.4398747 23.9678851,12.9181214 23.9676988,13.5311726 L23.9676113,13.8190993 L23.9676113,22.0089697 L23.9676988,22.2968728 C23.9678851,22.9098691 24.4133585,23.3881708 24.9392494,23.3881708 C25.4651615,23.3881708 25.9107449,22.909803 25.9109312,22.2971827 L25.9109312,13.5310404 C25.9106809,12.9181187 25.4651611,12.4398747 24.9392494,12.4398747 Z" id="Fill-3" fill-rule="nonzero"></path>
            <path d="M6.86246376,28.2694187 C5.22477212,28.2694187 3.88663968,26.9064671 3.88663968,25.2327682 L3.88663968,10.7810419 L23.9676113,10.7810419 L23.9676113,25.2327682 C23.9676113,26.9064813 22.6295551,28.2694187 20.9918324,28.2694187 L20.2744778,28.2694187 L20.2744778,28.4930624 L20.2744778,31.9645396 C20.2738057,33.6423477 18.9404403,35 17.2986537,35 C15.6568513,35 14.3235239,33.6423863 14.3227845,31.9641312 L14.3227845,28.2694187 L13.5314665,28.2694187 L13.5314665,28.4930624 L13.5314664,31.9644988 C13.5308615,33.642332 12.1974808,35 10.5556424,35 C8.91378703,35 7.5804012,33.6423057 7.57986347,31.9641312 L7.57986347,28.2694187 L6.86246376,28.2694187 Z M5.82995951,25.2327682 C5.82995951,25.8045593 6.29558338,26.2788194 6.86246376,26.2788194 L9.52318331,26.2788194 L9.52318331,28.4930624 L9.52318325,31.9638045 C9.5233679,32.5400077 9.98435683,33.0094007 10.5556424,33.0094007 C11.126931,33.0094007 11.587939,32.5399956 11.5881467,31.9641312 L11.5881467,26.2788194 L16.2661044,26.2788194 L16.2661044,28.4930624 L16.2661043,31.963682 C16.2663582,32.5399873 16.7273743,33.0094007 17.2986537,33.0094007 C17.8699039,33.0094007 18.3309272,32.53998 18.331158,31.9641312 L18.331158,26.2788194 L20.9918324,26.2788194 C21.5587237,26.2788194 22.0242915,25.8045944 22.0242915,25.2327682 L22.0242915,12.7716412 L5.82995951,12.7716412 L5.82995951,25.2327682 Z" id="Fill-5" fill-rule="nonzero"></path>
            <path d="M10.3643725,6.46807677 C10.9009792,6.46807677 11.3360324,6.91367349 11.3360324,7.4634028 C11.3360324,8.01307935 10.9009792,8.45867607 10.3643725,8.45867607 C9.82776571,8.45867607 9.39271255,8.01307935 9.39271255,7.4634028 C9.39271255,6.91367349 9.82776571,6.46807677 10.3643725,6.46807677 L10.3643725,6.46807677 Z" id="Fill-7"></path>
            <path d="M17.8137652,6.46807677 C18.3504004,6.46807677 18.7854251,6.91367349 18.7854251,7.4634028 C18.7854251,8.01307935 18.3504004,8.45867607 17.8137652,8.45867607 C17.27713,8.45867607 16.8421053,8.01307935 16.8421053,7.4634028 C16.8421053,6.91367349 17.27713,6.46807677 17.8137652,6.46807677 L17.8137652,6.46807677 Z" id="Fill-7"></path>
            <path d="M23.8228926,9.74212206 C23.886801,10.0534263 23.933672,10.3686143 23.9632415,10.6869044 L23.9676113,10.7339422 L23.9676113,12.7716412 L3.92817703,12.7716412 L3.89315446,11.8135847 C3.8888745,11.6965045 3.88663968,11.5940616 3.88663968,11.4932821 C3.88663968,10.7860034 3.97228113,10.0877637 4.14011951,9.40783648 C4.69055112,7.17814046 6.10932562,5.23540861 8.081177,3.92436435 L7.134292,2.12821816 C6.7941633,1.48310773 7.0270316,0.676697807 7.65577368,0.326427031 C8.28713983,-0.0258618154 9.07649257,0.215304884 9.41786335,0.862586324 L10.4217203,2.76678487 C11.5371392,2.38077148 12.7258149,2.17988414 13.9438369,2.17988414 C15.1513656,2.17988414 16.33009,2.37748867 17.4375522,2.75734212 L18.4364084,0.862632832 C18.7775995,0.215351281 19.5669527,-0.0258496591 20.1980137,0.326168476 C20.8271768,0.676774149 21.0600817,1.48311912 20.7199693,2.12819866 L19.7817383,3.90780399 C21.8669327,5.28532753 23.3348891,7.36564121 23.8228926,9.74212206 Z M21.9211764,10.1518124 C21.4928517,8.06595532 20.0668122,6.24363317 18.0333575,5.168904 L17.7750285,5.03237103 L17.5027818,4.91205992 C16.4042584,4.42660123 15.1952597,4.17048344 13.9438369,4.17048344 C12.6827217,4.17048344 11.4648189,4.43032182 10.3604075,4.92251505 L9.54191763,5.28728419 L9.11789372,4.48296074 L7.70800772,1.80857291 C7.8774676,2.1298899 8.27076029,2.2500505 8.58481208,2.07481606 C8.89726899,1.9007469 9.01253146,1.5015994 8.84420456,1.18233954 L10.7065758,4.71507169 L9.83088135,5.18146538 C7.89569994,6.21214035 6.51097253,7.92376091 6.02414132,9.89582356 C5.95224311,10.1870892 5.90005541,10.4824908 5.8680051,10.7810418 L22.0192136,10.7810419 C21.9965027,10.5691844 21.963779,10.3593338 21.9211764,10.1518124 Z" id="Fill-7" fill-rule="nonzero"></path>
        </g>
    </g>
</svg>