<?xml version="1.0" encoding="UTF-8"?>
<svg width="41px" height="20px" viewBox="0 0 41 20" version="1.1" xmlns="http://www.w3.org/2000/svg" xmlns:xlink="http://www.w3.org/1999/xlink">
    <!-- Generator: Sketch 47.1 (45422) - http://www.bohemiancoding.com/sketch -->
    <title>Combined Shape</title>
    <desc>Created with Sketch.</desc>
    <defs></defs>
    <g id="Staging" stroke="none" stroke-width="1" fill="none" fill-rule="evenodd">
        <path d="M13.4884689,16.4745787 L15.9792964,19.393656 C15.9978706,19.4219104 16.0176705,19.449686 16.0387052,19.4769178 C16.351227,19.8815138 16.8541196,20.0596642 17.3305451,19.9823488 C17.5673206,19.946865 17.7975549,19.8491764 17.9946124,19.6869926 C18.0186148,19.6672379 18.041744,19.64684 18.0639957,19.625846 L40.4682217,2.85659142 C41.0602842,2.41344078 41.1754233,1.58189088 40.7253919,0.999272717 C40.2753606,0.416654557 39.4305767,0.303593792 38.8385141,0.746744429 L17.3330892,16.8432588 L17.3330892,16.8432588 L15.6426618,14.862195 L31.6825074,2.85659142 C32.2745699,2.41344078 32.389709,1.58189088 31.9396777,0.999272717 C31.4896463,0.416654557 30.6448624,0.303593792 30.0527999,0.746744429 L13.90884,12.830276 L11.174764,9.62612829 C10.6954217,9.06437224 9.84262406,8.99103998 9.26998726,9.46233611 C8.69735046,9.93363225 8.62172039,10.7710865 9.10106275,11.3328426 L11.7546472,14.4426597 L8.54737488,16.8432588 L2.38904976,9.62612829 C1.90970739,9.06437224 1.05690977,8.99103998 0.484272976,9.46233611 C-0.0883638219,9.93363225 -0.1639939,10.7710865 0.315348469,11.3328426 L7.19358213,19.393656 C7.21215635,19.4219104 7.23195626,19.449686 7.25299087,19.4769178 C7.5655127,19.8815138 8.06840532,20.0596642 8.54483078,19.9823488 C8.78160627,19.946865 9.01184063,19.8491764 9.20889815,19.6869926 C9.23290053,19.6672379 9.25602971,19.64684 9.27828142,19.625846 L13.4884689,16.4745787 Z" id="Combined-Shape" fill="#315FCE" fill-rule="nonzero"></path>
    </g>
</svg>