<?xml version="1.0" encoding="UTF-8"?>
<svg width="32px" height="37px" viewBox="0 0 32 37" version="1.1" xmlns="http://www.w3.org/2000/svg" xmlns:xlink="http://www.w3.org/1999/xlink">
    <!-- Generator: Sketch 47.1 (45422) - http://www.bohemiancoding.com/sketch -->
    <title>time</title>
    <desc>Created with Sketch.</desc>
    <defs></defs>
    <g id="Page-1" stroke="none" stroke-width="1" fill="none" fill-rule="evenodd">
        <g id="time" fill-rule="nonzero" fill="#315FCE">
            <path d="M26.8,9.6 C28.4,11.2 29.6,12.9 30.5,14.8 C31.4,16.7 31.8,18.8 31.8,21 C31.8,22.5 31.6,23.9 31.2,25.2 C30.8,26.5 30.3,27.8 29.6,29 C28.9,30.2 28.1,31.2 27.1,32.2 C26.1,33.2 25.1,34 23.9,34.7 C22.7,35.4 21.5,35.9 20.1,36.3 C18.7,36.7 17.4,36.9 15.9,36.9 C14.4,36.9 13,36.7 11.7,36.3 C10.4,35.9 9.1,35.4 7.9,34.7 C6.7,34 5.7,33.2 4.7,32.2 C3.7,31.2 2.9,30.2 2.2,29 C1.5,27.8 1,26.6 0.6,25.2 C0.2,23.8 0.2,22.5 0.2,21 C0.2,19.7 0.4,18.4 0.7,17.2 C1,16 1.5,14.8 2,13.7 C2.5,12.6 3.3,11.6 4.1,10.7 C4.9,9.8 5.8,8.9 6.8,8.2 C7.8,7.5 8.9,6.9 10.1,6.4 C11.3,5.9 12.5,5.6 13.8,5.4 L13.8,3 L9.3,3 L9.3,0.8 L20.6,0.8 L20.6,3 L16,3 L16,5.2 C17.6,5.2 19.2,5.4 20.8,5.9 C22.4,6.4 23.8,7.1 25.1,8 L28.8,4.3 L30.4,5.9 L26.8,9.6 Z M16,34.5 C17.9,34.5 19.6,34.1 21.2,33.4 C22.8,32.7 24.3,31.7 25.5,30.5 C26.7,29.3 27.7,27.8 28.4,26.2 C29.1,24.6 29.5,22.8 29.5,21 C29.5,19.2 29.1,17.4 28.4,15.8 C27.7,14.2 26.7,12.7 25.5,11.5 C24.3,10.3 22.8,9.3 21.2,8.6 C19.6,7.9 17.9,7.5 16,7.5 C14.1,7.5 12.4,7.9 10.8,8.6 C9.2,9.3 7.7,10.3 6.5,11.5 C5.3,12.7 4.3,14.2 3.6,15.8 C2.9,17.4 2.5,19.2 2.5,21 C2.5,22.8 2.9,24.6 3.6,26.2 C4.3,27.8 5.3,29.3 6.5,30.5 C7.7,31.7 9.2,32.7 10.8,33.4 C12.4,34.1 14.1,34.5 16,34.5 Z M22.7,21 L22.7,23.2 L13.7,23.2 L13.7,12 L16,12 L16,21 L22.7,21 Z" id="Shape"></path>
        </g>
    </g>
</svg>