<?xml version="1.0" encoding="UTF-8"?>
<svg width="36px" height="37px" viewBox="0 0 36 37" version="1.1" xmlns="http://www.w3.org/2000/svg" xmlns:xlink="http://www.w3.org/1999/xlink">
    <!-- Generator: Sketch 47.1 (45422) - http://www.bohemiancoding.com/sketch -->
    <title>transacao</title>
    <desc>Created with Sketch.</desc>
    <defs></defs>
    <g id="Page-1" stroke="none" stroke-width="1" fill="none" fill-rule="evenodd">
        <g id="transacao" fill-rule="nonzero" fill="#315FCE">
            <path d="M18,34.5 C19.8,34.5 21.5,34.2 23.2,33.7 C24.9,33.2 26.4,32.4 27.7,31.3 C29.1,30.3 30.3,29.1 31.3,27.6 C32.3,26.1 33.1,24.6 33.6,22.9 L35.7,23.6 C35.1,25.6 34.2,27.3 33.1,29 C31.9,30.6 30.6,32 29,33.2 C27.4,34.4 25.7,35.3 23.8,35.9 C21.9,36.5 20,36.9 17.9,36.9 C16.3,36.9 14.7,36.7 13.2,36.3 C11.7,35.9 10.2,35.3 8.9,34.6 C7.6,33.9 6.3,32.9 5.1,31.8 C4,30.7 3,29.5 2.1,28.1 L2.1,32.4 L0,32.4 L0,23.4 L9,23.4 L9,25.6 L3.4,25.6 C4.1,26.9 5,28.1 6,29.3 C7,30.5 8.2,31.4 9.4,32.1 C10.6,32.8 12,33.5 13.5,33.9 C15,34.3 16.5,34.5 18,34.5 Z M36,5.3 L36,14.3 L27,14.3 L27,12 L32.6,12 C31.9,10.6 31.1,9.4 30,8.3 C29,7.2 27.8,6.2 26.6,5.5 C25.4,4.8 24,4.1 22.5,3.7 C21,3.3 19.5,3 18,3 C16.2,3 14.5,3.3 12.8,3.8 C11.1,4.3 9.6,5.1 8.3,6.2 C7,7.3 5.7,8.4 4.7,9.9 C3.7,11.4 2.9,12.9 2.4,14.6 L0.2,14 C0.8,12.1 1.7,10.3 2.8,8.7 C3.9,7.1 5.3,5.7 6.9,4.5 C8.5,3.3 10.2,2.4 12.1,1.8 C14,1.2 15.9,0.8 18,0.8 C19.6,0.8 21.2,1 22.7,1.4 C24.2,1.8 25.7,2.4 27,3.1 C28.3,3.8 29.6,4.8 30.8,5.9 C31.9,7 32.9,8.2 33.8,9.6 L33.8,5.3 L36,5.3 Z" id="Shape"></path>
        </g>
    </g>
</svg>