<?xml version="1.0" encoding="UTF-8"?>
<svg width="126px" height="13px" viewBox="0 0 126 13" version="1.1" xmlns="http://www.w3.org/2000/svg" xmlns:xlink="http://www.w3.org/1999/xlink">
    <!-- Generator: Sketch 47.1 (45422) - http://www.bohemiancoding.com/sketch -->
    <title>chatclub</title>
    <desc>Created with Sketch.</desc>
    <defs>
        <polygon id="path-1" points="11.6244947 13 0.0817146076 13 0.0817146076 0.0235798742 11.6244947 0.0235798742 11.6244947 13"></polygon>
        <polygon id="path-3" points="11.4183187 13 0.057588077 13 0.057588077 0.0235798742 11.4183187 0.0235798742 11.4183187 13"></polygon>
        <polygon id="path-5" points="10.29227 12.621373 10.29227 0.0751465409 0.00573887528 0.0751465409 0.00573887528 12.621373 10.29227 12.621373"></polygon>
    </defs>
    <g id="Staging" stroke="none" stroke-width="1" fill="none" fill-rule="evenodd">
        <g id="Home-v9-(screens)" transform="translate(-192.000000, -25.000000)">
            <g id="Menu" transform="translate(192.000000, 25.000000)">
                <g id="chatclub">
                    <polygon id="Fill-1" fill="#FFFFFF" points="0 0 0 13 9 13 9 10.1383648 2.89285714 10.1383648 2.89285714 3.02523899 9 3.02523899 9 0"></polygon>
                    <path d="M11,0 L11,3.00871942 L17.0810811,3.00871942 L17.0810811,10.0830034 L12.9678378,10.0830034 L11.0479189,12.9290124 L20,12.9290124 L20,0 L11,0 Z M11,12.9290124 L11,13.0163124 L11.0591,12.9290124 L11,12.9290124 Z" id="Fill-2" fill="#FFFFFF"></path>
                    <g id="Group-22" transform="translate(28.000000, 0.000000)">
                        <g id="Group-5">
                            <mask id="mask-2" fill="white">
                                <use xlink:href="#path-1"></use>
                            </mask>
                            <g id="Clip-4"></g>
                            <path d="M0.0817146076,6.54761761 L0.0817146076,6.51180629 C0.0817146076,2.94506415 2.812705,0.0235798742 6.72693353,0.0235798742 C8.6386185,0.0235798742 9.93131884,0.525510692 10.9873217,1.29618994 C11.2785011,1.51122138 11.53347,1.90555472 11.53347,2.38957987 C11.53347,3.1422717 10.9144853,3.73364906 10.1497449,3.73364906 C9.76754081,3.73364906 9.51248891,3.59032201 9.31233422,3.46481887 C8.52940546,2.89126541 7.71001699,2.56863648 6.7087452,2.56863648 C4.56044583,2.56863648 3.01285969,4.32518994 3.01285969,6.47591321 L3.01285969,6.51180629 C3.01285969,8.66261132 4.52406916,10.4548943 6.7087452,10.4548943 C7.89214945,10.4548943 8.67499516,10.0964541 9.47611225,9.46902013 C9.69470443,9.28988176 9.98588383,9.16437862 10.3136891,9.16437862 C11.0236984,9.16437862 11.6244947,9.73793208 11.6244947,10.4369887 C11.6244947,10.8670516 11.4061517,11.2076679 11.1510998,11.4226994 C10.0041552,12.4085736 8.65680683,13.0000327 6.61772049,13.0000327 C2.86726999,13.0000327 0.0817146076,10.1502528 0.0817146076,6.54761761" id="Fill-3" fill="#FFFFFF" mask="url(#mask-2)"></path>
                        </g>
                        <path d="M13.3551684,1.51125409 C13.3551684,0.740574843 13.974153,0.131210063 14.7569157,0.131210063 C15.5397614,0.131210063 16.158746,0.740574843 16.158746,1.51125409 L16.158746,5.20341761 L21.3292982,5.20341761 L21.3292982,1.51125409 C21.3292982,0.740574843 21.9482828,0.131210063 22.7312946,0.131210063 C23.5140573,0.131210063 24.1330419,0.740574843 24.1330419,1.51125409 L24.1330419,11.5123421 C24.1330419,12.2830214 23.5140573,12.8923862 22.7312946,12.8923862 C21.9482828,12.8923862 21.3292982,12.2830214 21.3292982,11.5123421 L21.3292982,7.74847421 L16.158746,7.74847421 L16.158746,11.5123421 C16.158746,12.2830214 15.5397614,12.8923862 14.7569157,12.8923862 C13.974153,12.8923862 13.3551684,12.2830214 13.3551684,11.5123421 L13.3551684,1.51125409 Z" id="Fill-6" fill="#FFFFFF"></path>
                        <path d="M34.0018643,7.53345912 L32.2358521,3.39308176 L30.4699229,7.53345912 L34.0018643,7.53345912 Z M26.11851,11.0105094 L30.5608646,1.13484277 C30.8704815,0.453773585 31.4349011,0.0416163522 32.1994754,0.0416163522 L32.3632535,0.0416163522 C33.1278278,0.0416163522 33.6740591,0.453773585 33.983676,1.13484277 L38.4260305,11.0105094 C38.5169722,11.2076352 38.5716202,11.3868553 38.5716202,11.5661572 C38.5716202,12.3009434 37.9890123,12.8924025 37.2426263,12.8924025 C36.5870158,12.8924025 36.1502467,12.5159748 35.8951948,11.9425031 L35.0396789,9.97091824 L29.4321084,9.97091824 L28.5401327,12.0320314 C28.3032691,12.5698553 27.8299573,12.8924025 27.2472663,12.8924025 C26.5191516,12.8924025 25.954732,12.3188491 25.954732,11.6019686 C25.954732,11.4048428 26.0274853,11.2076352 26.11851,11.0105094 L26.11851,11.0105094 Z" id="Fill-8" fill="#FFFFFF"></path>
                        <path d="M42.0134339,2.78381509 L39.3189032,2.78381509 C38.6088939,2.78381509 38.0262859,2.21017987 38.0262859,1.51128679 C38.0262859,0.812230189 38.6088939,0.23867673 39.3189032,0.23867673 L47.5116252,0.23867673 C48.2215515,0.23867673 48.8041594,0.812230189 48.8041594,1.51128679 C48.8041594,2.21017987 48.2215515,2.78381509 47.5116252,2.78381509 L44.8171776,2.78381509 L44.8171776,11.5123748 C44.8171776,12.2830541 44.1980269,12.8924189 43.4151811,12.8924189 C42.6324185,12.8924189 42.0134339,12.2830541 42.0134339,11.5123748 L42.0134339,2.78381509 Z" id="Fill-10" fill="#FFFFFF"></path>
                        <g id="Group-14" transform="translate(50.495458, 0.000000)">
                            <mask id="mask-4" fill="white">
                                <use xlink:href="#path-3"></use>
                            </mask>
                            <g id="Clip-13"></g>
                            <path d="M0.057588077,6.54761761 L0.057588077,6.51180629 C0.057588077,2.96305157 2.75211875,0.0235798742 6.5024862,0.0235798742 C8.55992697,0.0235798742 9.87064954,0.686743396 11.0540538,1.65463019 C11.1996435,1.78013333 11.3452332,1.97725912 11.3452332,2.22818365 C11.3452332,2.60461132 10.9994888,2.92724025 10.6171186,2.92724025 C10.4168808,2.92724025 10.2531028,2.83754843 10.1436406,2.76584403 C9.16064021,1.90555472 8.05007234,1.33200126 6.48429787,1.33200126 C3.66236583,1.33200126 1.55060922,3.59032201 1.55060922,6.47591321 L1.55060922,6.51180629 C1.55060922,9.41530314 3.68055416,11.6915296 6.48429787,11.6915296 C8.06834372,11.6915296 9.1789116,11.1538692 10.2712911,10.1680767 C10.3804211,10.0606428 10.5442822,9.97095094 10.7262486,9.97095094 C11.0904305,9.97095094 11.4183187,10.2934981 11.4183187,10.6521019 C11.4183187,10.8670516 11.3088565,11.0463535 11.1814552,11.1538692 C9.92529759,12.2829887 8.54165559,13.0000327 6.44792121,13.0000327 C2.77039013,13.0000327 0.057588077,10.1502528 0.057588077,6.54761761" id="Fill-12" fill="#FFFFFF" mask="url(#mask-4)"></path>
                        </g>
                        <path d="M64.5543573,0.86594717 C64.5543573,0.471695597 64.8821625,0.149066667 65.2643666,0.149066667 C65.6649252,0.149066667 65.9927304,0.471695597 65.9927304,0.86594717 L65.9927304,11.4764 L72.6014896,11.4764 C72.9656715,11.4764 73.2568509,11.7812868 73.2568509,12.139727 C73.2568509,12.4981673 72.9656715,12.7849031 72.6014896,12.7849031 L65.2643666,12.7849031 C64.8821625,12.7849031 64.5543573,12.4622742 64.5543573,12.0679409 L64.5543573,0.86594717 Z" id="Fill-15" fill="#FFFFFF"></path>
                        <path d="M74.8963255,7.53345912 L74.8963255,0.865930818 C74.8963255,0.471679245 75.2238815,0.149132075 75.6063348,0.149132075 C76.0068934,0.149132075 76.3344494,0.471679245 76.3344494,0.865930818 L76.3344494,7.4437673 C76.3344494,10.1502201 77.8092822,11.673673 80.2306557,11.673673 C82.5792759,11.673673 84.0719648,10.2756415 84.0719648,7.53345912 L84.0719648,0.865930818 C84.0719648,0.471679245 84.3998531,0.149132075 84.8004117,0.149132075 C85.1826158,0.149132075 85.510421,0.471679245 85.510421,0.865930818 L85.510421,7.42586164 C85.510421,11.0821321 83.3802269,12.9820943 80.1942791,12.9820943 C77.0444587,12.9820943 74.8963255,11.0821321 74.8963255,7.53345912" id="Fill-17" fill="#FFFFFF"></path>
                        <g id="Group-21" transform="translate(87.453483, 0.163522)">
                            <mask id="mask-6" fill="white">
                                <use xlink:href="#path-5"></use>
                            </mask>
                            <g id="Clip-20"></g>
                            <path d="M5.70433406,11.3488447 C7.6341243,11.3488447 8.83571689,10.506461 8.83571689,9.10851132 L8.83571689,9.07261824 C8.83571689,7.71047987 7.67050097,6.92181321 5.44928216,6.92181321 L1.42592364,6.92181321 L1.42592364,11.3488447 L5.70433406,11.3488447 Z M5.19447942,5.66727233 C6.92411497,5.66727233 8.12570756,4.89651132 8.12570756,3.42677547 L8.12570756,3.39096415 C8.12570756,2.15424717 7.12426967,1.3477566 5.30369246,1.3477566 L1.42592364,1.3477566 L1.42592364,5.66727233 L5.19447942,5.66727233 Z M0.00573887528,0.792190566 C0.00573887528,0.397775472 0.333627147,0.0751465409 0.715748206,0.0751465409 L5.43109383,0.0751465409 C6.88773831,0.0751465409 8.03468285,0.487467296 8.76288051,1.18644214 C9.29092348,1.72410252 9.58226899,2.38726604 9.58226899,3.19383836 L9.58226899,3.22956792 C9.58226899,4.8607 8.56272582,5.70308365 7.56128793,6.13314654 C9.0724974,6.58127862 10.2922783,7.44156792 10.2922783,9.1622283 L10.2922783,9.19803962 C10.2922783,11.3488447 8.45351278,12.621373 5.6679574,12.621373 L0.715748206,12.621373 C0.333627147,12.621373 0.00573887528,12.298744 0.00573887528,11.9044107 L0.00573887528,0.792190566 Z" id="Fill-19" fill="#FFFFFF" mask="url(#mask-6)"></path>
                        </g>
                    </g>
                </g>
            </g>
        </g>
    </g>
</svg>