<?xml version="1.0" encoding="UTF-8"?>
<svg width="130px" height="33px" viewBox="0 0 130 33" version="1.1" xmlns="http://www.w3.org/2000/svg" xmlns:xlink="http://www.w3.org/1999/xlink">
    <!-- Generator: Sketch 47.1 (45422) - http://www.bohemiancoding.com/sketch -->
    <title>Page 1</title>
    <desc>Created with Sketch.</desc>
    <defs>
        <polygon id="path-1" points="9.44155431 11.4849326 9.44155431 0.0743456522 0.0654138577 0.0743456522 0.0654138577 11.4849326 9.44155431 11.4849326"></polygon>
    </defs>
    <g id="Staging" stroke="none" stroke-width="1" fill="none" fill-rule="evenodd">
        <g id="Page-1">
            <path d="M33.3530824,16.380913 C33.3530824,25.4279348 25.8868464,32.7618261 16.6765655,32.7618261 C7.46628464,32.7618261 4.86891386e-05,25.4279348 4.86891386e-05,16.380913 C4.86891386e-05,7.3338913 7.46628464,0 16.6765655,0 C25.8868464,0 33.3530824,7.3338913 33.3530824,16.380913" id="Fill-1" fill="#315FCE"></path>
            <polygon id="Fill-3" fill="#FFFFFF" points="7.60536517 10.3650609 15.8825187 10.3650609 15.8825187 12.9954957 10.2832678 12.9954957 10.2832678 19.212887 15.8825187 19.212887 15.8825187 22.0824522 7.60536517 22.0824522"></polygon>
            <polygon id="Fill-5" fill="#FFFFFF" points="25.8637921 10.3650609 17.0997472 10.3650609 17.0997472 12.9954957 22.9424438 12.9954957 22.9424438 19.212887 19.1982491 19.212887 17.0997472 22.010713 17.0997472 22.0824522 25.8637921 22.0824522"></polygon>
            <path d="M40.9265075,16.3349043 L40.9265075,16.3023826 C40.9265075,13.0585783 43.4159831,10.4016 46.9836798,10.4016 C48.726264,10.4016 49.9045412,10.8578609 50.866882,11.5587522 C51.1324813,11.7546 51.3649719,12.1130565 51.3649719,12.5532957 C51.3649719,13.237687 50.8006648,13.7757304 50.1034363,13.7757304 C49.755309,13.7757304 49.5228184,13.6454043 49.3404775,13.5311 C48.6266948,13.0095565 47.8798034,12.7161435 46.966882,12.7161435 C45.0090918,12.7161435 43.598324,14.3137739 43.598324,16.2698609 L43.598324,16.3023826 C43.598324,18.2584696 44.9757397,19.8883826 46.966882,19.8883826 C48.0455899,19.8883826 48.7593727,19.5624478 49.4894663,18.9918826 C49.6888483,18.8290348 49.9542041,18.7147304 50.2531554,18.7147304 C50.9002341,18.7147304 51.4477434,19.236513 51.4477434,19.8721217 C51.4477434,20.2633391 51.2486049,20.5732522 51.0161142,20.7688609 C49.9707584,21.6653609 48.7425749,22.2031652 46.8841105,22.2031652 C43.4656461,22.2031652 40.9265075,19.6114696 40.9265075,16.3349043" id="Fill-7" fill="#525252"></path>
            <path d="M53.0253446,11.7545283 C53.0253446,11.0533978 53.5894082,10.4993326 54.3029476,10.4993326 C55.0164869,10.4993326 55.580794,11.0533978 55.580794,11.7545283 L55.580794,15.1123978 L60.2936592,15.1123978 L60.2936592,11.7545283 C60.2936592,11.0533978 60.8579663,10.4993326 61.5715056,10.4993326 C62.2850449,10.4993326 62.8493521,11.0533978 62.8493521,11.7545283 L62.8493521,20.8503326 C62.8493521,21.5512239 62.2850449,22.1052891 61.5715056,22.1052891 C60.8579663,22.1052891 60.2936592,21.5512239 60.2936592,20.8503326 L60.2936592,17.4269413 L55.580794,17.4269413 L55.580794,20.8503326 C55.580794,21.5512239 55.0164869,22.1052891 54.3029476,22.1052891 C53.5894082,22.1052891 53.0253446,21.5512239 53.0253446,20.8503326 L53.0253446,11.7545283 Z" id="Fill-9" fill="#525252"></path>
            <path d="M71.8445974,17.2315239 L70.2351779,13.465937 L68.6252715,17.2315239 L71.8445974,17.2315239 Z M64.6590543,20.3937848 L68.7082865,11.4120457 C68.9904401,10.7926978 69.5050843,10.4177413 70.2018258,10.4177413 L70.3510581,10.4177413 C71.0482865,10.4177413 71.5458895,10.7926978 71.8282865,11.4120457 L75.8772753,20.3937848 C75.9602903,20.5731326 76.0099532,20.7359804 76.0099532,20.8990674 C76.0099532,21.567437 75.4789981,22.1052413 74.7988109,22.1052413 C74.2011517,22.1052413 73.8028745,21.7630457 73.5706273,21.2415022 L72.7906273,19.4485022 L67.679485,19.4485022 L66.8663764,21.3228065 C66.6504401,21.8118283 66.2190543,22.1052413 65.6878558,22.1052413 C65.0242228,22.1052413 64.5098221,21.5836978 64.5098221,20.9318283 C64.5098221,20.7524804 64.5762828,20.5731326 64.6590543,20.3937848 L64.6590543,20.3937848 Z" id="Fill-11" fill="#525252"></path>
            <path d="M79.1472378,12.9117761 L76.6911142,12.9117761 C76.0440356,12.9117761 75.5128371,12.3902326 75.5128371,11.7546239 C75.5128371,11.1187761 76.0440356,10.5969935 76.6911142,10.5969935 L84.1588109,10.5969935 C84.8058895,10.5969935 85.337088,11.1187761 85.337088,11.7546239 C85.337088,12.3902326 84.8058895,12.9117761 84.1588109,12.9117761 L81.7029307,12.9117761 L81.7029307,20.8501891 C81.7029307,21.5510804 81.1386236,22.1053848 80.4248408,22.1053848 C79.7113015,22.1053848 79.1472378,21.5510804 79.1472378,20.8501891 L79.1472378,12.9117761 Z" id="Fill-13" fill="#525252"></path>
            <path d="M86.9310974,16.3349043 L86.9310974,16.3023826 C86.9310974,13.0748391 89.387221,10.4016 92.8056854,10.4016 C94.6809476,10.4016 95.875779,11.004687 96.9544869,11.8849261 C97.0871648,11.9989913 97.2198427,12.1783391 97.2198427,12.4064696 C97.2198427,12.7489043 96.9045805,13.0420783 96.5559663,13.0420783 C96.3736255,13.0420783 96.2243933,12.9607739 96.1245805,12.8954913 C95.2284569,12.1130565 94.2162097,11.591513 92.7888876,11.591513 C90.2168839,11.591513 88.2919588,13.6454043 88.2919588,16.2698609 L88.2919588,16.3023826 C88.2919588,18.9431 90.2331948,21.0132522 92.7888876,21.0132522 C94.232764,21.0132522 95.2450112,20.5242304 96.2407041,19.6277304 C96.3402734,19.5299261 96.4897491,19.4483826 96.6555356,19.4483826 C96.9875955,19.4483826 97.2863034,19.7417957 97.2863034,20.0677304 C97.2863034,20.2633391 97.1867341,20.4264261 97.070367,20.5242304 C95.9254419,21.5510565 94.6643933,22.2031652 92.7560225,22.2031652 C89.4037753,22.2031652 86.9310974,19.6114696 86.9310974,16.3349043" id="Fill-15" fill="#525252"></path>
            <path d="M99.6932022,11.1675587 C99.6932022,10.808863 99.9921536,10.51545 100.340281,10.51545 C100.705449,10.51545 101.004401,10.808863 101.004401,11.1675587 L101.004401,20.8174283 L107.028221,20.8174283 C107.360037,20.8174283 107.625637,21.0948196 107.625637,21.4207543 C107.625637,21.7466891 107.360037,22.0075804 107.028221,22.0075804 L100.340281,22.0075804 C99.9921536,22.0075804 99.6932022,21.7141674 99.6932022,21.3554717 L99.6932022,11.1675587 Z" id="Fill-17" fill="#525252"></path>
            <path d="M109.119833,17.2315239 L109.119833,11.1676543 C109.119833,10.8089587 109.418541,10.5155457 109.767155,10.5155457 C110.132081,10.5155457 110.430788,10.8089587 110.430788,11.1676543 L110.430788,17.1499804 C110.430788,19.61135 111.775096,20.9968717 113.982174,20.9968717 C116.123036,20.9968717 117.48341,19.7254152 117.48341,17.2315239 L117.48341,11.1676543 C117.48341,10.8089587 117.782361,10.5155457 118.14753,10.5155457 C118.495901,10.5155457 118.794609,10.8089587 118.794609,11.1676543 L118.794609,17.1337196 C118.794609,20.4590674 116.853129,22.1870239 113.949066,22.1870239 C111.07811,22.1870239 109.119833,20.4590674 109.119833,17.2315239" id="Fill-19" fill="#525252"></path>
            <g id="Group-23" transform="translate(120.505618, 10.522696)">
                <mask id="mask-2" fill="white">
                    <use xlink:href="#path-1"></use>
                </mask>
                <g id="Clip-22"></g>
                <path d="M5.25957116,10.3275413 C7.01870974,10.3275413 8.11397191,9.56136739 8.11397191,8.28991087 L8.11397191,8.25738913 C8.11397191,7.01845435 7.05181835,6.30130217 5.02732397,6.30130217 L1.35981461,6.30130217 L1.35981461,10.3275413 L5.25957116,10.3275413 Z M4.79507678,5.16017174 C6.37138764,5.16017174 7.46664981,4.45928043 7.46664981,3.12278043 L7.46664981,3.09001957 C7.46664981,1.96515 6.55372846,1.23173696 4.89440262,1.23173696 L1.35981461,1.23173696 L1.35981461,5.16017174 L4.79507678,5.16017174 Z M0.0654138577,0.726454348 C0.0654138577,0.367758696 0.364365169,0.0743456522 0.712492509,0.0743456522 L5.01076966,0.0743456522 C6.33827903,0.0743456522 7.38387828,0.449302174 8.04751124,1.08515 C8.52880337,1.57417174 8.79440262,2.1772587 8.79440262,2.91067174 L8.79440262,2.94343261 C8.79440262,4.4267587 7.86492697,5.19269348 6.95224906,5.58391087 C8.32966479,5.99162826 9.44172472,6.77406304 9.44172472,8.33893261 L9.44172472,8.37145435 C9.44172472,10.3275413 7.76560112,11.4849326 5.22646255,11.4849326 L0.712492509,11.4849326 C0.364365169,11.4849326 0.0654138577,11.1915196 0.0654138577,10.8328239 L0.0654138577,0.726454348 Z" id="Fill-21" fill="#525252" mask="url(#mask-2)"></path>
            </g>
        </g>
    </g>
</svg>