<?xml version="1.0" encoding="UTF-8"?>
<svg width="126px" height="13px" viewBox="0 0 126 13" version="1.1" xmlns="http://www.w3.org/2000/svg" xmlns:xlink="http://www.w3.org/1999/xlink">
    <!-- Generator: Sketch 47.1 (45422) - http://www.bohemiancoding.com/sketch -->
    <title>Group 16</title>
    <desc>Created with Sketch.</desc>
    <defs></defs>
    <g id="Staging" stroke="none" stroke-width="1" fill="none" fill-rule="evenodd">
        <g id="Group-16">
            <polygon id="Fill-1" fill="#315FCE" points="0 0 0 13 9 13 9 10.1383648 2.89285714 10.1383648 2.89285714 3.02523899 9 3.02523899 9 0"></polygon>
            <path d="M11,0 L11,3.00871942 L17.0810811,3.00871942 L17.0810811,10.0830034 L12.9678378,10.0830034 L11.0479189,12.9290124 L20,12.9290124 L20,0 L11,0 Z M11,12.9290124 L11,13.0163124 L11.0591,12.9290124 L11,12.9290124 Z" id="Fill-2" fill="#315FCE"></path>
            <path d="M28.0817146,6.54761761 L28.0817146,6.51180629 C28.0817146,2.94506415 30.812705,0.0235798742 34.7269335,0.0235798742 C36.6386185,0.0235798742 37.9313188,0.525510692 38.9873217,1.29618994 C39.2785011,1.51122138 39.53347,1.90555472 39.53347,2.38957987 C39.53347,3.1422717 38.9144853,3.73364906 38.1497449,3.73364906 C37.7675408,3.73364906 37.5124889,3.59032201 37.3123342,3.46481887 C36.5294055,2.89126541 35.710017,2.56863648 34.7087452,2.56863648 C32.5604458,2.56863648 31.0128597,4.32518994 31.0128597,6.47591321 L31.0128597,6.51180629 C31.0128597,8.66261132 32.5240692,10.4548943 34.7087452,10.4548943 C35.8921495,10.4548943 36.6749952,10.0964541 37.4761123,9.46902013 C37.6947044,9.28988176 37.9858838,9.16437862 38.3136891,9.16437862 C39.0236984,9.16437862 39.6244947,9.73793208 39.6244947,10.4369887 C39.6244947,10.8670516 39.4061517,11.2076679 39.1510998,11.4226994 C38.0041552,12.4085736 36.6568068,13.0000327 34.6177205,13.0000327 C30.86727,13.0000327 28.0817146,10.1502528 28.0817146,6.54761761" id="Fill-3" fill="#314047"></path>
            <path d="M41.3551684,1.51125409 C41.3551684,0.740574843 41.974153,0.131210063 42.7569157,0.131210063 C43.5397614,0.131210063 44.158746,0.740574843 44.158746,1.51125409 L44.158746,5.20341761 L49.3292982,5.20341761 L49.3292982,1.51125409 C49.3292982,0.740574843 49.9482828,0.131210063 50.7312946,0.131210063 C51.5140573,0.131210063 52.1330419,0.740574843 52.1330419,1.51125409 L52.1330419,11.5123421 C52.1330419,12.2830214 51.5140573,12.8923862 50.7312946,12.8923862 C49.9482828,12.8923862 49.3292982,12.2830214 49.3292982,11.5123421 L49.3292982,7.74847421 L44.158746,7.74847421 L44.158746,11.5123421 C44.158746,12.2830214 43.5397614,12.8923862 42.7569157,12.8923862 C41.974153,12.8923862 41.3551684,12.2830214 41.3551684,11.5123421 L41.3551684,1.51125409 Z" id="Fill-6" fill="#314047"></path>
            <path d="M62.0018643,7.53345912 L60.2358521,3.39308176 L58.4699229,7.53345912 L62.0018643,7.53345912 Z M54.11851,11.0105094 L58.5608646,1.13484277 C58.8704815,0.453773585 59.4349011,0.0416163522 60.1994754,0.0416163522 L60.3632535,0.0416163522 C61.1278278,0.0416163522 61.6740591,0.453773585 61.983676,1.13484277 L66.4260305,11.0105094 C66.5169722,11.2076352 66.5716202,11.3868553 66.5716202,11.5661572 C66.5716202,12.3009434 65.9890123,12.8924025 65.2426263,12.8924025 C64.5870158,12.8924025 64.1502467,12.5159748 63.8951948,11.9425031 L63.0396789,9.97091824 L57.4321084,9.97091824 L56.5401327,12.0320314 C56.3032691,12.5698553 55.8299573,12.8924025 55.2472663,12.8924025 C54.5191516,12.8924025 53.954732,12.3188491 53.954732,11.6019686 C53.954732,11.4048428 54.0274853,11.2076352 54.11851,11.0105094 L54.11851,11.0105094 Z" id="Fill-8" fill="#314047"></path>
            <path d="M70.0134339,2.78381509 L67.3189032,2.78381509 C66.6088939,2.78381509 66.0262859,2.21017987 66.0262859,1.51128679 C66.0262859,0.812230189 66.6088939,0.23867673 67.3189032,0.23867673 L75.5116252,0.23867673 C76.2215515,0.23867673 76.8041594,0.812230189 76.8041594,1.51128679 C76.8041594,2.21017987 76.2215515,2.78381509 75.5116252,2.78381509 L72.8171776,2.78381509 L72.8171776,11.5123748 C72.8171776,12.2830541 72.1980269,12.8924189 71.4151811,12.8924189 C70.6324185,12.8924189 70.0134339,12.2830541 70.0134339,11.5123748 L70.0134339,2.78381509 Z" id="Fill-10" fill="#314047"></path>
            <path d="M78.5530464,6.54761761 L78.5530464,6.51180629 C78.5530464,2.96305157 81.2475771,0.0235798742 84.9979445,0.0235798742 C87.0553853,0.0235798742 88.3661079,0.686743396 89.5495121,1.65463019 C89.6951018,1.78013333 89.8406915,1.97725912 89.8406915,2.22818365 C89.8406915,2.60461132 89.4949471,2.92724025 89.1125769,2.92724025 C88.9123392,2.92724025 88.7485611,2.83754843 88.6390989,2.76584403 C87.6560985,1.90555472 86.5455306,1.33200126 84.9797562,1.33200126 C82.1578241,1.33200126 80.0460675,3.59032201 80.0460675,6.47591321 L80.0460675,6.51180629 C80.0460675,9.41530314 82.1760125,11.6915296 84.9797562,11.6915296 C86.563802,11.6915296 87.6743699,11.1538692 88.7667495,10.1680767 C88.8758794,10.0606428 89.0397405,9.97095094 89.2217069,9.97095094 C89.5858888,9.97095094 89.913777,10.2934981 89.913777,10.6521019 C89.913777,10.8670516 89.8043148,11.0463535 89.6769135,11.1538692 C88.4207559,12.2829887 87.0371139,13.0000327 84.9433795,13.0000327 C81.2658484,13.0000327 78.5530464,10.1502528 78.5530464,6.54761761" id="Fill-12" fill="#314047"></path>
            <path d="M92.5543573,0.86594717 C92.5543573,0.471695597 92.8821625,0.149066667 93.2643666,0.149066667 C93.6649252,0.149066667 93.9927304,0.471695597 93.9927304,0.86594717 L93.9927304,11.4764 L100.60149,11.4764 C100.965671,11.4764 101.256851,11.7812868 101.256851,12.139727 C101.256851,12.4981673 100.965671,12.7849031 100.60149,12.7849031 L93.2643666,12.7849031 C92.8821625,12.7849031 92.5543573,12.4622742 92.5543573,12.0679409 L92.5543573,0.86594717 Z" id="Fill-15" fill="#314047"></path>
            <path d="M102.896325,7.53345912 L102.896325,0.865930818 C102.896325,0.471679245 103.223882,0.149132075 103.606335,0.149132075 C104.006893,0.149132075 104.334449,0.471679245 104.334449,0.865930818 L104.334449,7.4437673 C104.334449,10.1502201 105.809282,11.673673 108.230656,11.673673 C110.579276,11.673673 112.071965,10.2756415 112.071965,7.53345912 L112.071965,0.865930818 C112.071965,0.471679245 112.399853,0.149132075 112.800412,0.149132075 C113.182616,0.149132075 113.510421,0.471679245 113.510421,0.865930818 L113.510421,7.42586164 C113.510421,11.0821321 111.380227,12.9820943 108.194279,12.9820943 C105.044459,12.9820943 102.896325,11.0821321 102.896325,7.53345912" id="Fill-17" fill="#314047"></path>
            <path d="M121.157817,11.5123667 C123.087607,11.5123667 124.2892,10.669983 124.2892,9.27203333 L124.2892,9.23614025 C124.2892,7.87400189 123.123984,7.08533522 120.902765,7.08533522 L116.879407,7.08533522 L116.879407,11.5123667 L121.157817,11.5123667 Z M120.647962,5.83079434 C122.377598,5.83079434 123.57919,5.06003333 123.57919,3.59029748 L123.57919,3.55448616 C123.57919,2.31776918 122.577753,1.51127862 120.757175,1.51127862 L116.879407,1.51127862 L116.879407,5.83079434 L120.647962,5.83079434 Z M115.459222,0.955712579 C115.459222,0.561297484 115.78711,0.238668553 116.169231,0.238668553 L120.884577,0.238668553 C122.341221,0.238668553 123.488166,0.650989308 124.216363,1.34996415 C124.744406,1.88762453 125.035752,2.55078805 125.035752,3.35736038 L125.035752,3.39308994 C125.035752,5.02422201 124.016209,5.86660566 123.014771,6.29666855 C124.52598,6.74480063 125.745761,7.60508994 125.745761,9.32575031 L125.745761,9.36156164 C125.745761,11.5123667 123.906996,12.784895 121.12144,12.784895 L116.169231,12.784895 C115.78711,12.784895 115.459222,12.462266 115.459222,12.0679327 L115.459222,0.955712579 Z" id="Fill-19" fill="#314047"></path>
        </g>
    </g>
</svg>