<?xml version="1.0" encoding="utf-8"?>
<!-- Generator: Adobe Illustrator 21.1.0, SVG Export Plug-In . SVG Version: 6.00 Build 0)  -->
<svg version="1.1" id="Layer_1" xmlns="http://www.w3.org/2000/svg" xmlns:xlink="http://www.w3.org/1999/xlink" x="0px" y="0px"
	 viewBox="0 0 219.6 46.5" style="enable-background:new 0 0 219.6 46.5;" xml:space="preserve">
<style type="text/css">
	.st0{clip-path:url(#SVGID_2_);}
	.st1{fill:#414141;}
	.st2{fill:#FFFFFF;}
	.st3{clip-path:url(#SVGID_4_);}
	.st4{clip-path:url(#SVGID_6_);}
	.st5{clip-path:url(#SVGID_8_);fill:#414141;}
	.st6{clip-path:url(#SVGID_10_);}
	.st7{clip-path:url(#SVGID_12_);}
	.st8{clip-path:url(#SVGID_14_);}
	.st9{clip-path:url(#SVGID_16_);fill:#FFFFFF;}
	.st10{clip-path:url(#SVGID_18_);}
	.st11{clip-path:url(#SVGID_20_);}
	.st12{fill:#25D8E9;}
	.st13{clip-path:url(#SVGID_22_);}
	.st14{clip-path:url(#SVGID_24_);}
	.st15{clip-path:url(#SVGID_26_);fill:#25D8E9;}
	.st16{clip-path:url(#SVGID_28_);}
	.st17{clip-path:url(#SVGID_30_);}
	.st18{fill:#6454E0;}
	.st19{clip-path:url(#SVGID_32_);}
	.st20{clip-path:url(#SVGID_34_);}
	.st21{clip-path:url(#SVGID_36_);fill:#6454E0;}
	.st22{clip-path:url(#SVGID_38_);}
	.st23{clip-path:url(#SVGID_40_);fill:url(#SVGID_41_);}
	.st24{fill:none;stroke:#A6A8AB;stroke-width:0.7087;stroke-miterlimit:10;}
	.st25{clip-path:url(#SVGID_43_);}
	.st26{fill:url(#SVGID_44_);}
	.st27{clip-path:url(#SVGID_46_);}
	.st28{fill:url(#SVGID_47_);}
	.st29{clip-path:url(#SVGID_49_);}
	.st30{fill:url(#SVGID_50_);}
	.st31{clip-path:url(#SVGID_52_);}
	.st32{fill:url(#SVGID_53_);}
</style>
<g>
	<path class="st2" d="M68.1,13.6c0-7.5,6.2-13.5,13.6-13.6v33c-0.1,2.9-1.3,5.7-3.1,7.9c-2,2.8-5,4.7-8.5,5.4
		c-0.6,0.1-1.1,0.2-1.6,0.2c-0.3,0-0.6,0-1,0c-3.8,0-7.3-1.6-9.8-4.2l0,0L52.5,37L47.4,42c-2.1,2.3-4.9,3.9-8.2,4.4l0,0
		c-0.1,0-0.1,0-0.2,0c-0.2,0-0.4,0-0.5,0.1c-0.1,0-0.3,0-0.4,0c-0.1,0-0.3,0-0.4,0c-0.2,0-0.3,0-0.5,0c-3.6,0-7-1.5-9.4-3.8
		c-0.1-0.1-0.1-0.1-0.2-0.2c0,0-0.1-0.1-0.1-0.1c-0.2-0.2-0.4-0.5-0.6-0.7c-0.1-0.1-0.1-0.2-0.2-0.2c0,0,0-0.1-0.1-0.1
		c0,0,0,0-0.1-0.1c-1-1.3-1.9-2.9-2.4-4.5c0-0.1-0.1-0.2-0.1-0.3c0-0.1,0-0.2-0.1-0.3l-0.4-1.6c-0.3-1,0.5-1.9,1.5-1.9h12.3l5.8-5.8
		c2.9-2.9,7.3-4.2,11.4-3.6c3.3,0.5,5.9,2.3,7,3.3c0,0,0,0,0.1,0c0.4,0.3,0.5,0.5,0.5,0.5l5.8,5.9V13.6z M23.1,30h13.8v-5.6
		c0-4.4-3.7-8-8.2-8H9.8C9.8,30,23.1,30,23.1,30z M0,0c0,7.1,5.9,13.6,12.5,13.6h18.9c4.2,0,5.5,3.4,5.5,3.4V8.2
		c0-4.5-3.7-8.2-8.2-8.2H0z"/>
	<g>
		<path class="st2" d="M122.1,25.2l-4.9-15.8l-4.9,15.8h-7.9L95.3,0.4h8.1l5.1,17.2l5-17.2h7.6l5.1,17.2l5-17.2h7.8L130,25.2H122.1z
			"/>
		<path class="st2" d="M163.2,9v16.2h-7.8v-2.9c-1.6,2.1-4.2,3.2-7.6,3.2c-5.3,0-8.5-3.2-8.5-7.8c0-4.7,3.4-7.5,9.6-7.5h6.6V9.9
			c0-2.4-1.6-3.9-4.8-3.9c-2.1,0-4.8,0.7-7.4,2.1l-2.3-5.3C144.7,1,148.2,0,152.4,0C159.2,0,163.1,3.4,163.2,9z M155.4,16.8v-2.2h-5
			c-2.4,0-3.6,0.8-3.6,2.7c0,1.8,1.3,3,3.5,3C152.7,20.2,154.8,18.8,155.4,16.8z"/>
		<path class="st2" d="M174.5,25.2l-9.4-24.9h8.2l5.4,17.6l5.4-17.6h7.9l-9.4,24.9H174.5z"/>
		<path class="st2" d="M208.9,27.8c-1.8,4.5-5,6.7-9.6,6.7c-2.8,0-5-0.8-7.2-2.5l3.3-5.4c1.2,0.9,2.1,1.3,3.3,1.3
			c1.4,0,2.4-0.6,3.1-2l0.6-1.2L192,0.4h8.2l6.1,16.5l5.4-16.5h7.9L208.9,27.8z"/>
		<path class="st2" d="M104.4,41.6c0-0.1,0.1-0.1,0.1-0.1h1.5c0.8,0,1.4,0.5,1.4,1.2c0,0.5-0.4,0.9-0.7,1c0.3,0.1,0.8,0.5,0.8,1.1
			c0,0.7-0.6,1.3-1.4,1.3h-1.6c-0.1,0-0.1-0.1-0.1-0.1V41.6z M105.9,43.4c0.3,0,0.6-0.3,0.6-0.6s-0.2-0.6-0.6-0.6h-0.7v1.1H105.9z
			 M106,45.2c0.3,0,0.6-0.3,0.6-0.6c0-0.3-0.3-0.6-0.7-0.6h-0.7v1.2H106z"/>
		<path class="st2" d="M108.9,41.6c0-0.1,0.1-0.1,0.1-0.1h0.6c0.1,0,0.1,0.1,0.1,0.1v2.7c0,0.6,0.4,1,0.9,1c0.6,0,0.9-0.4,0.9-1
			v-2.7c0-0.1,0.1-0.1,0.1-0.1h0.6c0.1,0,0.1,0.1,0.1,0.1v2.7c0,1-0.8,1.8-1.8,1.8c-1,0-1.8-0.8-1.8-1.8V41.6z"/>
		<path class="st2" d="M114.1,41.6c0-0.1,0.1-0.1,0.1-0.1h0.6c0.1,0,0.1,0.1,0.1,0.1v4.3c0,0.1-0.1,0.1-0.1,0.1h-0.6
			c-0.1,0-0.1-0.1-0.1-0.1V41.6z"/>
		<path class="st2" d="M116.7,41.6c0-0.1,0.1-0.1,0.1-0.1h0.6c0.1,0,0.1,0.1,0.1,0.1v3.6h1.7c0.1,0,0.1,0.1,0.1,0.1v0.5
			c0,0.1-0.1,0.1-0.1,0.1h-2.4c-0.1,0-0.1-0.1-0.1-0.1V41.6z"/>
		<path class="st2" d="M120.4,41.6c0-0.1,0.1-0.1,0.1-0.1h1.5c1.3,0,2.3,1,2.3,2.3c0,1.3-1,2.3-2.3,2.3h-1.5c-0.1,0-0.1-0.1-0.1-0.1
			V41.6z M122,45.2c0.8,0,1.5-0.6,1.5-1.5c0-0.8-0.6-1.5-1.5-1.5h-0.7v3H122z"/>
		<path class="st2" d="M125.8,41.6c0-0.1,0.1-0.1,0.1-0.1h0.6c0.1,0,0.1,0.1,0.1,0.1v4.3c0,0.1-0.1,0.1-0.1,0.1h-0.6
			c-0.1,0-0.1-0.1-0.1-0.1V41.6z"/>
		<path class="st2" d="M128.3,41.5c0-0.1,0.1-0.1,0.1-0.1h0.2l2.7,2.9h0v-2.7c0-0.1,0.1-0.1,0.1-0.1h0.6c0.1,0,0.1,0.1,0.1,0.1v4.4
			c0,0.1-0.1,0.1-0.1,0.1h-0.2l-2.7-3h0v2.8c0,0.1-0.1,0.1-0.1,0.1h-0.6c-0.1,0-0.1-0.1-0.1-0.1V41.5z"/>
		<path class="st2" d="M135.8,41.4c0.6,0,1.1,0.2,1.6,0.6c0.1,0.1,0.1,0.1,0,0.2l-0.4,0.4c-0.1,0.1-0.1,0.1-0.2,0
			c-0.3-0.2-0.6-0.4-1-0.4c-0.8,0-1.5,0.7-1.5,1.5c0,0.8,0.6,1.5,1.5,1.5c0.4,0,0.6-0.1,0.8-0.2v-0.6h-0.5c-0.1,0-0.1-0.1-0.1-0.1
			v-0.5c0-0.1,0.1-0.1,0.1-0.1h1.2c0.1,0,0.1,0.1,0.1,0.1v1.7c0,0.1,0,0.1-0.1,0.1c0,0-0.7,0.4-1.6,0.4c-1.3,0-2.3-1-2.3-2.3
			C133.5,42.4,134.6,41.4,135.8,41.4z"/>
		<path class="st2" d="M140.7,45.4l0.2-0.4c0.1-0.1,0.2-0.1,0.2,0c0,0,0.6,0.4,1,0.4c0.3,0,0.6-0.2,0.6-0.5c0-0.3-0.3-0.6-0.8-0.8
			c-0.6-0.2-1.2-0.6-1.2-1.4c0-0.6,0.4-1.2,1.5-1.2c0.7,0,1.2,0.3,1.3,0.4c0.1,0,0.1,0.1,0,0.2l-0.2,0.4c-0.1,0.1-0.1,0.1-0.2,0.1
			c-0.1,0-0.5-0.4-0.9-0.4c-0.4,0-0.6,0.2-0.6,0.5c0,0.3,0.2,0.5,0.8,0.7c0.6,0.3,1.4,0.6,1.4,1.5c0,0.7-0.6,1.3-1.5,1.3
			c-0.8,0-1.3-0.4-1.4-0.5C140.6,45.5,140.6,45.5,140.7,45.4z"/>
		<path class="st2" d="M145.6,42.2h-1c-0.1,0-0.1-0.1-0.1-0.1v-0.5c0-0.1,0.1-0.1,0.1-0.1h2.8c0.1,0,0.1,0.1,0.1,0.1v0.5
			c0,0.1-0.1,0.1-0.1,0.1h-1v3.6c0,0.1-0.1,0.1-0.1,0.1h-0.6c-0.1,0-0.1-0.1-0.1-0.1V42.2z"/>
		<path class="st2" d="M148.7,41.6c0-0.1,0.1-0.1,0.1-0.1h1.9c0.8,0,1.4,0.6,1.4,1.4c0,0.6-0.4,1.1-1,1.3l0.9,1.6
			c0,0.1,0,0.2-0.1,0.2h-0.7c-0.1,0-0.1,0-0.1-0.1l-0.9-1.7h-0.7v1.7c0,0.1-0.1,0.1-0.1,0.1h-0.6c-0.1,0-0.1-0.1-0.1-0.1V41.6z
			 M150.6,43.5c0.3,0,0.6-0.3,0.6-0.7c0-0.3-0.3-0.6-0.6-0.6h-1.1v1.3H150.6z"/>
		<path class="st2" d="M155.6,41.4c1.3,0,2.3,1,2.3,2.3c0,1.3-1,2.3-2.3,2.3c-1.3,0-2.3-1-2.3-2.3C153.2,42.4,154.3,41.4,155.6,41.4
			z M155.6,45.2c0.8,0,1.5-0.7,1.5-1.5c0-0.8-0.7-1.5-1.5-1.5c-0.8,0-1.5,0.7-1.5,1.5C154.1,44.5,154.8,45.2,155.6,45.2z"/>
		<path class="st2" d="M159.3,41.5c0-0.1,0.1-0.1,0.1-0.1h0.2l2.7,2.9h0v-2.7c0-0.1,0.1-0.1,0.1-0.1h0.6c0.1,0,0.1,0.1,0.1,0.1v4.4
			c0,0.1-0.1,0.1-0.1,0.1h-0.2l-2.7-3h0v2.8c0,0.1-0.1,0.1-0.1,0.1h-0.6c-0.1,0-0.1-0.1-0.1-0.1V41.5z"/>
		<path class="st2" d="M166.8,41.4c0.6,0,1.1,0.2,1.6,0.6c0.1,0.1,0.1,0.1,0,0.2l-0.4,0.4c-0.1,0.1-0.1,0.1-0.2,0
			c-0.3-0.2-0.6-0.4-1-0.4c-0.8,0-1.5,0.7-1.5,1.5c0,0.8,0.6,1.5,1.5,1.5c0.4,0,0.6-0.1,0.8-0.2v-0.6h-0.5c-0.1,0-0.1-0.1-0.1-0.1
			v-0.5c0-0.1,0.1-0.1,0.1-0.1h1.2c0.1,0,0.1,0.1,0.1,0.1v1.7c0,0.1,0,0.1-0.1,0.1c0,0-0.7,0.4-1.6,0.4c-1.3,0-2.3-1-2.3-2.3
			C164.5,42.4,165.5,41.4,166.8,41.4z"/>
		<path class="st2" d="M171.9,41.6c0-0.1,0.1-0.1,0.1-0.1h1.9c0.8,0,1.4,0.6,1.4,1.4c0,0.6-0.4,1.1-1,1.3l0.9,1.6
			c0,0.1,0,0.2-0.1,0.2h-0.7c-0.1,0-0.1,0-0.1-0.1l-0.9-1.7h-0.7v1.7c0,0.1-0.1,0.1-0.1,0.1H172c-0.1,0-0.1-0.1-0.1-0.1V41.6z
			 M173.8,43.5c0.3,0,0.6-0.3,0.6-0.7c0-0.3-0.3-0.6-0.6-0.6h-1.1v1.3H173.8z"/>
		<path class="st2" d="M176.7,41.6c0-0.1,0.1-0.1,0.1-0.1h2.6c0.1,0,0.1,0.1,0.1,0.1v0.5c0,0.1-0.1,0.1-0.1,0.1h-1.9v1.1h1.6
			c0.1,0,0.1,0.1,0.1,0.1v0.5c0,0.1-0.1,0.1-0.1,0.1h-1.6v1.1h1.9c0.1,0,0.1,0.1,0.1,0.1v0.5c0,0.1-0.1,0.1-0.1,0.1h-2.6
			c-0.1,0-0.1-0.1-0.1-0.1V41.6z"/>
		<path class="st2" d="M181.1,41.6c0-0.1,0.1-0.1,0.1-0.1h0.6c0.1,0,0.1,0.1,0.1,0.1v3.6h1.7c0.1,0,0.1,0.1,0.1,0.1v0.5
			c0,0.1-0.1,0.1-0.1,0.1h-2.4c-0.1,0-0.1-0.1-0.1-0.1V41.6z"/>
		<path class="st2" d="M184.5,45.8l2-4.4c0,0,0.1-0.1,0.1-0.1h0.1c0.1,0,0.1,0,0.1,0.1l2,4.4c0,0.1,0,0.2-0.1,0.2h-0.6
			c-0.1,0-0.1,0-0.2-0.1l-0.3-0.7h-1.9l-0.3,0.7c0,0.1-0.1,0.1-0.2,0.1h-0.6C184.5,46,184.4,45.9,184.5,45.8z M187.3,44.4l-0.6-1.4
			h0l-0.6,1.4H187.3z"/>
		<path class="st2" d="M190.3,42.2h-1c-0.1,0-0.1-0.1-0.1-0.1v-0.5c0-0.1,0.1-0.1,0.1-0.1h2.8c0.1,0,0.1,0.1,0.1,0.1v0.5
			c0,0.1-0.1,0.1-0.1,0.1h-1v3.6c0,0.1-0.1,0.1-0.1,0.1h-0.6c-0.1,0-0.1-0.1-0.1-0.1V42.2z"/>
		<path class="st2" d="M193.4,41.6c0-0.1,0.1-0.1,0.1-0.1h0.6c0.1,0,0.1,0.1,0.1,0.1v4.3c0,0.1-0.1,0.1-0.1,0.1h-0.6
			c-0.1,0-0.1-0.1-0.1-0.1V41.6z"/>
		<path class="st2" d="M198,41.4c1.3,0,2.3,1,2.3,2.3c0,1.3-1,2.3-2.3,2.3c-1.3,0-2.3-1-2.3-2.3C195.7,42.4,196.7,41.4,198,41.4z
			 M198,45.2c0.8,0,1.5-0.7,1.5-1.5c0-0.8-0.7-1.5-1.5-1.5c-0.8,0-1.5,0.7-1.5,1.5C196.5,44.5,197.2,45.2,198,45.2z"/>
		<path class="st2" d="M201.7,41.5c0-0.1,0.1-0.1,0.1-0.1h0.2l2.7,2.9h0v-2.7c0-0.1,0.1-0.1,0.1-0.1h0.6c0.1,0,0.1,0.1,0.1,0.1v4.4
			c0,0.1-0.1,0.1-0.1,0.1h-0.2l-2.7-3h0v2.8c0,0.1-0.1,0.1-0.1,0.1h-0.6c-0.1,0-0.1-0.1-0.1-0.1V41.5z"/>
		<path class="st2" d="M207,45.4l0.2-0.4c0.1-0.1,0.2-0.1,0.2,0c0,0,0.6,0.4,1,0.4c0.3,0,0.6-0.2,0.6-0.5c0-0.3-0.3-0.6-0.8-0.8
			c-0.6-0.2-1.2-0.6-1.2-1.4c0-0.6,0.4-1.2,1.5-1.2c0.7,0,1.2,0.3,1.3,0.4c0.1,0,0.1,0.1,0,0.2l-0.2,0.4c-0.1,0.1-0.1,0.1-0.2,0.1
			c-0.1,0-0.5-0.4-0.9-0.4c-0.4,0-0.6,0.2-0.6,0.5c0,0.3,0.2,0.5,0.8,0.7c0.6,0.3,1.4,0.6,1.4,1.5c0,0.7-0.6,1.3-1.5,1.3
			c-0.8,0-1.3-0.4-1.4-0.5C206.9,45.5,206.9,45.5,207,45.4z"/>
	</g>
</g>
</svg>
