<?xml version="1.0" encoding="UTF-8"?>
<svg width="427px" height="428px" viewBox="0 0 427 428" version="1.1" xmlns="http://www.w3.org/2000/svg" xmlns:xlink="http://www.w3.org/1999/xlink">
    <!-- Generator: Sketch 46.1 (44463) - http://www.bohemiancoding.com/sketch -->
    <title>Group 2 Copy 2</title>
    <desc>Created with Sketch.</desc>
    <defs></defs>
    <g id="Staging" stroke="none" stroke-width="1" fill="none" fill-rule="evenodd">
        <g id="Home_v02" transform="translate(-656.000000, -122.000000)">
            <g id="Group-2-Copy-2" transform="translate(872.000000, 338.000000) rotate(-45.000000) translate(-872.000000, -338.000000) translate(719.000000, 185.000000)">
                <path d="M95.539274,54.1327699 C76.7432603,39.6629024 57.3109509,24.7014617 19.0645192,24.7014617 C12.1208406,24.7014617 5.81345761,25.2080257 0,26.1024767 L0,26.8426473 C5.80783772,25.9419502 12.1177184,25.4347615 19.0645192,25.4347615 C57.0973953,25.4347615 76.4435331,40.3274944 95.1502531,54.7324018 C113.943769,69.2010201 133.377952,84.1624608 171.625632,84.1624608 C209.877059,84.1624608 229.31374,69.2010201 248.109753,54.7324018 C263.40458,42.9571302 279.136508,30.8689257 305.144081,26.8426473 L305.144081,26.0999782 C278.93669,30.1293797 263.104852,42.2906643 247.720733,54.1327699 C229.011515,68.5358034 209.663504,83.4285363 171.625632,83.4285363 C133.591507,83.4285363 114.245994,68.5358034 95.539274,54.1327699 Z" id="Fill-31" fill="#25D8E9"></path>
                <path d="M177.980347,91.455234 C139.945598,91.455234 120.600084,76.5612519 101.893989,62.1582184 C83.0979751,47.6896001 63.6656657,32.7281594 25.4192341,32.7281594 C15.8654316,32.7281594 7.48680924,33.6613366 0.000499545229,35.2859643 L0.000499545229,36.0405011 C7.48493594,34.403381 15.8604361,33.4608346 25.4192341,33.4608346 C63.4521101,33.4608346 82.798248,48.3541922 101.504968,62.756601 C120.298484,77.2264685 139.732667,92.1891585 177.980347,92.1891585 C216.232399,92.1891585 235.668455,77.2264685 254.463219,62.756601 C268.471717,51.9732206 282.842384,40.9168826 305.143956,36.0405011 L305.143956,35.2859643 C282.642566,40.1698412 268.176985,51.3023824 254.074823,62.1582184 C235.366854,76.5612519 216.018843,91.455234 177.980347,91.455234" id="Fill-33" fill="#8272FF"></path>
                <path d="M203.39852,123.558964 C165.365644,123.558964 146.018881,108.661234 127.312161,94.2594501 C108.517397,79.7927057 89.0850872,64.8293911 50.8374067,64.8293911 C28.8012178,64.8293911 13.0218328,69.8082098 0.000561988383,76.7870508 L0.000561988383,77.6121693 C13.0112175,70.5902298 28.7674984,65.5620664 50.8374067,65.5620664 C88.8715316,65.5620664 108.217045,80.4572977 126.923141,94.8597066 C145.717281,109.326451 165.152088,124.291015 203.39852,124.291015 C241.650571,124.291015 261.086627,109.326451 279.882641,94.8597066 C287.741112,88.8140428 295.725093,82.6928005 305.144019,77.6102954 L305.144019,76.7833031 C295.562741,81.9182759 287.462615,88.12634 279.49362,94.2594501 C260.7869,108.661234 241.43764,123.558964 203.39852,123.558964" id="Fill-44" fill="#8272FF"></path>
                <path d="M152.663457,192.636435 C114.624961,192.636435 95.2769503,177.743078 76.5664837,163.340044 C57.7698456,148.871426 38.3337896,133.908736 0.0811136566,133.908736 L0.000561988383,133.908736 L0.000561988383,134.642036 L0.0811136566,134.642036 C38.120234,134.642036 57.4688696,149.536018 76.1774629,163.939676 C94.9734765,178.408294 114.411406,193.369735 152.663457,193.369735 C190.914884,193.369735 210.352814,178.408294 229.148203,163.939676 C247.839937,149.550384 267.173586,134.670768 305.144019,134.645783 L305.144019,133.911859 C266.957533,133.936844 247.537087,148.885167 228.759807,163.340044 C210.050589,177.743078 190.702578,192.636435 152.663457,192.636435" id="Fill-49" fill="#25D8E9"></path>
                <path d="M178.082192,160.535141 C140.043072,160.535141 120.69506,145.641159 101.985843,131.238125 C83.1892046,116.769507 63.7518997,101.806817 25.4998482,101.806817 C15.9129508,101.806817 7.50810235,102.74624 0.000561988383,104.385234 L0.000561988383,105.141645 C7.50560463,103.491408 15.9054577,102.539492 25.4998482,102.539492 C63.5389686,102.539492 82.8876042,117.434099 101.596197,131.837757 C120.392836,146.306375 139.830765,161.269065 178.082192,161.269065 C216.334243,161.269065 235.771548,146.306375 254.568811,131.837757 C268.556077,121.071241 282.899894,110.034267 305.144019,105.145393 L305.144019,104.388982 C282.700076,109.287225 268.261346,120.399154 254.17979,131.238125 C235.468699,145.641159 216.121312,160.535141 178.082192,160.535141" id="Fill-60" fill="#25D8E9"></path>
                <path d="M203.501551,128.43266 C165.461806,128.43266 146.113795,113.539927 127.405202,99.1356443 C108.608564,84.667026 89.1706343,69.7055853 50.9192072,69.7055853 C28.8324393,69.7055853 13.0374436,74.7050164 0.000561988383,81.7069681 L0.000561988383,82.5352097 C13.0268283,75.4882855 28.8037155,70.4388852 50.9192072,70.4388852 C88.9583276,70.4388852 108.306963,85.3316181 127.016181,99.7352762 C145.812195,114.205144 165.249499,129.166584 203.501551,129.166584 C241.752978,129.166584 261.192156,114.205144 279.98817,99.7352762 C287.81417,93.7089755 295.77255,87.6127178 305.144019,82.5439543 L305.144019,81.7188358 C295.604578,86.8388179 287.535674,93.025645 279.599149,99.1356443 C260.886809,113.539927 241.540047,128.43266 203.501551,128.43266" id="Fill-71" fill="#25D8E9"></path>
                <path d="M152.560988,211.972066 C114.526863,211.972066 95.1819742,197.075585 76.4746298,182.672552 C57.6786161,168.206432 38.2469312,153.241243 0.000499545229,153.241243 L0.000499545229,153.974543 C38.034,153.974543 57.378889,168.871024 76.085609,183.274682 C94.8791249,197.740802 114.314557,212.70599 152.560988,212.70599 C190.81304,212.70599 210.250345,197.740802 229.045734,183.274682 C247.755576,168.871024 267.104836,153.974543 305.143956,153.974543 L305.143956,153.241243 C266.889407,153.241243 247.453351,168.206432 228.656713,182.672552 C209.947495,197.075585 190.599484,211.972066 152.560988,211.972066" id="Fill-76" fill="#8272FF"></path>
                <path d="M171.625632,236.046662 C133.591507,236.046662 114.245994,221.153929 95.539274,206.750896 C76.7432603,192.281028 57.3109509,177.319588 19.0645192,177.319588 C12.1208406,177.319588 5.81345761,177.823653 0,178.718104 L0,179.460149 C5.80783772,178.560701 12.1177184,178.052887 19.0645192,178.052887 C57.0973953,178.052887 76.4435331,192.94562 95.1502531,207.349278 C113.943769,221.819146 133.377952,236.780587 171.625632,236.780587 C209.877059,236.780587 229.31374,221.819146 248.109753,207.349278 C263.40458,195.574007 279.136508,183.486427 305.144081,179.460149 L305.144081,178.718104 C278.93669,182.746881 263.104852,194.909415 247.720733,206.750896 C229.011515,221.153929 209.663504,236.046662 171.625632,236.046662" id="Fill-84" fill="#25D8E9"></path>
                <path d="M177.980347,244.074547 C139.945598,244.074547 120.600084,229.178066 101.893989,214.775033 C83.0979751,200.308913 63.6656657,185.343724 25.4192341,185.343724 C15.8654316,185.343724 7.48680924,186.277526 0.000499545229,187.905277 L0.000499545229,188.658564 C7.48493594,187.022694 15.8604361,186.0764 25.4192341,186.0764 C63.4521101,186.0764 82.798248,200.973505 101.504968,215.376538 C120.298484,229.843283 139.732667,244.807847 177.980347,244.807847 C216.232399,244.807847 235.668455,229.843283 254.463219,215.376538 C268.471717,204.590035 282.842384,193.533697 305.143956,188.658564 L305.143956,187.905277 C282.642566,192.789154 268.176985,203.919197 254.074823,214.775033 C235.366854,229.178066 216.018843,244.074547 177.980347,244.074547" id="Fill-86" fill="#8272FF"></path>
                <path d="M203.39852,276.175216 C165.365644,276.175216 146.018881,261.278736 127.312161,246.876951 C108.517397,232.410832 89.0850872,217.446268 50.8374067,217.446268 C28.8012178,217.446268 13.0218328,222.426336 0.000561988383,229.403927 L0.000561988383,230.232794 C13.0112175,223.208356 28.7674984,218.178943 50.8374067,218.178943 C88.8715316,218.178943 108.217045,233.075424 126.923141,247.479082 C145.717281,261.944577 165.152088,276.909141 203.39852,276.909141 C241.650571,276.909141 261.086627,261.944577 279.882641,247.479082 C287.741112,241.432169 295.725093,235.310926 305.144019,230.226547 L305.144019,229.401429 C295.562741,234.537026 287.462615,240.743841 279.49362,246.876951 C260.7869,261.278736 241.43764,276.175216 203.39852,276.175216" id="Fill-97" fill="#8272FF"></path>
                <path d="M0.000312215768,286.526549 L0.000312215768,287.260474 L0.080863884,287.260474 C28.5699283,287.260474 46.5754117,295.617219 61.6785372,305.859057 L62.9317713,305.859057 C47.5607646,295.278677 29.324866,286.526549 0.080863884,286.526549 L0.000312215768,286.526549 Z" id="Fill-105" fill="#25D8E9"></path>
                <path d="M0.000561988383,271.091462 L0.000561988383,271.831008 C4.0262721,271.435626 8.26803553,271.209515 12.7907932,271.209515 C50.8299135,271.209515 70.1779247,286.102872 88.8871424,300.505906 C91.2081544,302.293558 93.541655,304.088082 95.917617,305.85887 L97.121521,305.85887 C94.4639404,303.893201 91.8619342,301.898801 89.2761632,299.907523 C70.4801495,285.437655 51.0422202,270.476215 12.7907932,270.476215 C8.26803553,270.476215 4.0262721,270.699203 0.000561988383,271.091462 Z" id="Fill-116" fill="#25D8E9"></path>
                <path d="M203.501551,281.050786 C165.461806,281.050786 146.113795,266.156804 127.405202,251.755019 C108.608564,237.285152 89.1706343,222.323711 50.9192072,222.323711 C28.8324393,222.323711 13.0374436,227.323142 0.000561988383,234.325094 L0.000561988383,235.152711 C13.0268283,228.106411 28.8037155,223.056386 50.9192072,223.056386 C88.9583276,223.056386 108.306963,237.949744 127.016181,252.353402 C145.812195,266.82202 165.249499,281.78471 203.501551,281.78471 C241.752978,281.78471 261.192156,266.82202 279.98817,252.353402 C287.81417,246.326477 295.77255,240.230219 305.144019,235.161456 L305.144019,234.336337 C295.604578,239.456944 287.535674,245.644396 279.599149,251.755019 C260.886809,266.156804 241.540047,281.050786 203.501551,281.050786" id="Fill-142" fill="#25D8E9"></path>
                <path d="M146.308118,48.7781819 C184.56017,48.7781819 203.998099,33.8167412 222.793488,19.3468737 C231.426254,12.701578 240.220123,5.96821134 250.899776,0.623991954 L249.255648,0.623991954 C239.137359,5.8763927 230.706285,12.3574142 222.405092,18.7472418 C203.695874,33.1515245 184.347863,48.044882 146.308118,48.044882 C108.270247,48.044882 88.9222354,33.1515245 70.2117688,18.7472418 C61.9099516,12.3574142 53.478877,5.8763927 43.3605883,0.623991954 L41.7158357,0.623991954 C52.3961127,5.96821134 61.189982,12.701578 69.822748,19.3468737 C88.6187617,33.8167412 108.056691,48.7781819 146.308118,48.7781819" id="Fill-1" fill="#8272FF"></path>
                <path d="M152.663457,40.7521088 C190.914884,40.7521088 210.352814,25.7906681 229.148203,11.3220498 C233.844553,7.70427063 238.583988,4.05963294 243.647503,0.624241801 L242.394269,0.624241801 C237.65858,3.88661415 233.187651,7.31450989 228.759807,10.7224179 C210.050589,25.1254514 190.702578,40.0181843 152.663457,40.0181843 C114.624961,40.0181843 95.2769503,25.1254514 76.5664837,10.7224179 C72.1386397,7.31450989 67.6677099,3.88661415 62.9320211,0.624241801 L61.678787,0.624241801 C66.7423023,4.05963294 71.4817377,7.70427063 76.1774629,11.3220498 C94.9734765,25.7906681 114.411406,40.7521088 152.663457,40.7521088" id="Fill-4" fill="#25D8E9"></path>
                <path d="M159.01811,32.7278471 C197.269537,32.7278471 216.707466,17.7651571 235.50348,3.29528964 C236.659927,2.40583565 237.81575,1.5145078 238.983437,0.624429186 L237.813252,0.624429186 C236.912197,1.31525511 236.010518,2.00670566 235.114459,2.69690697 C216.405241,17.0999405 197.05723,31.9939226 159.01811,31.9939226 C120.978365,31.9939226 101.631603,17.0999405 82.9211361,2.69690697 C82.0257013,2.00670566 81.1240222,1.31525511 80.222343,0.624429186 L79.0521583,0.624429186 C80.2198453,1.5145078 81.3756681,2.40583565 82.5327397,3.29528964 C101.328753,17.7651571 120.766058,32.7278471 159.01811,32.7278471" id="Fill-7" fill="#8272FF"></path>
                <path d="M234.827408,0.624179339 L233.623504,0.624179339 C217.051715,12.901018 198.155793,23.9673498 165.372512,23.9673498 C132.589857,23.9673498 113.694558,12.901018 97.121521,0.624179339 L95.917617,0.624179339 C112.774771,13.2064555 131.846159,24.7012743 165.372512,24.7012743 C198.898866,24.7012743 217.972127,13.2064555 234.827408,0.624179339" id="Fill-10" fill="#25D8E9"></path>
                <path d="M229.613654,0.624179339 L228.223045,0.624179339 C214.129625,9.30884814 197.090762,15.9422761 171.727602,15.9422761 C146.364442,15.9422761 129.325578,9.30884814 115.23091,0.624179339 L113.84155,0.624179339 C128.21409,9.67549807 145.570165,16.675576 171.727602,16.675576 C197.884415,16.675576 215.240489,9.67549807 229.613654,0.624179339" id="Fill-13" fill="#8272FF"></path>
                <path d="M220.693525,0.624179339 L218.852076,0.624179339 C207.839602,5.05396006 194.757137,7.91720242 178.082317,7.91720242 C161.407497,7.91720242 148.325032,5.05396006 137.313182,0.624179339 L135.470484,0.624179339 C146.878848,5.45808698 160.473972,8.65112689 178.082317,8.65112689 C195.690662,8.65112689 209.285161,5.45808698 220.693525,0.624179339" id="Fill-16" fill="#25D8E9"></path>
                <path d="M146.206336,52.0611041 C184.458387,52.0611041 203.895692,37.0990388 222.690457,22.6291713 C233.197766,14.5410113 243.910514,6.29732181 258.017047,0.623929493 L256.176847,0.623929493 C242.804021,6.29170026 232.446575,14.2218322 222.30206,22.0307886 C203.591594,36.4338221 184.244832,51.3278043 146.206336,51.3278043 C108.172211,51.3278043 88.8273218,36.4338221 70.1199774,22.0307886 C59.9754627,14.2218322 49.6211389,6.29170026 36.2489376,0.623929493 L34.4093623,0.623929493 C48.517144,6.29732181 59.2242715,14.5410113 69.7309566,22.6291713 C88.5244725,37.0990388 107.959904,52.0611041 146.206336,52.0611041" id="Fill-19" fill="#25D8E9"></path>
                <path d="M228.6569,30.0567992 C209.947683,44.4592081 190.599671,59.351941 152.561175,59.351941 C114.527051,59.351941 95.1821616,44.4592081 76.4748172,30.0567992 C57.6788035,15.5869318 38.2464941,0.624241801 6.24431536e-05,0.624241801 L6.24431536e-05,1.35816627 C38.0341873,1.35816627 57.3790763,16.2515238 76.0857963,30.6551819 C94.8793123,45.1238002 114.314744,60.0852409 152.561175,60.0852409 C190.813227,60.0852409 210.249907,45.1238002 229.045921,30.6551819 C247.755763,16.2515238 267.105023,1.35816627 305.144144,1.35816627 L305.144144,0.624241801 C266.889594,0.624241801 247.453538,15.5869318 228.6569,30.0567992" id="Fill-22" fill="#8272FF"></path>
                <path d="M158.915703,67.378264 C120.882203,67.378264 101.536689,52.4855311 82.8299691,38.0812483 C64.0339554,23.6126301 44.601646,8.65118936 6.35521441,8.65118936 C4.17032846,8.65118936 2.06599418,8.71240178 0.000374658922,8.80671888 L0.000374658922,9.54126797 C2.06287202,9.44632625 4.17032846,9.38448921 6.35521441,9.38448921 C44.3887149,9.38448921 63.7336039,24.2772221 82.4409483,38.6808802 C101.23384,53.1507477 120.668647,68.1121885 158.915703,68.1121885 C197.167754,68.1121885 216.605684,53.1507477 235.400449,38.6808802 C253.034395,25.1048391 271.252185,11.1046832 305.144456,9.54001874 L305.144456,8.80671888 C271.047372,10.3713834 252.734668,24.4377486 235.011428,38.0812483 C216.30221,52.4855311 196.954199,67.378264 158.915703,67.378264" id="Fill-25" fill="#25D8E9"></path>
                <path d="M165.27098,75.4037125 C127.236855,75.4037125 107.891342,60.5097303 89.1846215,46.107946 C70.3886079,31.6393278 50.9562984,16.6760132 12.7098668,16.6760132 C8.21520862,16.6760132 4.00216905,16.8996259 0.000187329461,17.2868882 L0.000187329461,18.0233112 C4.00216905,17.6335504 8.21520862,17.4093131 12.7098668,17.4093131 C50.7427429,17.4093131 70.0882563,32.3032952 88.7956007,46.7057041 C107.589117,61.174947 127.023299,76.1376369 165.27098,76.1376369 C203.522407,76.1376369 222.959087,61.174947 241.755101,46.7057041 C258.253207,34.0041261 275.267717,20.9371475 305.144268,18.0233112 L305.144268,17.2868882 C275.062904,20.2007245 257.954104,33.3376602 241.36608,46.107946 C222.656862,60.5097303 203.308851,75.4037125 165.27098,75.4037125" id="Fill-28" fill="#8272FF"></path>
                <path d="M184.333813,99.4794957 C146.300937,99.4794957 126.954799,84.5861382 108.248704,70.1849785 C89.45269,55.7151111 70.0203806,40.7524211 31.773949,40.7524211 C19.4170733,40.7524211 9.04276774,42.3302026 0.000374658922,44.9336044 L0.000374658922,45.6987597 C9.03589899,43.0791178 19.4058335,41.4850963 31.773949,41.4850963 C69.806825,41.4850963 89.1529629,56.3797031 107.859683,70.7833612 C126.653199,85.2513549 146.087382,100.21342 184.333813,100.21342 C222.585865,100.21342 242.023794,85.2513549 260.818559,70.7833612 C273.44394,61.0618289 286.385284,51.1372962 305.144456,45.6987597 L305.144456,44.931106 C286.195456,50.3840086 273.154828,60.3878676 260.429538,70.1849785 C241.721569,84.5861382 222.373558,99.4794957 184.333813,99.4794957" id="Fill-35" fill="#25D8E9"></path>
                <path d="M190.68909,107.503757 C152.65559,107.503757 133.309452,92.6128984 114.602732,78.2086156 C95.8073424,63.7399974 76.3756574,48.777932 38.1292258,48.777932 C22.7644634,48.777932 10.4706553,51.2164351 0.000187329461,55.0440855 L0.000187329461,55.823607 C10.46004,51.9722212 22.7488526,49.5118565 38.1292258,49.5118565 C76.1621018,49.5118565 95.5076153,64.4045894 114.21496,78.8082475 C133.007851,93.278115 152.442034,108.237057 190.68909,108.237057 C228.940517,108.237057 248.378446,93.278115 267.173211,78.8082475 C278.321812,70.2278897 289.727678,61.4976239 305.144268,55.8211085 L305.144268,55.041587 C289.544095,60.7412132 278.0327,69.5501807 266.78419,78.2086156 C248.076221,92.6128984 228.72821,107.503757 190.68909,107.503757" id="Fill-38" fill="#8272FF"></path>
                <path d="M197.043805,115.531017 C159.010929,115.531017 139.664167,100.637035 120.957447,86.2352509 C102.162682,71.7666326 82.7303723,56.8039427 44.4839407,56.8039427 C25.9052292,56.8039427 11.7843344,60.3486417 6.24431536e-05,65.6403933 L6.24431536e-05,66.4355302 C11.7705969,61.1100493 25.8839985,57.5372425 44.4839407,57.5372425 C82.5168167,57.5372425 101.86233,72.4312247 120.568426,86.8336335 C139.361942,101.302252 158.797373,116.264942 197.043805,116.264942 C235.295232,116.264942 254.731912,101.302252 273.527926,86.8336335 C283.089222,79.4725273 292.83972,71.9958669 305.144144,66.4330317 L305.144144,65.6372702 C292.666128,71.2369578 282.80573,78.793569 273.138905,86.2352509 C254.432185,100.637035 235.082925,115.531017 197.043805,115.531017" id="Fill-41" fill="#25D8E9"></path>
                <path d="M222.405217,171.364056 C203.695999,185.767714 184.347988,200.66357 146.308243,200.66357 C108.270371,200.66357 88.9217359,185.767714 70.2118937,171.364056 C52.4749159,157.711812 34.1497236,143.634828 0.000187329461,142.087653 L0.000187329461,142.821577 C33.9399146,144.368752 52.1758132,158.376404 69.8228729,171.966186 C88.6188866,186.432306 108.056816,201.397495 146.308243,201.397495 C184.560294,201.397495 203.997599,186.432306 222.793613,171.966186 C241.502831,157.562528 260.849593,142.666672 298.889338,142.666672 C301.039256,142.666672 303.109871,142.729134 305.144268,142.821577 L305.144268,142.087653 C303.109871,141.995834 301.039256,141.932748 298.889338,141.932748 C260.639784,141.932748 241.20123,156.897936 222.405217,171.364056" id="Fill-46" fill="#8272FF"></path>
                <path d="M159.01811,184.609737 C120.978365,184.609737 101.631603,169.719503 82.9211361,155.316469 C64.1251224,140.844104 44.688442,125.884537 6.43576608,125.884537 C4.22340514,125.884537 2.08909815,125.945124 0.000374658922,126.042565 L0.000374658922,126.776489 C2.08909815,126.679049 4.22340514,126.617837 6.43576608,126.617837 C44.4748864,126.617837 63.823522,141.508696 82.5327397,155.912354 C101.328753,170.384095 120.766058,185.343662 159.01811,185.343662 C197.269537,185.343662 216.707466,170.384095 235.50348,155.912354 C253.123064,142.351303 271.320873,128.36364 305.144456,126.776489 L305.144456,126.042565 C271.110439,127.626592 252.818966,141.686087 235.114459,155.316469 C216.405241,169.719503 197.05723,184.609737 159.01811,184.609737" id="Fill-51" fill="#8272FF"></path>
                <path d="M165.372825,176.585476 C127.33308,176.585476 107.986318,161.692743 89.2764754,147.289709 C70.4798373,132.819842 51.041908,117.858401 12.7904809,117.858401 C8.26772332,117.858401 4.02595989,118.082014 0.000249772615,118.473648 L0.000249772615,119.213819 C4.02595989,118.817812 8.26772332,118.591701 12.7904809,118.591701 C50.8296013,118.591701 70.1782369,133.484434 88.8874546,147.888092 C107.683468,162.357959 127.120773,177.3194 165.372825,177.3194 C203.624876,177.3194 223.062181,162.357959 241.858195,147.888092 C258.337567,135.198382 275.331472,122.148892 305.144331,119.213819 L305.144331,118.477396 C275.126034,121.408097 258.03784,134.53379 241.469174,147.289709 C222.759332,161.692743 203.411945,176.585476 165.372825,176.585476" id="Fill-54" fill="#25D8E9"></path>
                <path d="M171.727477,168.561839 C133.688357,168.561839 114.34097,153.664733 95.6305034,139.262325 C76.8344897,124.79558 57.3965604,109.831016 19.1451334,109.831016 C12.1702331,109.831016 5.83412629,110.341953 6.24431536e-05,111.240151 L6.24431536e-05,111.983445 C5.83100413,111.075253 12.1683598,110.563692 19.1451334,110.563692 C57.1842537,110.563692 76.5328893,125.460172 95.242107,139.86383 C114.038121,154.32995 133.475426,169.295138 171.727477,169.295138 C209.979529,169.295138 229.416833,154.32995 248.212847,139.86383 C263.488316,128.102925 279.194642,116.027837 305.144144,111.985943 L305.144144,111.247022 C278.9942,115.29079 263.189213,127.437708 247.823826,139.262325 C229.113984,153.664733 209.766597,168.561839 171.727477,168.561839" id="Fill-57" fill="#8272FF"></path>
                <path d="M184.436844,152.507256 C146.397724,152.507256 127.049713,137.617022 108.340495,123.215238 C89.543857,108.741623 70.1065521,93.7820557 31.8545006,93.7820557 C19.4582858,93.7820557 9.06212512,95.3710802 0.000374658922,97.9869744 L0.000374658922,98.7546282 C9.05650523,96.1212447 19.4476704,94.5159801 31.8545006,94.5159801 C69.8942454,94.5159801 89.2422566,109.406215 107.951474,123.809873 C126.747488,138.282239 146.185417,153.241181 184.436844,153.241181 C222.688896,153.241181 242.126201,138.282239 260.923463,123.809873 C273.522618,114.109577 286.442107,104.201909 305.144456,98.7571267 L305.144456,97.992596 C286.248533,103.452369 273.233507,113.436865 260.534442,123.215238 C241.823351,137.617022 222.47534,152.507256 184.436844,152.507256" id="Fill-62" fill="#8272FF"></path>
                <path d="M190.791559,144.483619 C152.752439,144.483619 133.404428,129.590262 114.69521,115.187228 C95.8985719,100.717361 76.461267,85.7559201 38.2092155,85.7559201 C22.8063628,85.7559201 10.4882019,88.2062909 0.000249772615,92.0514305 L0.000249772615,92.830952 C10.4775865,88.9627016 22.790752,86.48922 38.2092155,86.48922 C76.2489603,86.48922 95.5975959,101.381953 114.306189,115.78686 C133.102203,130.255478 152.540132,145.216919 190.791559,145.216919 C229.043611,145.216919 248.48154,130.255478 267.278178,115.78686 C278.400553,107.223992 289.780193,98.5143382 305.144331,92.8371982 L305.144331,92.0583013 C289.595986,97.7598014 278.111441,106.547532 266.889157,115.187228 C248.178066,129.590262 228.830055,144.483619 190.791559,144.483619" id="Fill-65" fill="#25D8E9"></path>
                <path d="M197.146836,136.459358 C159.107091,136.459358 139.75908,121.564126 121.049862,107.159844 C102.253849,92.6937238 82.8159194,77.7310338 44.5644923,77.7310338 C25.9414462,77.7310338 11.7999452,81.2944713 6.24431537e-05,86.6018383 L6.24431537e-05,87.3975999 C11.7862077,82.0527559 25.9239621,78.463709 44.5644923,78.463709 C82.6036127,78.463709 101.952248,93.3583158 120.661466,107.762599 C139.45748,122.229343 158.894785,137.192658 197.146836,137.192658 C235.398263,137.192658 254.837441,122.229343 273.632831,107.762599 C283.168525,100.419606 292.886553,92.9635581 305.144144,87.4044706 L305.144144,86.6068353 C292.713585,92.2033997 282.884408,99.7406479 273.244434,107.159844 C254.532094,121.564126 235.184708,136.459358 197.146836,136.459358" id="Fill-68" fill="#8272FF"></path>
                <path d="M222.302185,174.648227 C203.591719,189.051886 184.244957,203.944618 146.206461,203.944618 C108.172336,203.944618 88.8274467,189.051886 70.1201023,174.648227 C52.3962376,161.007226 34.0922759,146.936489 0.000187329461,145.371824 L0.000187329461,146.108872 C33.8837158,147.670413 52.0990082,161.672443 69.7310815,175.247859 C88.5245974,189.716478 107.960029,204.677918 146.206461,204.677918 C184.458512,204.677918 203.895193,189.716478 222.690582,175.247859 C241.401048,160.844201 260.750308,145.950844 298.789429,145.950844 C300.970568,145.950844 303.078649,146.013305 305.144268,146.105749 L305.144268,145.371824 C303.078649,145.280005 300.970568,145.216919 298.789429,145.216919 C260.53488,145.216919 241.098199,160.179609 222.302185,174.648227" id="Fill-73" fill="#25D8E9"></path>
                <path d="M158.915703,219.996327 C120.882203,219.996327 101.536689,205.102345 82.8299691,190.699312 C64.0339554,176.230694 44.601646,161.269253 6.35521441,161.269253 C4.17032846,161.269253 2.06599418,161.327967 0.000374658922,161.425407 L0.000374658922,162.159331 C2.06287202,162.061891 4.17032846,162.001928 6.35521441,162.001928 C44.3887149,162.001928 63.7336039,176.895286 82.4409483,191.298944 C101.23384,205.767562 120.668647,220.729627 158.915703,220.729627 C197.167754,220.729627 216.605684,205.767562 235.400449,191.298944 C253.034395,177.720404 271.252185,163.723996 305.144456,162.159331 L305.144456,161.425407 C271.047372,162.990071 252.734668,177.055812 235.011428,190.699312 C216.30221,205.102345 196.954199,219.996327 158.915703,219.996327" id="Fill-78" fill="#25D8E9"></path>
                <path d="M165.27098,228.020589 C127.236855,228.020589 107.891342,213.12973 89.1846215,198.726697 C70.3886079,184.254331 50.9562984,169.294764 12.7098668,169.294764 C8.21520862,169.294764 4.00216905,169.519001 0.000187329461,169.906263 L0.000187329461,170.642062 C4.00216905,170.252301 8.21520862,170.028688 12.7098668,170.028688 C50.7427429,170.028688 70.0882563,184.918923 88.7956007,199.322581 C107.589117,213.794947 127.023299,228.753889 165.27098,228.753889 C203.522407,228.753889 222.959087,213.794947 241.755101,199.322581 C258.253207,186.621627 275.267717,173.554024 305.144268,170.642062 L305.144268,169.902516 C275.062904,172.8201 257.954104,185.956411 241.36608,198.726697 C222.656862,213.12973 203.308851,228.020589 165.27098,228.020589" id="Fill-81" fill="#8272FF"></path>
                <path d="M184.333813,252.098808 C146.300937,252.098808 126.954799,237.204202 108.248704,222.801168 C89.45269,208.33255 70.0203806,193.36986 31.773949,193.36986 C19.4170733,193.36986 9.04276774,194.949515 0.000374658922,197.551668 L0.000374658922,198.319322 C9.03589899,195.696557 19.4058335,194.10316 31.773949,194.10316 C69.806825,194.10316 89.1529629,208.997142 107.859683,223.4008 C126.653199,237.869418 146.087382,252.832108 184.333813,252.832108 C222.585865,252.832108 242.023794,237.869418 260.818559,223.4008 C273.44394,213.679892 286.385284,203.75536 305.144456,198.316199 L305.144456,197.551668 C286.195456,203.002072 273.154828,213.005931 260.429538,222.801168 C241.721569,237.204202 222.373558,252.098808 184.333813,252.098808" id="Fill-88" fill="#25D8E9"></path>
                <path d="M190.68909,260.121259 C152.65559,260.121259 133.309452,245.232273 114.602732,230.82924 C95.8073424,216.356874 76.3756574,201.397307 38.1292258,201.397307 C22.7644634,201.397307 10.4706553,203.833312 0.000187329461,207.662211 L0.000187329461,208.441733 C10.46004,204.590347 22.7488526,202.131232 38.1292258,202.131232 C76.1621018,202.131232 95.5076153,217.021466 114.21496,231.425124 C133.007851,245.89749 152.442034,260.855183 190.68909,260.855183 C228.940517,260.855183 248.378446,245.89749 267.173211,231.425124 C278.321812,222.844766 289.727678,214.11575 305.144268,208.441733 L305.144268,207.658464 C289.544095,213.359339 278.0327,222.168307 266.78419,230.82924 C248.076221,245.232273 228.72821,260.121259 190.68909,260.121259" id="Fill-91" fill="#8272FF"></path>
                <path d="M197.043805,268.149143 C159.010929,268.149143 139.664167,253.25641 120.957447,238.853377 C102.162682,224.383509 82.7303723,209.422069 44.4839407,209.422069 C25.9052292,209.422069 11.7843344,212.969266 6.24431536e-05,218.259768 L6.24431536e-05,219.052407 C11.7705969,213.728175 25.8839985,210.154744 44.4839407,210.154744 C82.5168167,210.154744 101.86233,225.048101 120.568426,239.451759 C139.361942,253.921627 158.797373,268.883068 197.043805,268.883068 C235.295232,268.883068 254.731912,253.921627 273.527926,239.451759 C283.089222,232.090029 292.83972,224.615867 305.144144,219.051158 L305.144144,218.253522 C292.666128,223.853834 282.80573,231.413569 273.138905,238.853377 C254.432185,253.25641 235.082925,268.149143 197.043805,268.149143" id="Fill-94" fill="#25D8E9"></path>
                <path d="M0.000312215768,295.438891 C17.3376538,296.23028 30.5649871,300.282168 41.7160854,305.859369 L43.3602137,305.859369 C31.8631802,299.892407 18.16565,295.53071 0.000312215768,294.705591 L0.000312215768,295.438891 Z" id="Fill-99" fill="#8272FF"></path>
                <path d="M249.255773,305.859182 L250.899901,305.859182 C263.36293,299.623635 278.40611,295.284423 298.889338,295.284423 C301.039256,295.284423 303.109871,295.34751 305.144268,295.438704 L305.144268,294.706028 C303.109871,294.613585 301.039256,294.551123 298.889338,294.551123 C277.533155,294.551123 262.048502,299.222006 249.255773,305.859182" id="Fill-102" fill="#8272FF"></path>
                <path d="M243.647503,305.859182 C258.731896,295.627962 276.713651,287.28371 305.144019,287.263722 L305.144019,286.530422 C275.961835,286.549785 257.749041,295.290045 242.394269,305.859182 L243.647503,305.859182 Z" id="Fill-107" fill="#25D8E9"></path>
                <path d="M0.000312215768,278.660878 L0.000312215768,279.394178 C2.08903571,279.297362 4.2233427,279.23615 6.43570363,279.23615 C42.1257125,279.23615 61.3607016,292.343729 79.0527203,305.859182 L80.222905,305.859182 C62.2255393,292.068897 42.8650395,278.502225 6.43570363,278.502225 C4.2233427,278.502225 2.08903571,278.563438 0.000312215768,278.660878" id="Fill-110" fill="#8272FF"></path>
                <path d="M238.983187,305.859182 C255.57246,293.186961 273.538604,280.875144 305.144206,279.394178 L305.144206,278.660878 C272.834245,280.16433 254.71574,292.911505 237.813002,305.859182 L238.983187,305.859182 Z" id="Fill-113" fill="#8272FF"></path>
                <path d="M234.827595,305.859182 C237.202933,304.087769 239.537058,302.29387 241.858694,300.506218 C258.337442,287.815883 275.331347,274.765769 305.144206,271.830696 L305.144206,271.095522 C275.125909,274.026223 258.03834,287.151291 241.469049,299.907835 C238.883278,301.898488 236.281272,303.893514 233.623691,305.859182 L234.827595,305.859182 Z" id="Fill-118" fill="#25D8E9"></path>
                <path d="M228.223295,305.859182 L229.613904,305.859182 C236.260353,301.6755 242.270507,297.055211 248.213222,292.481769 C263.48869,280.720863 279.194392,268.644527 305.144518,264.603257 L305.144518,263.865585 C278.994574,267.908104 263.188963,280.055647 247.824201,291.879638 C241.589876,296.681066 235.266883,301.520595 228.223295,305.859182" id="Fill-121" fill="#8272FF"></path>
                <path d="M19.1454456,262.44833 C12.1699209,262.44833 5.83443851,262.959267 0.000374658922,263.858714 L0.000374658922,264.601384 C5.83131635,263.693191 12.1680476,263.182255 19.1454456,263.182255 C57.1845659,263.182255 76.5325771,278.078111 95.2417948,292.481769 C101.18451,297.055211 107.194663,301.6755 113.841113,305.859182 L115.231097,305.859182 C108.188134,301.520595 101.86514,296.681066 95.6301912,291.879638 C76.8348019,277.413519 57.3968726,262.44833 19.1454456,262.44833" id="Fill-124" fill="#8272FF"></path>
                <path d="M220.6934,305.859182 C234.064977,300.194534 244.423047,292.263778 254.568811,284.454821 C268.556077,273.687681 282.899894,262.65258 305.144019,257.763706 L305.144019,257.006671 C282.700076,261.904914 268.261346,273.017467 254.17979,283.855189 C243.671856,291.943349 232.959733,300.188288 218.851951,305.859182 L220.6934,305.859182 Z" id="Fill-127" fill="#25D8E9"></path>
                <path d="M25.5001604,254.425255 C15.9126386,254.425255 7.50841457,255.365303 0.000249772615,257.004922 L0.000249772615,257.761332 C7.50591684,256.110471 15.9057699,255.15918 25.5001604,255.15918 C63.5392808,255.15918 82.8872919,270.051913 101.595885,284.454946 C111.741024,292.263903 122.097846,300.194035 135.470047,305.859307 L137.312745,305.859307 C123.204963,300.188413 112.49284,291.94285 101.98553,283.855314 C83.1895168,269.387321 63.7522119,254.425255 25.5001604,254.425255" id="Fill-130" fill="#25D8E9"></path>
                <path d="M184.436844,305.125382 C146.397724,305.125382 127.049713,290.235148 108.340495,275.832114 C89.543857,261.359748 70.1065521,246.400806 31.8545006,246.400806 C19.4582858,246.400806 9.06212512,247.988581 0.000374658922,250.6051 L0.000374658922,251.372754 C9.05650523,248.739995 19.4476704,247.134731 31.8545006,247.134731 C69.8942454,247.134731 89.2422566,262.02434 107.951474,276.427999 C126.747488,290.89974 146.185417,305.859307 184.436844,305.859307 C222.688896,305.859307 242.126201,290.89974 260.923463,276.427999 C273.522618,266.727079 286.442107,256.821284 305.144456,251.375877 L305.144456,250.610722 C286.248533,256.070495 273.233507,266.053742 260.534442,275.832114 C241.823351,290.235148 222.47534,305.125382 184.436844,305.125382" id="Fill-133" fill="#8272FF"></path>
                <path d="M190.791559,297.101121 C152.752439,297.101121 133.404428,282.208388 114.69521,267.805354 C95.8985719,253.336736 76.461267,238.374046 38.2092155,238.374046 C22.8063628,238.374046 10.4882019,240.824417 0.000249772615,244.670806 L0.000249772615,245.450327 C10.4775865,241.580827 22.790752,239.107346 38.2092155,239.107346 C76.2489603,239.107346 95.5975959,254.001328 114.306189,268.403737 C133.102203,282.873604 152.540132,297.835045 190.791559,297.835045 C229.043611,297.835045 248.48154,282.873604 267.278178,268.403737 C278.400553,259.842118 289.780193,251.131839 305.144331,245.455324 L305.144331,244.675803 C289.595986,250.379177 278.111441,259.165658 266.889157,267.805354 C248.178066,282.208388 228.830055,297.101121 190.791559,297.101121" id="Fill-136" fill="#25D8E9"></path>
                <path d="M197.146836,289.077484 C159.107091,289.077484 139.75908,274.181003 121.049862,259.778594 C102.253849,245.312474 82.8159194,230.34791 44.5644923,230.34791 C25.9414462,230.34791 11.7999452,233.912597 6.24431537e-05,239.219964 L6.24431537e-05,240.01635 C11.7862077,234.670882 25.9239621,231.080586 44.5644923,231.080586 C82.6036127,231.080586 101.952248,245.977066 120.661466,260.380724 C139.45748,274.84622 158.894785,289.810783 197.146836,289.810783 C235.398263,289.810783 254.837441,274.84622 273.632831,260.380724 C283.168525,253.038357 292.886553,245.581684 305.144144,240.022597 L305.144144,239.224961 C292.713585,244.821526 282.884408,252.358774 273.244434,259.778594 C254.532094,274.181003 235.184708,289.077484 197.146836,289.077484" id="Fill-139" fill="#8272FF"></path>
                <path d="M256.176972,305.859182 L258.016547,305.859182 C269.029022,301.4319 282.111487,298.568657 298.789429,298.568657 C300.970568,298.568657 303.078649,298.631744 305.144268,298.723562 L305.144268,297.989638 C303.078649,297.897819 300.970568,297.834733 298.789429,297.834733 C281.181084,297.834733 267.583463,301.027773 256.176972,305.859182" id="Fill-144" fill="#25D8E9"></path>
                <path d="M0.000312215768,298.726685 C13.6947202,299.360046 24.8408232,302.013418 34.4089876,305.859182 L36.2491873,305.859182 C26.2570339,301.627405 14.5807886,298.660476 0.000312215768,297.989638 L0.000312215768,298.726685 Z" id="Fill-147" fill="#25D8E9"></path>
            </g>
        </g>
    </g>
</svg>