<?xml version="1.0" encoding="utf-8"?>
<!-- Generator: Adobe Illustrator 21.1.0, SVG Export Plug-In . SVG Version: 6.00 Build 0)  -->
<svg version="1.1" id="Layer_1" xmlns="http://www.w3.org/2000/svg" xmlns:xlink="http://www.w3.org/1999/xlink" x="0px" y="0px"
	 viewBox="0 0 427 428" style="enable-background:new 0 0 427 428;" xml:space="preserve">
<style type="text/css">
	.st0{opacity:5.000000e-02;}
</style>
<path class="st0" d="M133.5,75C107.2,54.7,79.9,33.8,26.3,33.8c-9.7,0-18.6,0.7-26.7,2v1c8.1-1.3,17-2,26.7-2
	c53.3,0,80.5,20.9,106.7,41.1c26.4,20.3,53.6,41.3,107.2,41.3s80.9-21,107.2-41.3c21.4-16.5,43.5-33.5,80-39.1v-1
	c-36.7,5.7-58.9,22.7-80.5,39.3c-26.2,20.2-53.4,41.1-106.7,41.1C186.9,116.1,159.8,95.2,133.5,75z M249.1,127.4
	c-53.3,0-80.5-20.9-106.7-41.1C116.1,66,88.8,45,35.2,45c-13.4,0-25.1,1.3-35.6,3.6v1.1C10.1,47.4,21.8,46,35.2,46
	c53.3,0,80.5,20.9,106.7,41.1c26.4,20.3,53.6,41.3,107.2,41.3s80.9-21,107.2-41.3C376,72,396.2,56.5,427.4,49.7v-1.1
	c-31.6,6.8-51.8,22.5-71.6,37.7C329.6,106.5,302.5,127.4,249.1,127.4 M284.8,172.4c-53.3,0-80.5-20.9-106.7-41.1
	C151.7,111,124.5,90,70.8,90c-30.9,0-53,7-71.3,16.8v1.2c18.2-9.8,40.3-16.9,71.3-16.9c53.3,0,80.5,20.9,106.7,41.1
	c26.4,20.3,53.6,41.3,107.2,41.3s80.9-21,107.2-41.3c11-8.5,22.2-17.1,35.4-24.2v-1.2c-13.4,7.2-24.8,15.9-36,24.5
	C365.2,151.5,338.1,172.4,284.8,172.4 M213.6,269.2c-53.3,0-80.5-20.9-106.7-41.1c-26.4-20.3-53.6-41.3-107.2-41.3h-0.1v1h0.1
	c53.3,0,80.5,20.9,106.7,41.1c26.4,20.3,53.6,41.3,107.2,41.3s80.9-21,107.2-41.3c26.2-20.2,53.3-41,106.6-41.1v-1
	c-53.5,0-80.8,21-107.1,41.3C294.1,248.4,267,269.2,213.6,269.2 M249.3,224.2c-53.3,0-80.5-20.9-106.7-41.1
	c-26.4-20.3-53.6-41.3-107.2-41.3c-13.4,0-25.2,1.3-35.8,3.6v1.1c10.5-2.3,22.3-3.6,35.8-3.6c53.3,0,80.5,20.9,106.7,41.1
	c26.4,20.3,53.6,41.3,107.2,41.3s80.9-21,107.2-41.3c19.6-15.1,39.7-30.6,70.9-37.4v-1.1c-31.5,6.9-51.7,22.4-71.5,37.6
	C329.7,203.3,302.6,224.2,249.3,224.2 M284.9,179.2c-53.3,0-80.5-20.9-106.7-41.1C151.9,117.8,124.6,96.9,71,96.9
	c-31,0-53.1,7-71.4,16.8v1.2c18.3-9.9,40.4-17,71.4-17c53.3,0,80.5,20.9,106.7,41.1c26.4,20.3,53.6,41.3,107.2,41.3
	s80.9-21,107.2-41.3c11-8.5,22.1-17,35.3-24.1v-1.2c-13.4,7.2-24.7,15.9-35.8,24.4C365.4,158.3,338.3,179.2,284.9,179.2
	 M213.5,296.4c-53.3,0-80.5-20.9-106.7-41.1C80.4,235,53.2,214-0.4,214v1c53.3,0,80.5,20.9,106.7,41.1
	c26.4,20.3,53.6,41.3,107.2,41.3s80.9-21,107.2-41.3C347,235.9,374.1,215,427.4,215v-1c-53.6,0-80.9,21-107.3,41.3
	C294,275.5,266.8,296.4,213.5,296.4 M240.2,330.1c-53.3,0-80.5-20.9-106.7-41.1c-26.4-20.3-53.6-41.3-107.2-41.3
	c-9.7,0-18.6,0.7-26.7,2v1c8.1-1.3,17-2,26.7-2c53.3,0,80.5,20.9,106.7,41.1c26.4,20.3,53.6,41.3,107.2,41.3s80.9-21,107.2-41.3
	c21.4-16.5,43.5-33.5,80-39.1v-1c-36.7,5.6-58.9,22.7-80.5,39.3C320.7,309.2,293.6,330.1,240.2,330.1 M249.1,341.4
	c-53.3,0-80.5-20.9-106.7-41.1C116.1,280,88.8,259,35.2,259c-13.4,0-25.1,1.3-35.6,3.6v1.1c10.5-2.3,22.2-3.6,35.6-3.6
	c53.3,0,80.5,20.9,106.7,41.1c26.4,20.3,53.6,41.3,107.2,41.3s80.9-21,107.2-41.3c19.6-15.1,39.8-30.6,71.1-37.5v-1.1
	c-31.6,6.8-51.8,22.5-71.6,37.7C329.6,320.5,302.5,341.4,249.1,341.4 M284.8,386.4c-53.3,0-80.5-20.9-106.7-41.1
	C151.7,325,124.5,304,70.8,304c-30.9,0-53,7-71.3,16.8v1.2c18.2-9.8,40.3-16.9,71.3-16.9c53.3,0,80.5,20.9,106.7,41.1
	c26.4,20.3,53.6,41.3,107.2,41.3s80.9-21,107.2-41.3c11-8.5,22.2-17.1,35.4-24.2v-1.2c-13.4,7.2-24.8,15.9-36,24.5
	C365.2,365.5,338.1,386.4,284.8,386.4 M-0.4,400.9v1h0.1c39.9,0,65.2,11.7,86.4,26.1h1.8c-21.6-14.8-47.1-27.1-88.1-27.1H-0.4z
	 M-0.4,379.2v1c5.6-0.6,11.6-0.9,17.9-0.9c53.3,0,80.5,20.9,106.7,41.1c3.3,2.5,6.5,5,9.9,7.5h1.7c-3.7-2.8-7.4-5.6-11-8.3
	c-26.4-20.3-53.6-41.3-107.2-41.3C11.2,378.4,5.2,378.7-0.4,379.2z M284.9,393.2c-53.3,0-80.5-20.9-106.7-41.1
	c-26.4-20.3-53.6-41.3-107.2-41.3c-31,0-53.1,7-71.4,16.8v1.2c18.3-9.9,40.4-17,71.4-17c53.3,0,80.5,20.9,106.7,41.1
	c26.4,20.3,53.6,41.3,107.2,41.3s80.9-21,107.2-41.3c11-8.5,22.1-17,35.3-24.1v-1.2c-13.4,7.2-24.7,15.9-35.8,24.4
	C365.4,372.3,338.3,393.2,284.9,393.2 M204.7,67.5c53.6,0,80.9-21,107.2-41.3c12.1-9.3,24.4-18.8,39.4-26.3H349
	c-14.2,7.4-26,16.5-37.6,25.4C285.2,45.5,258,66.4,204.7,66.4S124.2,45.5,98,25.3c-11.6-9-23.5-18-37.7-25.4H58
	c15,7.5,27.3,16.9,39.4,26.3C123.8,46.5,151.1,67.5,204.7,67.5 M213.6,56.3c53.6,0,80.9-21,107.2-41.3c6.6-5.1,13.2-10.2,20.3-15
	h-1.8c-6.6,4.6-12.9,9.4-19.1,14.2c-26.1,20.2-53.2,41-106.6,41c-53.3,0-80.5-20.9-106.7-41.1C100.7,9.4,94.4,4.6,87.8,0H86
	c7.1,4.8,13.7,9.9,20.3,15C132.7,35.3,160,56.3,213.6,56.3 M222.5,45c53.6,0,80.9-21,107.2-41.3c1.6-1.2,3.2-2.5,4.9-3.7H333
	c-1.3,1-2.5,1.9-3.8,2.9C303,23.1,275.9,44,222.5,44C169.2,44,142,23.1,115.8,2.9c-1.3-1-2.5-1.9-3.8-2.9h-1.6
	c1.6,1.2,3.3,2.5,4.9,3.7C141.6,24,168.9,45,222.5,45 M328.8,0h-1.7c-23.2,17.2-49.7,32.7-95.7,32.7S158.9,17.2,135.7,0H134
	c23.6,17.6,50.4,33.8,97.4,33.8S305.2,17.6,328.8,0 M321.5,0h-1.9c-19.8,12.2-43.7,21.5-79.2,21.5S180.9,12.2,161.1,0h-1.9
	c20.2,12.7,44.5,22.5,81.2,22.5C277,22.5,301.4,12.7,321.5,0 M309,0h-2.6c-15.4,6.2-33.8,10.2-57.2,10.2S207.5,6.2,192,0h-2.6
	c16,6.8,35.1,11.3,59.8,11.3C274,11.3,293,6.8,309,0 M204.6,72.1c53.6,0,80.9-21,107.2-41.3C326.6,19.5,341.6,8,361.4,0h-2.6
	c-18.8,7.9-33.3,19.1-47.5,30C285,50.2,257.9,71.1,204.6,71.1S124.1,50.2,97.9,30C83.7,19.1,69.1,7.9,50.4,0h-2.6
	c19.8,8,34.8,19.5,49.5,30.9C123.7,51.1,150.9,72.1,204.6,72.1 M320.2,41.3c-26.2,20.2-53.4,41-106.7,41S133,61.4,106.8,41.2
	C80.4,21,53.2,0-0.4,0v1C52.9,1,80,21.9,106.3,42.1c26.4,20.3,53.6,41.3,107.2,41.3s80.9-21,107.2-41.3C347,21.9,374.1,1,427.4,1V0
	C373.8,0,346.5,21,320.2,41.3 M222.4,93.6c-53.3,0-80.5-20.9-106.7-41.1C89.4,32.2,62.1,11.3,8.5,11.3c-3.1,0-6,0.1-8.9,0.2v1
	c2.9-0.1,5.8-0.2,8.9-0.2c53.3,0,80.5,20.9,106.7,41.1c26.4,20.3,53.6,41.3,107.2,41.3s80.9-21,107.2-41.3
	c24.7-19,50.3-38.7,97.8-40.9v-1c-47.8,2.2-73.5,21.9-98.3,41C302.9,72.7,275.7,93.6,222.4,93.6 M231.3,104.9
	c-53.3,0-80.5-20.9-106.7-41.1C98.3,43.5,71,22.5,17.4,22.5c-6.3,0-12.2,0.3-17.8,0.9v1c5.6-0.5,11.5-0.9,17.8-0.9
	c53.3,0,80.5,20.9,106.7,41.1c26.4,20.3,53.6,41.3,107.2,41.3s80.9-21,107.2-41.3c23.1-17.8,47-36.1,88.9-40.2v-1
	c-42.2,4.1-66.2,22.5-89.4,40.4C311.8,84,284.6,104.9,231.3,104.9 M258,138.6c-53.3,0-80.5-20.9-106.7-41.1
	C125,77.2,97.7,56.3,44.1,56.3c-17.3,0-31.9,2.2-44.6,5.9v1.1c12.7-3.7,27.2-5.9,44.6-5.9c53.3,0,80.5,20.9,106.7,41.1
	c26.4,20.3,53.6,41.3,107.2,41.3s80.9-21,107.2-41.3C382.9,84.9,401,71,427.4,63.3v-1.1c-26.6,7.6-44.9,21.7-62.7,35.4
	C338.5,117.7,311.4,138.6,258,138.6 M266.9,149.9c-53.3,0-80.5-20.9-106.7-41.1C133.9,88.5,106.7,67.5,53,67.5
	c-21.5,0-38.8,3.4-53.5,8.8v1.1c14.7-5.4,32-8.8,53.5-8.8c53.3,0,80.5,20.9,106.7,41.1C186.1,130,213.3,151,266.9,151
	s80.9-21,107.2-41.3c15.6-12,31.6-24.3,53.2-32.2v-1.1c-21.9,8-38,20.3-53.8,32.5C347.4,129,320.3,149.9,266.9,149.9 M275.9,161.1
	c-53.3,0-80.5-20.9-106.7-41.1C142.8,99.7,115.6,78.7,62,78.7c-26.1,0-45.9,5-62.4,12.4v1.1C16.1,84.7,35.9,79.7,62,79.7
	c53.3,0,80.5,20.9,106.7,41.1c26.4,20.3,53.6,41.3,107.2,41.3s80.9-21,107.2-41.3c13.4-10.3,27.1-20.8,44.3-28.6v-1.1
	c-17.5,7.9-31.3,18.4-44.9,28.9C356.3,140.2,329.2,161.1,275.9,161.1 M311.4,239.4c-26.2,20.2-53.4,41.1-106.7,41.1
	S124.2,259.6,98,239.4c-24.9-19.1-50.6-38.9-98.5-41.1v1c47.6,2.2,73.2,21.8,97.9,40.9c26.4,20.3,53.6,41.3,107.2,41.3
	s80.9-21,107.2-41.3c26.2-20.2,53.4-41.1,106.7-41.1c3,0,5.9,0.1,8.8,0.2v-1c-2.9-0.1-5.8-0.2-8.8-0.2
	C365,198.1,337.8,219.1,311.4,239.4 M222.5,258c-53.3,0-80.5-20.9-106.7-41.1c-26.4-20.3-53.6-41.3-107.2-41.3c-3.1,0-6.1,0.1-9,0.2
	v1c2.9-0.1,5.9-0.2,9-0.2c53.3,0,80.5,20.9,106.7,41.1C141.6,238,168.9,259,222.5,259s80.9-21,107.2-41.3
	c24.7-19,50.2-38.6,97.7-40.9v-1c-47.7,2.2-73.4,21.9-98.2,41C303,237.1,275.9,258,222.5,258 M231.4,246.7
	c-53.3,0-80.5-20.9-106.7-41.1c-26.4-20.3-53.6-41.3-107.2-41.3c-6.3,0-12.3,0.3-17.9,0.9v1c5.6-0.6,11.6-0.9,17.9-0.9
	c53.3,0,80.5,20.9,106.7,41.1c26.4,20.3,53.6,41.3,107.2,41.3s80.9-21,107.2-41.3c23.1-17.8,46.9-36.1,88.7-40.2v-1
	c-42.1,4.1-66.1,22.5-89.3,40.4C311.9,225.9,284.8,246.7,231.4,246.7 M240.4,235.5c-53.3,0-80.5-20.9-106.7-41.1
	c-26.4-20.3-53.6-41.3-107.2-41.3c-9.8,0-18.7,0.7-26.8,2v1c8.2-1.3,17.1-2,26.8-2c53.3,0,80.5,20.9,106.7,41.1
	c26.4,20.3,53.6,41.3,107.2,41.3s80.9-21,107.2-41.3c21.4-16.5,43.4-33.4,79.8-39.1v-1c-36.7,5.7-58.8,22.7-80.4,39.3
	C320.8,214.6,293.7,235.5,240.4,235.5 M258.2,213c-53.3,0-80.5-20.9-106.7-41.1c-26.4-20.3-53.6-41.3-107.2-41.3
	c-17.4,0-32,2.2-44.7,5.9v1.1c12.7-3.7,27.3-5.9,44.7-5.9c53.3,0,80.5,20.9,106.7,41.1C177.3,193,204.5,214,258.2,214
	c53.6,0,80.9-21,107.2-41.3c17.7-13.6,35.8-27.5,62-35.1v-1.1c-26.5,7.7-44.7,21.7-62.6,35.4C338.6,192.1,311.5,213,258.2,213
	 M267.1,201.7c-53.3,0-80.5-20.9-106.7-41.1c-26.4-20.3-53.6-41.3-107.2-41.3c-21.6,0-38.9,3.4-53.6,8.8v1.1
	c14.7-5.4,32-8.9,53.6-8.9c53.3,0,80.5,20.9,106.7,41.1c26.4,20.3,53.6,41.3,107.2,41.3s80.9-21,107.2-41.3
	c15.6-12,31.6-24.2,53.1-32.2v-1.1c-21.8,8-37.9,20.3-53.6,32.4C347.6,180.8,320.4,201.7,267.1,201.7 M276,190.5
	c-53.3,0-80.5-20.9-106.7-41.1c-26.4-20.3-53.6-41.3-107.2-41.3c-26.1,0-45.9,5-62.5,12.4v1.1c16.5-7.5,36.4-12.5,62.5-12.5
	c53.3,0,80.5,20.9,106.7,41.1c26.4,20.3,53.6,41.3,107.2,41.3s80.9-21,107.2-41.3c13.4-10.3,27-20.8,44.2-28.5v-1.1
	c-17.4,7.8-31.2,18.4-44.7,28.8C356.5,169.6,329.3,190.5,276,190.5 M311.3,244c-26.2,20.2-53.4,41.1-106.7,41.1
	S124.1,264.2,97.9,244C73,224.9,47.4,205.2-0.4,203v1c47.5,2.2,73.1,21.8,97.8,40.9c26.4,20.3,53.6,41.3,107.2,41.3
	s80.9-21,107.2-41.3c26.2-20.2,53.4-41.1,106.7-41.1c3.1,0,6,0.1,8.9,0.2v-1c-2.9-0.1-5.9-0.2-8.9-0.2
	C364.9,202.7,337.6,223.7,311.3,244 M222.4,307.6c-53.3,0-80.5-20.9-106.7-41.1c-26.4-20.3-53.6-41.3-107.2-41.3
	c-3.1,0-6,0.1-8.9,0.2v1c2.9-0.1,5.8-0.2,8.9-0.2c53.3,0,80.5,20.9,106.7,41.1c26.4,20.3,53.6,41.3,107.2,41.3s80.9-21,107.2-41.3
	c24.7-19,50.3-38.7,97.8-40.9v-1c-47.8,2.2-73.5,21.9-98.3,41C302.9,286.7,275.7,307.6,222.4,307.6 M231.3,318.9
	c-53.3,0-80.5-20.9-106.7-41.1C98.3,257.5,71,236.5,17.4,236.5c-6.3,0-12.2,0.3-17.8,0.9v1c5.6-0.5,11.5-0.9,17.8-0.9
	c53.3,0,80.5,20.9,106.7,41.1c26.4,20.3,53.6,41.3,107.2,41.3s80.9-21,107.2-41.3c23.1-17.8,47-36.1,88.9-40.2v-1
	c-42.2,4.1-66.2,22.5-89.4,40.4C311.8,298,284.6,318.9,231.3,318.9 M258,352.6c-53.3,0-80.5-20.9-106.7-41.1
	c-26.4-20.3-53.6-41.3-107.2-41.3c-17.3,0-31.9,2.2-44.6,5.9v1.1c12.7-3.7,27.2-5.9,44.6-5.9c53.3,0,80.5,20.9,106.7,41.1
	c26.4,20.3,53.6,41.3,107.2,41.3s80.9-21,107.2-41.3c17.7-13.6,35.8-27.5,62.2-35.2v-1.1c-26.6,7.6-44.9,21.7-62.7,35.4
	C338.5,331.7,311.4,352.6,258,352.6 M266.9,363.9c-53.3,0-80.5-20.9-106.7-41.1c-26.4-20.3-53.6-41.3-107.2-41.3
	c-21.5,0-38.8,3.4-53.5,8.8v1.1c14.7-5.4,31.9-8.8,53.5-8.8c53.3,0,80.5,20.9,106.7,41.1C186.1,344,213.3,365,266.9,365
	s80.9-21,107.2-41.3c15.6-12,31.6-24.3,53.2-32.2v-1.1c-21.9,8-38,20.3-53.8,32.5C347.4,343,320.3,363.9,266.9,363.9 M275.9,375.1
	c-53.3,0-80.5-20.9-106.7-41.1c-26.4-20.3-53.6-41.3-107.2-41.3c-26.1,0-45.9,5-62.4,12.4v1.1c16.5-7.5,36.3-12.5,62.4-12.5
	c53.3,0,80.5,20.9,106.7,41.1c26.4,20.3,53.6,41.3,107.2,41.3s80.9-21,107.2-41.3c13.4-10.3,27.1-20.8,44.3-28.6v-1.1
	c-17.5,7.9-31.3,18.5-44.9,28.9C356.3,354.2,329.2,375.1,275.9,375.1 M-0.4,413.4c24.3,1.1,42.9,6.8,58.5,14.6h2.3
	c-16.1-8.4-35.3-14.5-60.8-15.6C-0.4,412.4-0.4,413.4-0.4,413.4z M349.1,428h2.3c17.5-8.7,38.6-14.8,67.3-14.8c3,0,5.9,0.1,8.8,0.2
	v-1c-2.9-0.1-5.8-0.2-8.8-0.2C388.7,412.1,367,418.7,349.1,428 M341.2,428c21.2-14.3,46.4-26,86.2-26.1v-1
	c-40.9,0-66.5,12.3-88,27.1H341.2z M-0.4,389.9v1c2.9-0.1,5.9-0.2,9-0.2c50,0,77,18.4,101.8,37.3h1.6
	c-25.2-19.3-52.4-38.4-103.5-38.4C5.5,389.6,2.5,389.7-0.4,389.9 M334.7,428c23.3-17.8,48.5-35,92.8-37.1v-1
	c-45.3,2.1-70.7,20-94.4,38.1H334.7z M328.8,428c3.3-2.5,6.6-5,9.9-7.5c23.1-17.8,46.9-36.1,88.7-40.2v-1
	c-42.1,4.1-66.1,22.5-89.3,40.4c-3.6,2.8-7.3,5.6-11,8.3L328.8,428L328.8,428z M319.6,428h1.9c9.3-5.9,17.7-12.3,26.1-18.8
	c21.4-16.5,43.4-33.4,79.8-39.1v-1c-36.7,5.7-58.8,22.7-80.4,39.3C338.3,415.1,329.5,421.9,319.6,428 M26.4,367.1
	c-9.8,0-18.7,0.7-26.8,2v1c8.2-1.3,17.1-2,26.8-2c53.3,0,80.5,20.9,106.7,41.1c8.3,6.4,16.8,12.9,26.1,18.8h1.9
	c-9.9-6.1-18.7-12.9-27.5-19.6C107.3,388.1,80,367.1,26.4,367.1 M309,428c18.7-7.9,33.3-19.1,47.5-30c19.6-15.1,39.7-30.6,70.9-37.4
	v-1.1c-31.5,6.9-51.7,22.5-71.5,37.6c-14.7,11.3-29.8,22.9-49.5,30.9H309z M35.3,355.9c-13.4,0-25.2,1.3-35.8,3.6v1.1
	c10.5-2.3,22.3-3.6,35.8-3.6c53.3,0,80.5,20.9,106.7,41.1c14.2,10.9,28.7,22.1,47.5,30h2.6c-19.8-8-34.8-19.5-49.5-30.9
	C116.2,376.9,89,355.9,35.3,355.9 M258.2,427c-53.3,0-80.5-20.9-106.7-41.1c-26.4-20.3-53.6-41.3-107.2-41.3
	c-17.4,0-32,2.2-44.7,5.9v1.1c12.7-3.7,27.3-5.9,44.7-5.9c53.3,0,80.5,20.9,106.7,41.1C177.3,407,204.5,428,258.2,428
	c53.6,0,80.9-21,107.2-41.3c17.7-13.6,35.8-27.5,62-35.1v-1.1c-26.5,7.7-44.7,21.7-62.6,35.4C338.6,406.1,311.5,427,258.2,427
	 M267.1,415.7c-53.3,0-80.5-20.9-106.7-41.1c-26.4-20.3-53.6-41.3-107.2-41.3c-21.6,0-38.9,3.4-53.6,8.8v1.1
	c14.7-5.4,32-8.9,53.6-8.9c53.3,0,80.5,20.9,106.7,41.1c26.4,20.3,53.6,41.3,107.2,41.3s80.9-21,107.2-41.3
	c15.6-12,31.6-24.2,53.1-32.2v-1.1c-21.8,8-37.9,20.3-53.6,32.4C347.6,394.8,320.4,415.7,267.1,415.7 M276,404.5
	c-53.3,0-80.5-20.9-106.7-41.1c-26.4-20.3-53.6-41.3-107.2-41.3c-26.1,0-45.9,5-62.5,12.4v1.1c16.5-7.5,36.4-12.5,62.5-12.5
	c53.3,0,80.5,20.9,106.7,41.1c26.4,20.3,53.6,41.3,107.2,41.3s80.9-21,107.2-41.3c13.4-10.3,27-20.8,44.2-28.5v-1.1
	c-17.4,7.8-31.2,18.4-44.7,28.8C356.5,383.6,329.3,404.5,276,404.5 M358.8,428h2.6c15.4-6.2,33.8-10.2,57.2-10.2
	c3.1,0,6,0.1,8.9,0.2v-1c-2.9-0.1-5.9-0.2-8.9-0.2C393.8,416.7,374.8,421.2,358.8,428 M-0.4,418c19.2,0.9,34.8,4.6,48.2,10h2.6
	c-14-5.9-30.4-10.1-50.8-11C-0.4,417-0.4,418-0.4,418z"/>
</svg>
