<?xml version="1.0" encoding="utf-8"?>
<!-- Generator: Adobe Illustrator 21.1.0, SVG Export Plug-In . SVG Version: 6.00 Build 0)  -->
<svg version="1.1" id="Layer_1" xmlns="http://www.w3.org/2000/svg" xmlns:xlink="http://www.w3.org/1999/xlink" x="0px" y="0px"
	 viewBox="0 0 40 35.4" style="enable-background:new 0 0 40 35.4;" xml:space="preserve">
<style type="text/css">
	.st0{fill:#8272FF;}
</style>
<title>mail</title>
<desc>Created with Sketch.</desc>
<g>
	<path class="st0" d="M13.9,4.2h1.6v27h-1.6l-6.8-6.8H2V10.9h5.1L13.9,4.2z M13.2,8l-5.1,5.1H4.2v9h3.9l5.1,5.2V8z M21.9,11.3
		c0.9,0.9,1.5,1.8,2,2.9s0.7,2.2,0.7,3.4s-0.2,2.4-0.7,3.4s-1.1,2.1-2,2.9l-1.6-1.6c0.6-0.6,1.1-1.4,1.5-2.2s0.5-1.7,0.5-2.6
		s-0.2-1.8-0.5-2.6s-0.8-1.6-1.5-2.2L21.9,11.3z M31.2,17.7c0,2.1-0.4,4.1-1.2,6s-1.9,3.6-3.4,5.1L25,27.2c1.3-1.3,2.3-2.7,2.9-4.4
		s1-3.4,1-5.2s-0.3-3.5-1-5.2S26.3,9.4,25,8.1l1.6-1.6c1.5,1.5,2.6,3.2,3.4,5.1S31.2,15.6,31.2,17.7z M31.4,1.8
		c1.1,1.1,2,2.2,2.8,3.4s1.5,2.5,2.1,3.9s1,2.7,1.3,4.2s0.4,2.9,0.4,4.4c0,1.5-0.1,3-0.4,4.4s-0.7,2.8-1.3,4.2s-1.2,2.6-2.1,3.9
		s-1.8,2.4-2.8,3.4L29.8,32c0.9-0.9,1.8-2,2.5-3.1s1.4-2.3,1.9-3.5s0.9-2.5,1.1-3.8s0.4-2.6,0.4-4s-0.1-2.7-0.4-4s-0.6-2.6-1.1-3.8
		s-1.1-2.4-1.9-3.5s-1.6-2.1-2.5-3.1L31.4,1.8z"/>
</g>
</svg>
