<?xml version="1.0" encoding="utf-8"?>
<!-- Generator: Adobe Illustrator 21.1.0, SVG Export Plug-In . SVG Version: 6.00 Build 0)  -->
<svg version="1.1" id="Layer_1" xmlns="http://www.w3.org/2000/svg" xmlns:xlink="http://www.w3.org/1999/xlink" x="0px" y="0px"
	 viewBox="0 0 40 35.5" style="enable-background:new 0 0 40 35.5;" xml:space="preserve">
<style type="text/css">
	.st0{fill:#8272FF;}
</style>
<title>mail</title>
<desc>Created with Sketch.</desc>
<g>
	<path class="st0" d="M34.6,11c0.5,0,0.9,0.1,1.3,0.3s0.8,0.4,1.1,0.7s0.5,0.7,0.7,1.1s0.3,0.8,0.3,1.3v10.2c0,1.5-0.3,2.7-0.9,3.8
		s-1.4,2-2.4,2.8s-2.1,1.3-3.3,1.7c-1.3,0.4-2.5,0.6-3.9,0.6c-1.1,0-2.1-0.1-2.9-0.2c-0.8-0.1-1.5-0.3-2.2-0.6
		c-0.6-0.2-1.2-0.6-1.7-0.9c-0.5-0.4-1-0.8-1.5-1.3s-1-1-1.6-1.6s-1.2-1.2-1.9-1.9c-0.4-0.4-0.8-0.8-1.1-1.1s-0.8-0.8-1.1-1.1
		c-0.8,0.4-1.6,0.8-2.4,1.1S9.5,26.6,8.7,27l-2-4.4c-0.8,0.8-1.5,1.5-2.3,2.3S2.8,26.4,2,27.2v-25l15.8,15.8V5.4
		c0-0.5,0.1-0.9,0.3-1.3s0.4-0.8,0.7-1.1s0.7-0.5,1.1-0.7C20.2,2.1,20.7,2,21.1,2c0.7,0,1.2,0.1,1.6,0.3s0.8,0.5,1,0.9
		s0.4,0.8,0.5,1.3s0.2,1,0.2,1.5s0,1,0,1.5s0,1,0,1.4c0.4-0.1,0.8-0.2,1.1-0.2c0.4,0,0.8,0.1,1.2,0.2s0.7,0.4,1,0.6
		c0.3-0.3,0.7-0.5,1-0.6s0.8-0.2,1.2-0.2c0.4,0,0.7,0.1,1.1,0.2s0.7,0.3,1,0.5s0.5,0.5,0.7,0.8s0.4,0.6,0.5,1
		C33.8,11.1,34.2,11,34.6,11z M11.8,23l-2.4-5.3h5L4.2,7.6v14.2l3.1-3.1L9.8,24L11.8,23z M35.8,14.4c0-0.3-0.1-0.6-0.3-0.8
		s-0.5-0.3-0.8-0.3c-0.3,0-0.5,0.1-0.7,0.3s-0.3,0.4-0.4,0.7s-0.1,0.6-0.2,0.9s0,0.7,0,1s0,0.6,0.1,0.9s0,0.5,0,0.7h-2.2v-3.4
		c0-0.2,0-0.5,0.1-0.9s0-0.8,0-1.1s-0.1-0.7-0.3-0.9S30.5,11,30.1,11c-0.3,0-0.6,0.1-0.8,0.3S29,11.8,29,12.1v5.6h-2.2v-5.6
		c0-0.3-0.1-0.6-0.3-0.8S25.9,11,25.6,11s-0.5,0.1-0.7,0.3s-0.3,0.4-0.4,0.7s-0.1,0.6-0.1,0.9s0,0.7,0,1s0,0.6,0.1,0.9s0,0.5,0,0.7
		v2.2h-2.2v-5.6V5.4c0-0.3-0.1-0.6-0.3-0.8s-0.5-0.3-0.8-0.3s-0.6,0.1-0.8,0.3S20,5.1,20,5.4v16.9c-0.3-0.1-0.8-0.3-1.3-0.6
		s-1.1-0.5-1.7-0.8c-0.6-0.3-1.2-0.5-1.8-0.7s-1-0.3-1.4-0.3c-0.2,0-0.4,0-0.5,0.1S13,20.3,13,20.5c0,0.2,0.1,0.4,0.2,0.6
		s0.3,0.3,0.4,0.5c0.3,0.3,0.6,0.6,1.1,1.1s0.9,1,1.5,1.5s1.1,1.1,1.7,1.7s1.1,1.2,1.6,1.7s1,1,1.4,1.3s0.7,0.6,0.9,0.8
		c0.6,0.4,1,0.6,1.5,0.8s0.9,0.3,1.3,0.4s0.9,0.2,1.4,0.2s1,0,1.7,0c1,0,2-0.1,3-0.4s1.9-0.7,2.6-1.2s1.4-1.2,1.9-2.1s0.7-1.8,0.7-3
		C35.8,24.6,35.8,14.4,35.8,14.4z"/>
</g>
</svg>
