<?xml version="1.0" encoding="utf-8"?>
<!-- Generator: Adobe Illustrator 21.1.0, SVG Export Plug-In . SVG Version: 6.00 Build 0)  -->
<svg version="1.1" id="Layer_1" xmlns="http://www.w3.org/2000/svg" xmlns:xlink="http://www.w3.org/1999/xlink" x="0px" y="0px"
	 viewBox="0 0 33.2 40" style="enable-background:new 0 0 33.2 40;" xml:space="preserve">
<style type="text/css">
	.st0{fill:#8272FF;}
</style>
<title>mail</title>
<desc>Created with Sketch.</desc>
<g>
	<path class="st0" d="M31.2,11v22.5c0,0.6-0.1,1.2-0.4,1.7s-0.6,1-1,1.4s-0.9,0.7-1.4,1S27.4,38,26.8,38H6.5c-0.6,0-1.2-0.1-1.7-0.4
		s-1-0.6-1.4-1s-0.7-0.9-1-1.4S2,34.1,2,33.5V11h4.5V8.8C6.5,7.8,6.7,7,7,6.1S7.9,4.6,8.5,4s1.3-1.1,2.1-1.4S12.3,2,13.2,2
		c1.2,0,2.4,0.3,3.4,0.9C17.7,2.3,18.8,2,20,2c0.9,0,1.8,0.2,2.6,0.5s1.5,0.8,2.1,1.4c0.6,0.6,1.1,1.3,1.5,2.1s0.5,1.7,0.5,2.6V11
		H31.2z M22.8,35.8c-0.4-0.7-0.6-1.5-0.6-2.2V13.2h-18v20.2c0,0.3,0.1,0.6,0.2,0.9s0.3,0.5,0.5,0.7s0.4,0.4,0.7,0.5s0.6,0.2,0.9,0.2
		C6.5,35.8,22.8,35.8,22.8,35.8z M8.8,11h9V8.8c0-0.6-0.1-1.2-0.4-1.7s-0.6-1-1-1.4s-0.9-0.7-1.4-1s-1.1-0.4-1.7-0.4
		c-0.6,0-1.2,0.1-1.7,0.4s-1,0.6-1.4,1S9.4,6.5,9.1,7S8.8,8.1,8.8,8.8V11z M24.5,8.8c0-0.6-0.1-1.2-0.4-1.7s-0.6-1-1-1.4
		s-0.9-0.7-1.4-1S20.6,4.2,20,4.2c-0.5,0-1,0.1-1.5,0.3c0.4,0.5,0.7,1,0.9,1.5s0.4,1,0.4,1.5S20,8.6,20,9.2s0,1.2,0,1.8h4.5V8.8z
		 M29,13.2h-4.5v20.2c0,0.3,0.1,0.6,0.2,0.9s0.3,0.5,0.5,0.7s0.4,0.4,0.7,0.5s0.6,0.2,0.9,0.2s0.6-0.1,0.9-0.2s0.5-0.3,0.7-0.5
		s0.4-0.4,0.5-0.7s0.2-0.6,0.2-0.9C29,33.5,29,13.2,29,13.2z"/>
</g>
</svg>
