<?xml version="1.0" encoding="UTF-8"?>
<svg width="20px" height="13px" viewBox="0 0 20 13" version="1.1" xmlns="http://www.w3.org/2000/svg" xmlns:xlink="http://www.w3.org/1999/xlink">
    <!-- Generator: Sketch 45.1 (43504) - http://www.bohemiancoding.com/sketch -->
    <title>Icons/usa</title>
    <desc>Created with Sketch.</desc>
    <defs></defs>
    <g id="Symbols" stroke="none" stroke-width="1" fill="none" fill-rule="evenodd">
        <g id="Icons/usa">
            <g id="Group-2" transform="translate(-1.000000, 0.000000)">
                <rect id="Rectangle" fill="#3E4EB8" x="1" y="0" width="10" height="7"></rect>
                <rect id="Rectangle-2" fill="#F6412D" x="11" y="0" width="10" height="1.75"></rect>
                <rect id="Rectangle-2-Copy" fill="#F6412D" x="11" y="2.625" width="10" height="1.75"></rect>
                <rect id="Rectangle-2-Copy-2" fill="#F6412D" x="11" y="5.25" width="10" height="1.75"></rect>
                <rect id="Rectangle-2-Copy-3" fill="#F6412D" x="0.975862865" y="7.88000011" width="20.0241371" height="1.75"></rect>
                <rect id="Rectangle-2-Copy-4" fill="#F6412D" x="0.975862865" y="10.4499998" width="20.0241371" height="1.75"></rect>
                <polygon id="Star" fill="#FFFFFF" points="2.25 2.125 1.80916106 2.35676275 1.89335381 1.86588137 1.53670761 1.51823725 2.02958053 1.44661863 2.25 1 2.47041947 1.44661863 2.96329239 1.51823725 2.60664619 1.86588137 2.69083894 2.35676275"></polygon>
                <polygon id="Star-Copy" fill="#FFFFFF" points="3.95000005 2.125 3.50916111 2.35676275 3.59335385 1.86588137 3.23670766 1.51823725 3.72958058 1.44661863 3.95000005 1 4.17041952 1.44661863 4.66329243 1.51823725 4.30664624 1.86588137 4.39083899 2.35676275"></polygon>
                <polygon id="Star-Copy-2" fill="#FFFFFF" points="5.75 2.125 5.30916106 2.35676275 5.39335381 1.86588137 5.03670761 1.51823725 5.52958053 1.44661863 5.75 1 5.97041947 1.44661863 6.46329239 1.51823725 6.10664619 1.86588137 6.19083894 2.35676275"></polygon>
                <polygon id="Star-Copy-3" fill="#FFFFFF" points="5.75 2.125 5.30916106 2.35676275 5.39335381 1.86588137 5.03670761 1.51823725 5.52958053 1.44661863 5.75 1 5.97041947 1.44661863 6.46329239 1.51823725 6.10664619 1.86588137 6.19083894 2.35676275"></polygon>
                <polygon id="Star-Copy-4" fill="#FFFFFF" points="7.57999992 2.125 7.13916098 2.35676275 7.22335373 1.86588137 6.86670754 1.51823725 7.35958045 1.44661863 7.57999992 1 7.80041939 1.44661863 8.29329231 1.51823725 7.93664612 1.86588137 8.02083886 2.35676275"></polygon>
                <polygon id="Star-Copy-5" fill="#FFFFFF" points="9.25 2.125 8.80916106 2.35676275 8.89335381 1.86588137 8.53670761 1.51823725 9.02958053 1.44661863 9.25 1 9.47041947 1.44661863 9.96329239 1.51823725 9.60664619 1.86588137 9.69083894 2.35676275"></polygon>
                <polygon id="Star-Copy-11" fill="#FFFFFF" points="2.25 5.7750001 1.80916106 6.00676284 1.89335381 5.51588147 1.53670761 5.16823735 2.02958053 5.09661872 2.25 4.6500001 2.47041947 5.09661872 2.96329239 5.16823735 2.60664619 5.51588147 2.69083894 6.00676284"></polygon>
                <polygon id="Star-Copy-10" fill="#FFFFFF" points="3.95000005 5.7750001 3.50916111 6.00676284 3.59335385 5.51588147 3.23670766 5.16823735 3.72958058 5.09661872 3.95000005 4.6500001 4.17041952 5.09661872 4.66329243 5.16823735 4.30664624 5.51588147 4.39083899 6.00676284"></polygon>
                <polygon id="Star-Copy-9" fill="#FFFFFF" points="5.75 5.7750001 5.30916106 6.00676284 5.39335381 5.51588147 5.03670761 5.16823735 5.52958053 5.09661872 5.75 4.6500001 5.97041947 5.09661872 6.46329239 5.16823735 6.10664619 5.51588147 6.19083894 6.00676284"></polygon>
                <polygon id="Star-Copy-8" fill="#FFFFFF" points="5.75 5.7750001 5.30916106 6.00676284 5.39335381 5.51588147 5.03670761 5.16823735 5.52958053 5.09661872 5.75 4.6500001 5.97041947 5.09661872 6.46329239 5.16823735 6.10664619 5.51588147 6.19083894 6.00676284"></polygon>
                <polygon id="Star-Copy-7" fill="#FFFFFF" points="7.57999992 5.7750001 7.13916098 6.00676284 7.22335373 5.51588147 6.86670754 5.16823735 7.35958045 5.09661872 7.57999992 4.6500001 7.80041939 5.09661872 8.29329231 5.16823735 7.93664612 5.51588147 8.02083886 6.00676284"></polygon>
                <polygon id="Star-Copy-6" fill="#FFFFFF" points="9.25 5.7750001 8.80916106 6.00676284 8.89335381 5.51588147 8.53670761 5.16823735 9.02958053 5.09661872 9.25 4.6500001 9.47041947 5.09661872 9.96329239 5.16823735 9.60664619 5.51588147 9.69083894 6.00676284"></polygon>
                <g id="Group" transform="translate(1.420000, 2.000000)" fill="#FFFFFF">
                    <polygon id="Star-Copy-17" points="1.25 1.92499995 0.809161061 2.1567627 0.893353806 1.66588133 0.536707613 1.31823721 1.02958053 1.24661858 1.25 0.799999952 1.47041947 1.24661858 1.96329239 1.31823721 1.60664619 1.66588133 1.69083894 2.1567627"></polygon>
                    <polygon id="Star-Copy-16" points="2.95000005 1.92499995 2.50916111 2.1567627 2.59335385 1.66588133 2.23670766 1.31823721 2.72958058 1.24661858 2.95000005 0.799999952 3.17041952 1.24661858 3.66329243 1.31823721 3.30664624 1.66588133 3.39083899 2.1567627"></polygon>
                    <polygon id="Star-Copy-15" points="4.75 1.92499995 4.30916106 2.1567627 4.39335381 1.66588133 4.03670761 1.31823721 4.52958053 1.24661858 4.75 0.799999952 4.97041947 1.24661858 5.46329239 1.31823721 5.10664619 1.66588133 5.19083894 2.1567627"></polygon>
                    <polygon id="Star-Copy-14" points="4.75 1.92499995 4.30916106 2.1567627 4.39335381 1.66588133 4.03670761 1.31823721 4.52958053 1.24661858 4.75 0.799999952 4.97041947 1.24661858 5.46329239 1.31823721 5.10664619 1.66588133 5.19083894 2.1567627"></polygon>
                    <polygon id="Star-Copy-13" points="6.57999992 1.92499995 6.13916098 2.1567627 6.22335373 1.66588133 5.86670754 1.31823721 6.35958045 1.24661858 6.57999992 0.799999952 6.80041939 1.24661858 7.29329231 1.31823721 6.93664612 1.66588133 7.02083886 2.1567627"></polygon>
                    <polygon id="Star-Copy-12" points="8.25 1.92499995 7.80916106 2.1567627 7.89335381 1.66588133 7.53670761 1.31823721 8.02958053 1.24661858 8.25 0.799999952 8.47041947 1.24661858 8.96329239 1.31823721 8.60664619 1.66588133 8.69083894 2.1567627"></polygon>
                </g>
            </g>
        </g>
    </g>
</svg>