<?xml version="1.0" encoding="utf-8"?>
<!-- Generator: Adobe Illustrator 21.1.0, SVG Export Plug-In . SVG Version: 6.00 Build 0)  -->
<svg version="1.1" id="Layer_1" xmlns="http://www.w3.org/2000/svg" xmlns:xlink="http://www.w3.org/1999/xlink" x="0px" y="0px"
	 viewBox="0 0 40 40" style="enable-background:new 0 0 40 40;" xml:space="preserve">
<style type="text/css">
	.st0{fill:#8272FF;}
</style>
<title>enriquecimento</title>
<desc>Created with Sketch.</desc>
<g id="Symbols">
	<g id="enriquecimento">
		<path id="Fill-1" class="st0" d="M38,31.2v2.2h-4.5V38h-2.2v-4.5h-4.5v-2.2h4.5v-4.5h2.2v4.5H38z M8.8,11c0,0.9,0.2,1.8,0.5,2.6
			c0.4,0.8,0.8,1.5,1.4,2.1s1.3,1.1,2.1,1.4c0.8,0.4,1.7,0.5,2.6,0.5c0.9,0,1.8-0.2,2.6-0.5s1.5-0.8,2.2-1.4
			c0.6-0.6,1.1-1.3,1.5-2.1c0.4-0.8,0.5-1.7,0.5-2.6c0-0.9-0.2-1.8-0.5-2.6c-0.4-0.8-0.8-1.5-1.4-2.2s-1.3-1.1-2.2-1.5
			c-0.8-0.4-1.7-0.5-2.6-0.5c-0.9,0-1.8,0.2-2.6,0.5c-0.8,0.4-1.5,0.8-2.1,1.5S9.6,7.6,9.3,8.4C8.9,9.2,8.8,10.1,8.8,11z M20.3,18.6
			c1.1,0.4,2.1,1,3.1,1.7c1,0.7,1.8,1.5,2.5,2.4c0.7,0.9,1.4,1.9,1.8,3c0.5,1.1,0.8,2.2,1,3.4h-2.3c-0.3-1.3-0.7-2.5-1.4-3.6
			s-1.5-2.1-2.5-2.8c-1-0.8-2.1-1.4-3.3-1.9c-1.2-0.4-2.5-0.7-3.8-0.7c-1,0-2,0.1-3,0.4c-1,0.3-1.9,0.6-2.7,1.1s-1.6,1.1-2.3,1.8
			c-0.7,0.7-1.3,1.4-1.8,2.3c-0.5,0.8-0.9,1.7-1.1,2.7c-0.3,1-0.4,2-0.4,3H2c0-1.4,0.2-2.8,0.6-4.1s1-2.5,1.8-3.6
			c0.8-1.1,1.7-2.1,2.8-2.9c1.1-0.9,2.3-1.5,3.6-2c-1.3-0.9-2.4-2-3.1-3.3S6.5,12.6,6.5,11c0-1.2,0.2-2.4,0.7-3.5s1.1-2.1,1.9-2.9
			c0.8-0.8,1.8-1.5,2.9-1.9S14.3,2,15.5,2s2.4,0.2,3.5,0.7s2.1,1.1,2.9,1.9c0.8,0.8,1.5,1.8,1.9,2.9c0.5,1.1,0.7,2.3,0.7,3.5
			c0,0.8-0.1,1.5-0.3,2.3c-0.2,0.7-0.5,1.4-0.8,2.1C23,16,22.6,16.6,22,17.2C21.5,17.7,20.9,18.2,20.3,18.6z"/>
	</g>
</g>
</svg>
