<?xml version="1.0" encoding="utf-8"?>
<!-- Generator: Adobe Illustrator 21.1.0, SVG Export Plug-In . SVG Version: 6.00 Build 0)  -->
<svg version="1.1" id="Layer_1" xmlns="http://www.w3.org/2000/svg" xmlns:xlink="http://www.w3.org/1999/xlink" x="0px" y="0px"
	 viewBox="0 0 40 40" style="enable-background:new 0 0 40 40;" xml:space="preserve">
<style type="text/css">
	.st0{fill:#8272FF;}
</style>
<title>mail</title>
<desc>Created with Sketch.</desc>
<g>
	<path class="st0" d="M26.9,24l4.4,14L20,29.3L8.8,38l4.4-14L2,15.5h13.8L20,2l4.2,13.5H38L26.9,24z M27,31.8
		c-0.4-1.5-0.9-2.9-1.3-4.3s-0.9-2.9-1.4-4.3c1.2-0.9,2.4-1.8,3.6-2.7s2.4-1.8,3.6-2.7h-8.8L20,9.5l-2.6,8.2H8.6
		c1.2,0.9,2.4,1.8,3.6,2.7s2.4,1.8,3.6,2.7c-0.5,1.5-0.9,2.9-1.4,4.3s-0.9,2.9-1.3,4.3l7-5.4L27,31.8z"/>
</g>
</svg>
