<?xml version="1.0" encoding="utf-8"?>
<!-- Generator: Adobe Illustrator 21.1.0, SVG Export Plug-In . SVG Version: 6.00 Build 0)  -->
<svg version="1.1" id="Layer_1" xmlns="http://www.w3.org/2000/svg" xmlns:xlink="http://www.w3.org/1999/xlink" x="0px" y="0px"
	 viewBox="0 0 37.9 33.2" style="enable-background:new 0 0 37.9 33.2;" xml:space="preserve">
<style type="text/css">
	.st0{fill:#8272FF;}
</style>
<title>mail</title>
<desc>Created with Sketch.</desc>
<path class="st0" d="M69.5,88.1c-0.4-1-1-1.8-1.7-2.5c-0.7-0.7-1.6-1.3-2.5-1.7c-1-0.4-2-0.6-3.1-0.6c-1.1,0-2.1,0.2-3.1,0.6
	c-1,0.4-1.8,1-2.5,1.7c-0.7,0.7-1.3,1.6-1.7,2.5c-0.4,1-0.6,2-0.6,3.1c0,1.1,0.2,2.1,0.6,3.1c0.4,1,1,1.8,1.7,2.5
	c0.7,0.7,1.5,1.3,2.5,1.7c1,0.4,2,0.6,3.1,0.6c1.1,0,2.1-0.2,3.1-0.6c1-0.4,1.8-1,2.5-1.7c0.7-0.7,1.3-1.5,1.7-2.5
	c0.4-1,0.6-2,0.6-3.1C70.1,90.1,69.9,89.1,69.5,88.1z M63.9,96.6c-0.5,0.2-1.1,0.2-1.6,0.2c-0.8,0-1.5-0.1-2.2-0.4
	c-0.7-0.3-1.3-0.7-1.8-1.2c-0.5-0.5-0.9-1.1-1.2-1.8c-0.3-0.7-0.4-1.4-0.4-2.2c0-0.6,0.1-1.1,0.2-1.6c0.2-0.5,0.4-1,0.7-1.5l7.8,7.8
	C64.9,96.2,64.4,96.4,63.9,96.6z M67.6,92.8c-0.2,0.5-0.4,1-0.7,1.5l-7.8-7.8c0.5-0.3,1-0.5,1.5-0.7c0.5-0.2,1.1-0.2,1.6-0.2
	c0.8,0,1.5,0.2,2.2,0.5s1.3,0.7,1.8,1.2c0.5,0.5,0.9,1.1,1.2,1.8s0.5,1.4,0.5,2.2C67.9,91.7,67.8,92.3,67.6,92.8z"/>
<g>
	<path class="st0" d="M26.1,2l9.8,29.2h-2.4l-3-9H19.4l-3,9H14l-1.5-4.5H5.9l-1.5,4.5H2l6-18h2.4l4.8,14.4L23.8,2H26.1z M6.6,24.5
		h5.1l-2.6-7.7L6.6,24.5z M20.1,20h9.6L24.9,5.6L20.1,20z"/>
</g>
</svg>
