<?xml version="1.0" encoding="utf-8"?>
<!-- Generator: Adobe Illustrator 21.1.0, SVG Export Plug-In . SVG Version: 6.00 Build 0)  -->
<svg version="1.1" id="Layer_1" xmlns="http://www.w3.org/2000/svg" xmlns:xlink="http://www.w3.org/1999/xlink" x="0px" y="0px"
	 viewBox="0 0 40 40" style="enable-background:new 0 0 40 40;" xml:space="preserve">
<style type="text/css">
	.st0{fill:#8272FF;}
</style>
<title>lookup</title>
<desc>Created with Sketch.</desc>
<g id="Symbols">
	<g id="lookup">
		<path id="Fill-3" class="st0" d="M29.6,23.7c1.2-0.5,2.3-1.3,3.2-2.2c0.9-0.9,1.6-2,2.2-3.2c0.5-1.2,0.8-2.5,0.8-3.9
			s-0.3-2.7-0.8-3.9c-0.5-1.2-1.3-2.3-2.2-3.2c-0.9-0.9-2-1.6-3.2-2.2c-1.2-0.5-2.5-0.8-3.9-0.8c-1.4,0-2.7,0.3-3.9,0.8
			c-1.2,0.5-2.3,1.3-3.2,2.2c-0.9,0.9-1.6,2-2.2,3.2c-0.5,1.2-0.8,2.5-0.8,3.9s0.3,2.7,0.8,3.9c0.5,1.2,1.3,2.3,2.2,3.2
			c0.9,0.9,2,1.6,3.2,2.2c1.2,0.5,2.5,0.8,3.9,0.8C27,24.5,28.3,24.2,29.6,23.7 M2.5,36c0.4-0.4,0.8-1,1.5-1.6
			c0.6-0.6,1.3-1.4,2.1-2.2c0.8-0.8,1.6-1.6,2.4-2.5c0.8-0.8,1.7-1.7,2.5-2.5c0.8-0.8,1.6-1.6,2.3-2.2c0.7-0.7,1.3-1.3,1.8-1.8
			c0.5-0.5,0.8-0.8,1-1c-0.9-1.1-1.6-2.4-2.1-3.7c-0.5-1.3-0.7-2.7-0.7-4.2c0-1.1,0.1-2.2,0.4-3.3c0.3-1.1,0.7-2,1.2-3
			c0.5-0.9,1.2-1.8,1.9-2.5c0.8-0.8,1.6-1.4,2.5-1.9s1.9-1,3-1.2C23.4,2.1,24.5,2,25.6,2c1.1,0,2.2,0.1,3.3,0.4c1.1,0.3,2,0.7,3,1.2
			c0.9,0.5,1.8,1.2,2.5,1.9c0.8,0.8,1.4,1.6,1.9,2.5c0.5,0.9,1,1.9,1.2,3c0.3,1.1,0.4,2.1,0.4,3.3s-0.1,2.2-0.4,3.3s-0.7,2-1.2,3
			c-0.5,0.9-1.2,1.8-1.9,2.5c-0.8,0.8-1.6,1.4-2.5,1.9c-0.9,0.5-1.9,1-3,1.2c-1.1,0.3-2.2,0.4-3.3,0.4c-1.5,0-2.9-0.2-4.2-0.7
			c-1.3-0.5-2.6-1.2-3.7-2.1L3.9,37.7C3.7,37.9,3.4,38,3.1,38c-0.4,0-0.6-0.1-0.8-0.4C2.1,37.4,2,37.1,2,36.8
			C2,36.7,2.2,36.4,2.5,36"/>
	</g>
</g>
</svg>
