<?xml version="1.0" encoding="utf-8"?>
<!-- Generator: Adobe Illustrator 21.1.0, SVG Export Plug-In . SVG Version: 6.00 Build 0)  -->
<svg version="1.1" id="Layer_1" xmlns="http://www.w3.org/2000/svg" xmlns:xlink="http://www.w3.org/1999/xlink" x="0px" y="0px"
	 viewBox="0 0 40 40" style="enable-background:new 0 0 40 40;" xml:space="preserve">
<style type="text/css">
	.st0{fill:#8272FF;}
</style>
<title>mail</title>
<desc>Created with Sketch.</desc>
<g>
	<path class="st0" d="M20.3,18.6c1.1,0.4,2.1,1,3.1,1.7c1,0.7,1.8,1.5,2.5,2.4s1.4,1.9,1.8,3s0.8,2.2,1,3.4h-2.3
		c-0.3-1.3-0.7-2.5-1.4-3.6s-1.5-2.1-2.5-2.8s-2.1-1.4-3.3-1.9S16.8,20,15.5,20c-1,0-2,0.1-3,0.4s-1.9,0.6-2.7,1.1s-1.6,1.1-2.3,1.8
		s-1.3,1.4-1.8,2.3s-0.9,1.7-1.1,2.7s-0.4,2-0.4,3H2c0-1.4,0.2-2.8,0.6-4.1s1-2.5,1.8-3.6s1.7-2.1,2.8-2.9s2.3-1.5,3.6-2
		c-1.3-0.9-2.4-2-3.1-3.3S6.5,12.6,6.5,11c0-1.2,0.2-2.4,0.7-3.5s1.1-2.1,1.9-2.9s1.8-1.5,2.9-1.9S14.3,2,15.5,2s2.4,0.2,3.5,0.7
		s2.1,1.1,2.9,1.9s1.5,1.8,1.9,2.9s0.7,2.3,0.7,3.5c0,0.8-0.1,1.5-0.3,2.3s-0.5,1.4-0.8,2.1s-0.8,1.3-1.3,1.8S20.9,18.2,20.3,18.6z
		 M8.8,11c0,0.9,0.2,1.8,0.5,2.6s0.8,1.5,1.5,2.1s1.3,1.1,2.1,1.5s1.7,0.5,2.6,0.5c0.9,0,1.8-0.2,2.6-0.5s1.5-0.8,2.2-1.5
		s1.1-1.3,1.5-2.1s0.5-1.7,0.5-2.6c0-0.9-0.2-1.8-0.5-2.6s-0.8-1.5-1.5-2.2s-1.3-1.1-2.2-1.5s-1.7-0.5-2.6-0.5
		c-0.9,0-1.8,0.2-2.6,0.5s-1.5,0.8-2.1,1.5S9.6,7.6,9.3,8.4S8.8,10.1,8.8,11z M38,31.2v2.2h-4.5V38h-2.2v-4.5h-4.5v-2.2h4.5v-4.5
		h2.2v4.5H38z"/>
</g>
</svg>
