<?xml version="1.0" encoding="utf-8"?>
<!-- Generator: Adobe Illustrator 21.1.0, SVG Export Plug-In . SVG Version: 6.00 Build 0)  -->
<svg version="1.1" id="Layer_1" xmlns="http://www.w3.org/2000/svg" xmlns:xlink="http://www.w3.org/1999/xlink" x="0px" y="0px"
	 viewBox="0 0 37.7 33.2" style="enable-background:new 0 0 37.7 33.2;" xml:space="preserve">
<style type="text/css">
	.st0{fill:#8272FF;}
</style>
<title>mail</title>
<desc>Created with Sketch.</desc>
<path class="st0" d="M35.1,20.3c-0.4-1-1-1.8-1.7-2.5c-0.7-0.7-1.6-1.3-2.5-1.7c-1-0.4-2-0.6-3.1-0.6c-1.1,0-2.1,0.2-3.1,0.6
	c-1,0.4-1.8,1-2.5,1.7c-0.7,0.7-1.3,1.6-1.7,2.5c-0.4,1-0.6,2-0.6,3.1c0,1.1,0.2,2.1,0.6,3.1c0.4,1,1,1.8,1.7,2.5
	c0.7,0.7,1.5,1.3,2.5,1.7c1,0.4,2,0.6,3.1,0.6c1.1,0,2.1-0.2,3.1-0.6c1-0.4,1.8-1,2.5-1.7c0.7-0.7,1.3-1.5,1.7-2.5
	c0.4-1,0.6-2,0.6-3.1C35.8,22.3,35.5,21.2,35.1,20.3z M29.5,28.7C29,28.9,28.4,29,27.9,29c-0.8,0-1.5-0.1-2.2-0.4
	c-0.7-0.3-1.3-0.7-1.8-1.2c-0.5-0.5-0.9-1.1-1.2-1.8c-0.3-0.7-0.4-1.4-0.4-2.2c0-0.6,0.1-1.1,0.2-1.6c0.2-0.5,0.4-1,0.7-1.5l7.8,7.8
	C30.5,28.4,30,28.6,29.5,28.7z M33.3,25c-0.2,0.5-0.4,1-0.7,1.5l-7.8-7.8c0.5-0.3,1-0.5,1.5-0.7c0.5-0.2,1.1-0.2,1.6-0.2
	c0.8,0,1.5,0.2,2.2,0.5s1.3,0.7,1.8,1.2c0.5,0.5,0.9,1.1,1.2,1.8s0.5,1.4,0.5,2.2C33.5,23.9,33.4,24.4,33.3,25z"/>
<g>
	<path class="st0" d="M29,2v12.4c1.7,0.2,3.2,0.9,4.5,1.9V2H29z M22.2,6.5v9.9c1.3-1,2.8-1.7,4.5-1.9V6.5H22.2z M20,11h-4.5v13.5
		h3.5c0-0.4-0.1-0.8-0.1-1.1c0-1.6,0.4-3,1.1-4.3V11z M8.7,15.5v9h4.5v-9H8.7z M2,20v4.5h4.5V20H2z"/>
</g>
</svg>
