<?xml version="1.0" encoding="utf-8"?>
<!-- Generator: Adobe Illustrator 21.1.0, SVG Export Plug-In . SVG Version: 6.00 Build 0)  -->
<svg version="1.1" id="Layer_1" xmlns="http://www.w3.org/2000/svg" xmlns:xlink="http://www.w3.org/1999/xlink" x="0px" y="0px"
	 viewBox="0 0 40 40" style="enable-background:new 0 0 40 40;" xml:space="preserve">
<style type="text/css">
	.st0{fill:#8272FF;}
</style>
<title>patrocinada</title>
<desc>Created with Sketch.</desc>
<g id="Symbols">
	<g id="patrocinada">
		<path id="Fill-21" class="st0" d="M38,6.5v9h-9v-2.2h5.6c-0.7-1.4-1.5-2.6-2.6-3.7c-1-1.1-2.2-2.1-3.4-2.8
			c-1.3-0.8-2.6-1.4-4.1-1.8C23,4.5,21.5,4.2,20,4.2c-1.8,0-3.5,0.3-5.2,0.8c-1.7,0.6-3.2,1.3-4.5,2.4c-1.4,1-2.6,2.2-3.6,3.7
			c-1,1.4-1.8,3-2.3,4.7l-2.1-0.7c0.6-1.9,1.5-3.7,2.6-5.3C6,8.2,7.4,6.8,9,5.7s3.3-2.1,5.2-2.7C16,2.3,18,2,20,2
			c1.6,0,3.2,0.2,4.7,0.6c1.5,0.4,3,1,4.3,1.7c1.4,0.8,2.6,1.7,3.8,2.8c1.1,1.1,2.1,2.3,3,3.7V6.5H38z M20,35.8
			c1.8,0,3.5-0.3,5.2-0.8c1.7-0.6,3.2-1.3,4.5-2.4c1.4-1,2.6-2.2,3.6-3.7c1-1.4,1.8-3,2.3-4.7l2.1,0.7c-0.6,2-1.5,3.7-2.6,5.4
			s-2.5,3-4.1,4.2c-1.6,1.2-3.3,2.1-5.2,2.7C24,37.7,22,38,20,38c-1.6,0-3.2-0.2-4.7-0.6c-1.5-0.4-3-1-4.3-1.7
			c-1.4-0.8-2.6-1.7-3.8-2.8c-1.1-1.1-2.1-2.3-3-3.7v4.3H2v-9h9v2.2H5.4C6.1,28.1,7,29.4,8,30.5s2.2,2.1,3.4,2.8
			c1.3,0.8,2.6,1.4,4.1,1.8C17,35.5,18.5,35.8,20,35.8L20,35.8z"/>
	</g>
</g>
</svg>
