<?xml version="1.0" encoding="utf-8"?>
<!-- Generator: Adobe Illustrator 21.1.0, SVG Export Plug-In . SVG Version: 6.00 Build 0)  -->
<svg version="1.1" id="Layer_1" xmlns="http://www.w3.org/2000/svg" xmlns:xlink="http://www.w3.org/1999/xlink" x="0px" y="0px"
	 viewBox="0 0 35.5 37.7" style="enable-background:new 0 0 35.5 37.7;" xml:space="preserve">
<style type="text/css">
	.st0{fill:#8272FF;}
</style>
<title>mail</title>
<desc>Created with Sketch.</desc>
<g>
	<path class="st0" d="M28.5,14.2c0.8,0.4,1.5,0.9,2.1,1.4s1.1,1.2,1.6,1.9s0.8,1.4,1,2.2s0.4,1.6,0.4,2.5h-2.2
		c0-0.9-0.2-1.8-0.5-2.6s-0.8-1.5-1.5-2.1s-1.3-1.1-2.1-1.5s-1.7-0.5-2.6-0.5s-1.8,0.2-2.6,0.5s-1.5,0.8-2.1,1.5s-1.1,1.3-1.5,2.1
		c-0.4,0.8-0.5,1.7-0.5,2.6c0,1.1-0.2,2.1-0.7,3s-1.2,1.8-2,2.4c0.8,0.4,1.5,0.9,2.1,1.4s1.1,1.2,1.6,1.9s0.8,1.4,1,2.2
		s0.4,1.6,0.4,2.5h-2.2c0-0.9-0.2-1.8-0.5-2.6s-0.8-1.5-1.5-2.1s-1.3-1.1-2.1-1.4S11.9,29,11,29s-1.8,0.2-2.6,0.5S6.8,30.4,6.2,31
		s-1.1,1.3-1.5,2.1s-0.5,1.7-0.5,2.6H2c0-0.9,0.1-1.7,0.4-2.5s0.6-1.6,1-2.2s1-1.3,1.6-1.9s1.3-1,2.1-1.4c-0.9-0.6-1.5-1.4-2-2.4
		s-0.7-2-0.7-3c0-0.9,0.2-1.8,0.5-2.6s0.8-1.5,1.5-2.1s1.3-1.1,2.1-1.5s1.7-0.5,2.6-0.5c1.1,0,2.1,0.2,3,0.7s1.8,1.2,2.4,2
		c0.4-0.9,1-1.7,1.7-2.4c0.7-0.7,1.5-1.3,2.4-1.7c-0.9-0.6-1.5-1.4-2-2.4s-0.7-2-0.7-3c0-0.9,0.2-1.8,0.5-2.6s0.8-1.5,1.5-2.1
		s1.3-1.1,2.1-1.4S23.6,2,24.5,2s1.8,0.2,2.6,0.5c0.8,0.4,1.5,0.8,2.1,1.4s1.1,1.3,1.5,2.1s0.5,1.7,0.5,2.6c0,1.1-0.2,2.1-0.7,3
		S29.4,13.5,28.5,14.2z M11,26.7c0.6,0,1.2-0.1,1.7-0.4s1-0.6,1.4-1s0.7-0.9,1-1.4s0.4-1.1,0.4-1.8c0-0.6-0.1-1.2-0.4-1.7
		s-0.6-1-1-1.4s-0.9-0.7-1.4-1s-1.1-0.4-1.7-0.4c-0.6,0-1.2,0.1-1.7,0.4s-1,0.6-1.4,1s-0.7,0.9-1,1.4s-0.4,1.1-0.4,1.7
		c0,0.6,0.1,1.2,0.4,1.8s0.6,1,1,1.4s0.9,0.7,1.4,1S10.4,26.7,11,26.7z M20,8.7c0,0.6,0.1,1.2,0.4,1.7s0.6,1,1,1.4s0.9,0.7,1.4,1
		s1.1,0.4,1.7,0.4c0.6,0,1.2-0.1,1.7-0.4s1-0.6,1.4-1s0.7-0.9,1-1.4S29,9.4,29,8.7c0-0.6-0.1-1.2-0.4-1.7s-0.6-1-1-1.4
		s-0.9-0.7-1.4-1s-1.1-0.4-1.7-0.4c-0.6,0-1.2,0.1-1.7,0.4s-1,0.6-1.4,1s-0.7,0.9-1,1.4S20,8.1,20,8.7z"/>
</g>
</svg>
