<?xml version="1.0" encoding="utf-8"?>
<!-- Generator: Adobe Illustrator 21.1.0, SVG Export Plug-In . SVG Version: 6.00 Build 0)  -->
<svg version="1.1" id="Layer_1" xmlns="http://www.w3.org/2000/svg" xmlns:xlink="http://www.w3.org/1999/xlink" x="0px" y="0px"
	 viewBox="0 0 40 40" style="enable-background:new 0 0 40 40;" xml:space="preserve">
<style type="text/css">
	.st0{fill:#8272FF;}
</style>
<title>mail</title>
<desc>Created with Sketch.</desc>
<g>
	<path class="st0" d="M30.2,23.3c0.5,0,1,0.1,1.5,0.3s0.9,0.5,1.3,0.8l3.9,3.9c0.4,0.4,0.6,0.8,0.8,1.3s0.3,1,0.3,1.5
		s-0.1,1-0.3,1.5s-0.5,0.9-0.8,1.3c-0.7,0.7-1.3,1.3-1.8,1.8s-1.1,1-1.7,1.3s-1.2,0.6-2,0.8S29.8,38,28.8,38c-1.5,0-3-0.2-4.5-0.7
		s-3.1-1.1-4.6-1.9s-3-1.8-4.5-2.9s-2.9-2.3-4.2-3.6s-2.5-2.7-3.6-4.2c-1.1-1.5-2.1-3-2.8-4.5s-1.4-3.1-1.9-4.6S2,12.6,2,11.2
		c0-1,0.1-1.9,0.3-2.6s0.5-1.4,0.8-2S3.9,5.5,4.4,5s1.1-1.2,1.8-1.8C6.6,2.8,7,2.5,7.4,2.3S8.4,2,8.9,2c0.5,0,1,0.1,1.5,0.3
		s0.9,0.5,1.3,0.8L15.6,7c0.4,0.4,0.6,0.8,0.8,1.3s0.3,1,0.3,1.5s-0.1,1-0.3,1.4s-0.4,0.8-0.6,1.1s-0.5,0.6-0.9,0.9
		s-0.6,0.5-0.9,0.8s-0.5,0.5-0.6,0.8s-0.3,0.5-0.3,0.9c0,0.4,0.2,0.8,0.5,1.1l9.7,9.7c0.3,0.3,0.7,0.5,1.1,0.5
		c0.3,0,0.6-0.1,0.9-0.3s0.5-0.4,0.8-0.7s0.5-0.5,0.8-0.9s0.6-0.6,0.9-0.9s0.7-0.5,1.1-0.7S29.7,23.3,30.2,23.3z M28.8,35.7
		c0.8,0,1.6-0.1,2.1-0.2s1.1-0.4,1.5-0.7s0.9-0.7,1.3-1.1s0.9-0.9,1.5-1.5c0.3-0.3,0.5-0.7,0.5-1.1c0-0.2-0.1-0.5-0.3-0.7
		s-0.4-0.6-0.7-0.9s-0.6-0.6-0.9-1s-0.7-0.7-1-0.9s-0.6-0.6-0.9-0.8s-0.5-0.5-0.6-0.6c-0.3-0.3-0.7-0.5-1.2-0.5
		c-0.3,0-0.6,0.1-0.8,0.3s-0.5,0.4-0.8,0.7s-0.5,0.5-0.8,0.9s-0.6,0.6-0.9,0.9s-0.7,0.5-1.1,0.7s-0.9,0.3-1.4,0.3s-1-0.1-1.5-0.3
		s-0.9-0.5-1.3-0.8L12,18.3c-0.4-0.4-0.6-0.8-0.8-1.3s-0.3-1-0.3-1.5s0.1-1,0.3-1.4s0.4-0.8,0.6-1.1s0.5-0.6,0.9-0.9
		s0.6-0.5,0.9-0.8s0.5-0.5,0.6-0.8s0.3-0.5,0.3-0.8c0-0.5-0.2-0.8-0.5-1.2c-0.2-0.2-0.4-0.4-0.6-0.6s-0.5-0.6-0.8-0.9
		s-0.6-0.6-0.9-1s-0.7-0.6-1-0.9S10,4.7,9.7,4.5S9.2,4.3,8.9,4.3c-0.4,0-0.8,0.2-1.1,0.5C7.2,5.3,6.7,5.8,6.3,6.2S5.5,7.1,5.2,7.6
		s-0.5,1-0.7,1.5s-0.2,1.3-0.2,2.1c0,1.3,0.2,2.7,0.6,4.1s1,2.8,1.8,4.2c0.8,1.4,1.6,2.8,2.7,4.1c1,1.4,2.2,2.6,3.4,3.8
		s2.5,2.3,3.9,3.3s2.7,1.9,4.1,2.6c1.4,0.7,2.8,1.3,4.1,1.7S27.5,35.7,28.8,35.7z"/>
</g>
</svg>
