<?xml version="1.0" encoding="utf-8"?>
<!-- Generator: Adobe Illustrator 21.1.0, SVG Export Plug-In . SVG Version: 6.00 Build 0)  -->
<svg version="1.1" id="icon" xmlns="http://www.w3.org/2000/svg" xmlns:xlink="http://www.w3.org/1999/xlink" x="0px" y="0px"
	 viewBox="0 0 35 35.1" style="enable-background:new 0 0 35 35.1;" xml:space="preserve">
<style type="text/css">
	.st0{fill:#8272FF;}
</style>
<g>
	<path class="st0" d="M35,12.1c-0.4,0.4-0.8,0.7-1.1,1.1c-0.3,0.4-0.8,0.6-1.1,0.8c-0.3,0.2-0.8,0.4-1.3,0.5c-0.5,0.1-1,0.2-1.6,0.2
		c-0.4,0-0.8,0-1.1-0.1l-6.7,6.7c0.2,0.4,0.3,0.9,0.3,1.4s0.1,0.9,0.1,1.4c0,0.8-0.1,1.5-0.2,2.1s-0.4,1.2-0.7,1.8s-0.6,1.1-1,1.6
		s-0.9,1-1.4,1.5l-6.8-6.8l-10,10L0,35.1l0.8-2.4l10-10L4,15.9l0.8-0.8c0.8-0.8,1.8-1.4,2.8-1.9s2.2-0.6,3.3-0.6
		c1,0,1.9,0.1,2.8,0.4l6.7-6.7c-0.1-0.4-0.1-0.7-0.1-1.1c0-0.6,0.1-1.1,0.2-1.6s0.3-0.9,0.5-1.3s0.5-0.8,0.8-1.2s0.7-0.7,1.1-1.1
		L35,12.1z M29.9,12.5c0.6,0,1.3-0.2,1.8-0.5L23,3.3c-0.3,0.6-0.5,1.2-0.5,1.8c0,0.3,0,0.6,0.1,0.9s0.2,0.6,0.3,0.9l-8.6,8.6
		c-0.3-0.1-0.6-0.2-0.8-0.3S13,15,12.7,14.9s-0.5-0.1-0.8-0.2s-0.6-0.1-0.9-0.1c-0.7,0-1.3,0.1-1.9,0.3s-1.2,0.5-1.7,0.9l11.8,11.8
		c0.4-0.5,0.7-1.1,0.9-1.7s0.3-1.3,0.3-1.9c0-0.3,0-0.6-0.1-0.9s-0.1-0.5-0.2-0.8s-0.2-0.5-0.3-0.8s-0.2-0.5-0.3-0.8l8.6-8.6
		c0.3,0.1,0.6,0.2,0.9,0.3S29.5,12.5,29.9,12.5z"/>
</g>
</svg>
