<?xml version="1.0" encoding="utf-8"?>
<!-- Generator: Adobe Illustrator 21.1.0, SVG Export Plug-In . SVG Version: 6.00 Build 0)  -->
<svg version="1.1" id="Layer_1" xmlns="http://www.w3.org/2000/svg" xmlns:xlink="http://www.w3.org/1999/xlink" x="0px" y="0px"
	 viewBox="0 0 31.3 26.4" style="enable-background:new 0 0 31.3 26.4;" xml:space="preserve">
<style type="text/css">
	.st0{fill:#8272FF;}
</style>
<title>chat</title>
<desc>Created with Sketch.</desc>
<g>
	<path class="st0" d="M13.9,24.4H2v-9.2c0-3.4,0.7-6.1,2.1-8S7.9,3.5,11.4,2l2.6,4.9c-2.1,1-3.6,2-4.4,3c-0.8,1-1.3,2.1-1.3,3.5h5.7
		V24.4z M29.3,24.4H17.4v-9.2c0-3.4,0.7-6.1,2.1-8s3.8-3.7,7.2-5.2l2.6,4.9c-2.1,1-3.6,2-4.4,3s-1.3,2.1-1.3,3.5h5.7V24.4z"/>
</g>
<text transform="matrix(1 0 0 1 99.5 -39.5)"><tspan x="0" y="0" style="font-family:'MyriadPro-Regular'; font-size:12px;">Lorem</tspan><tspan x="32.2" y="0" style="font-family:'AlBayan'; font-size:12px;"> </tspan><tspan x="34.6" y="0" style="font-family:'MyriadPro-Regular'; font-size:12px;">ipsum</tspan></text>
</svg>
