<?xml version="1.0" encoding="utf-8"?>
<!-- Generator: Adobe Illustrator 21.1.0, SVG Export Plug-In . SVG Version: 6.00 Build 0)  -->
<svg version="1.1" id="Layer_1" xmlns="http://www.w3.org/2000/svg" xmlns:xlink="http://www.w3.org/1999/xlink" x="0px" y="0px"
	 viewBox="0 0 40 39.6" style="enable-background:new 0 0 40 39.6;" xml:space="preserve">
<style type="text/css">
	.st0{fill:#8272FF;}
</style>
<title>mail</title>
<desc>Created with Sketch.</desc>
<g>
	<path class="st0" d="M30.8,10.6c1.6,1.6,2.8,3.3,3.7,5.2s1.3,4,1.3,6.2c0,1.5-0.2,2.9-0.6,4.2s-0.9,2.6-1.6,3.8s-1.5,2.2-2.5,3.2
		c-1,1-2,1.8-3.2,2.5s-2.4,1.2-3.8,1.6s-2.7,0.6-4.2,0.6s-2.9-0.2-4.2-0.6s-2.6-0.9-3.8-1.6c-1.2-0.7-2.2-1.5-3.2-2.5
		c-1-1-1.8-2-2.5-3.2s-1.2-2.4-1.6-3.8S4.2,23.5,4.2,22c0-1.3,0.2-2.6,0.5-3.8s0.8-2.4,1.3-3.5s1.3-2.1,2.1-3s1.7-1.8,2.7-2.5
		s2.1-1.3,3.3-1.8s2.4-0.8,3.7-1V4h-4.5V1.8h11.3V4H20v2.2c1.6,0,3.2,0.2,4.8,0.7s3,1.2,4.3,2.1l3.7-3.7l1.6,1.6L30.8,10.6z
		 M20,35.5c1.9,0,3.6-0.4,5.2-1.1s3.1-1.7,4.3-2.9c1.2-1.2,2.2-2.7,2.9-4.3s1.1-3.4,1.1-5.2s-0.4-3.6-1.1-5.2s-1.7-3.1-2.9-4.3
		s-2.7-2.2-4.3-2.9S21.9,8.5,20,8.5s-3.6,0.4-5.2,1.1s-3.1,1.7-4.3,2.9s-2.2,2.7-2.9,4.3S6.5,20.2,6.5,22s0.4,3.6,1.1,5.2
		s1.7,3.1,2.9,4.3c1.2,1.2,2.7,2.2,4.3,2.9S18.1,35.5,20,35.5z M26.7,22v2.2h-9V13H20v9H26.7z"/>
</g>
</svg>
