<?xml version="1.0" encoding="utf-8"?>
<!-- Generator: Adobe Illustrator 21.1.0, SVG Export Plug-In . SVG Version: 6.00 Build 0)  -->
<svg version="1.1" id="Layer_1" xmlns="http://www.w3.org/2000/svg" xmlns:xlink="http://www.w3.org/1999/xlink" x="0px" y="0px"
	 viewBox="0 0 40 39.6" style="enable-background:new 0 0 40 39.6;" xml:space="preserve">
<style type="text/css">
	.st0{fill:#8272FF;}
</style>
<title>mail</title>
<desc>Created with Sketch.</desc>
<g>
	<path class="st0" d="M20,35.5c1.8,0,3.5-0.3,5.2-0.8s3.2-1.3,4.5-2.4c1.4-1,2.6-2.2,3.6-3.7s1.8-3,2.3-4.7l2.1,0.7
		c-0.6,2-1.5,3.7-2.6,5.4c-1.2,1.6-2.5,3-4.1,4.2c-1.6,1.2-3.3,2.1-5.2,2.7s-3.8,1-5.9,1c-1.6,0-3.2-0.2-4.7-0.6
		c-1.5-0.4-3-1-4.3-1.7s-2.6-1.7-3.8-2.8c-1.1-1.1-2.1-2.3-3-3.7v4.3H2v-9h9v2.2H5.4C6.1,27.9,7,29.1,8,30.3s2.2,2.1,3.4,2.8
		s2.6,1.4,4.1,1.8S18.5,35.5,20,35.5z M38,6.3v9h-9V13h5.6c-0.7-1.4-1.5-2.6-2.6-3.7c-1-1.1-2.2-2.1-3.4-2.8s-2.6-1.4-4.1-1.8
		S21.5,4,20,4c-1.8,0-3.5,0.3-5.2,0.8s-3.2,1.3-4.5,2.4s-2.6,2.2-3.6,3.7s-1.8,3-2.3,4.7L2.2,15c0.6-1.9,1.5-3.7,2.6-5.3
		s2.5-3,4.1-4.2s3.3-2.1,5.2-2.7s3.8-1,5.9-1c1.6,0,3.2,0.2,4.7,0.6s3,1,4.3,1.7s2.6,1.7,3.8,2.8c1.1,1.1,2.1,2.3,3,3.7V6.3H38z"/>
</g>
</svg>
