<?xml version="1.0" encoding="utf-8"?>
<!-- Generator: Adobe Illustrator 21.1.0, SVG Export Plug-In . SVG Version: 6.00 Build 0)  -->
<svg version="1.1" id="Layer_1" xmlns="http://www.w3.org/2000/svg" xmlns:xlink="http://www.w3.org/1999/xlink" x="0px" y="0px"
	 viewBox="0 0 40 40" style="enable-background:new 0 0 40 40;" xml:space="preserve">
<style type="text/css">
	.st0{fill:#8272FF;}
</style>
<title>voice</title>
<desc>Created with Sketch.</desc>
<g id="Symbols">
	<g id="voice">
		<path id="Fill-5" class="st0" d="M28.8,35.8c0.8,0,1.6-0.1,2.1-0.2c0.6-0.2,1.1-0.4,1.5-0.7c0.5-0.3,0.9-0.7,1.3-1.1
			c0.4-0.4,0.9-0.9,1.5-1.5c0.3-0.3,0.5-0.7,0.5-1.1c0-0.2-0.1-0.5-0.3-0.7c-0.2-0.3-0.4-0.6-0.7-0.9c-0.3-0.3-0.6-0.6-0.9-1
			s-0.7-0.6-1-0.9c-0.3-0.3-0.6-0.6-0.9-0.8c-0.3-0.3-0.5-0.5-0.6-0.6c-0.3-0.3-0.7-0.5-1.2-0.5c-0.3,0-0.6,0.1-0.8,0.3
			c-0.3,0.2-0.5,0.4-0.8,0.6c-0.3,0.3-0.5,0.5-0.8,0.9c-0.3,0.3-0.6,0.6-0.9,0.9c-0.3,0.3-0.7,0.5-1.1,0.6c-0.4,0.2-0.9,0.3-1.4,0.3
			c-0.5,0-1-0.1-1.5-0.3c-0.5-0.2-0.9-0.5-1.3-0.8L12,18.3c-0.4-0.4-0.6-0.8-0.8-1.3c-0.2-0.5-0.3-1-0.3-1.5s0.1-1,0.3-1.4
			c0.2-0.4,0.4-0.8,0.7-1.1c0.3-0.3,0.5-0.6,0.9-0.9c0.3-0.3,0.6-0.5,0.9-0.8c0.3-0.3,0.5-0.5,0.6-0.8s0.3-0.5,0.3-0.8
			c0-0.5-0.2-0.8-0.5-1.2c-0.2-0.2-0.4-0.4-0.6-0.6s-0.5-0.6-0.8-0.9c-0.3-0.3-0.6-0.7-0.9-1c-0.3-0.3-0.7-0.6-1-0.9
			C10.3,4.9,10,4.7,9.7,4.5C9.4,4.3,9.2,4.3,8.9,4.3c-0.4,0-0.8,0.2-1.1,0.5C7.2,5.3,6.7,5.8,6.3,6.2C5.9,6.7,5.5,7.1,5.2,7.6
			C4.9,8,4.6,8.5,4.5,9.1c-0.2,0.6-0.2,1.3-0.2,2.1c0,1.3,0.2,2.7,0.6,4.1c0.4,1.4,1,2.8,1.8,4.2c0.8,1.4,1.6,2.8,2.7,4.1
			c1,1.4,2.2,2.6,3.4,3.8s2.5,2.3,3.9,3.3c1.4,1,2.7,1.9,4.1,2.6c1.4,0.7,2.8,1.3,4.1,1.7C26.2,35.5,27.5,35.8,28.8,35.8 M30.2,23.3
			c0.5,0,1,0.1,1.5,0.3c0.5,0.2,0.9,0.5,1.3,0.8l3.9,3.9c0.4,0.4,0.6,0.8,0.8,1.3s0.3,1,0.3,1.5s-0.1,1-0.3,1.5s-0.5,0.9-0.8,1.3
			c-0.7,0.7-1.3,1.3-1.8,1.8c-0.6,0.5-1.1,1-1.7,1.3c-0.6,0.4-1.2,0.6-2,0.8c-0.7,0.2-1.6,0.3-2.6,0.3c-1.5,0-3-0.2-4.5-0.7
			c-1.5-0.5-3.1-1.1-4.6-1.9c-1.5-0.8-3-1.8-4.5-2.9c-1.5-1.1-2.9-2.3-4.2-3.6c-1.3-1.3-2.5-2.7-3.6-4.2c-1.1-1.5-2.1-3-2.8-4.5
			c-0.8-1.5-1.4-3.1-1.9-4.6c-0.4-1.5-0.7-3-0.7-4.4c0-1,0.1-1.9,0.3-2.6s0.5-1.4,0.8-2C3.4,6.1,3.9,5.5,4.4,5s1.1-1.2,1.8-1.8
			C6.6,2.8,7,2.5,7.4,2.3C7.9,2.1,8.4,2,8.9,2c0.5,0,1,0.1,1.5,0.3c0.5,0.2,0.9,0.5,1.3,0.8L15.6,7c0.4,0.4,0.6,0.8,0.8,1.3
			c0.2,0.5,0.3,1,0.3,1.5c0,0.5-0.1,1-0.3,1.4s-0.4,0.8-0.6,1.1c-0.3,0.3-0.5,0.6-0.9,0.9c-0.3,0.3-0.6,0.5-0.9,0.8
			c-0.3,0.3-0.5,0.5-0.7,0.8c-0.2,0.3-0.3,0.5-0.3,0.9c0,0.4,0.2,0.8,0.5,1.1l9.7,9.7c0.3,0.3,0.7,0.5,1.1,0.5
			c0.3,0,0.6-0.1,0.9-0.3c0.3-0.2,0.5-0.4,0.8-0.6c0.3-0.3,0.5-0.5,0.8-0.9c0.3-0.3,0.6-0.6,0.9-0.9c0.3-0.3,0.7-0.5,1.1-0.6
			C29.3,23.4,29.7,23.3,30.2,23.3"/>
	</g>
</g>
</svg>
